# 3ds Max Wavefront OBJ Exporter v0.97b - (c)2007 guruware
# File Created: 27.02.2021 10:02:08

mtllib Torche_01.mtl

#
# object Torche_01
#

v  0.9942 3.4354 -3.0411
v  -0.2271 3.4359 -5.4013
v  -1.0424 3.4354 -6.8376
v  0.7402 42.4625 -7.4350
v  3.5807 42.4625 -2.2460
v  -3.9102 3.4354 -0.2096
v  -0.6406 3.4354 -0.2096
v  1.1420 42.4625 1.9780
v  -3.7355 42.4625 1.9780
v  -6.5760 42.4625 -3.2110
v  -5.9467 3.4354 -4.0060
v  -5.1314 3.4359 -2.5697
v  -2.6793 1.3498 -3.9855
v  1.4724 44.4696 -8.7087
v  5.0435 44.4696 -2.2396
v  1.8728 44.4696 3.2510
v  -4.4676 44.4696 3.2516
v  -3.7355 46.4770 1.9790
v  -6.5769 46.4770 -3.2115
v  -8.0388 44.4696 -3.2174
v  1.1420 46.4770 1.9780
v  3.5816 46.4770 -2.2455
v  0.7402 46.4770 -7.4360
v  2.2283 53.8039 -10.0248
v  6.5549 53.8039 -2.2325
v  2.6268 53.8039 4.5646
v  -5.2236 53.8039 4.5678
v  2.7986 55.1126 -11.0171
v  7.6945 55.1126 -2.2275
v  3.1958 55.1126 5.5558
v  -5.7939 55.1126 5.5600
v  2.6268 56.4215 4.5646
v  -5.2236 56.4215 4.5688
v  6.5558 56.4215 -2.2320
v  2.2283 56.4215 -10.0258
v  1.8959 59.7199 -8.6727
v  5.2249 59.7199 -2.6248
v  1.8505 59.7199 3.2116
v  -4.8911 59.7199 3.2157
v  2.6621 63.3600 4.6259
v  -5.2589 63.3600 4.6312
v  6.6271 63.3600 -2.2312
v  2.2636 63.3600 -10.0882
v  2.9426 65.3671 -11.2694
v  7.9837 65.3671 -2.2252
v  3.3393 65.3671 5.8056
v  -5.9379 65.3671 5.8124
v  -5.3687 67.3744 4.8916
v  -9.8425 67.3744 -3.2958
v  -10.9790 65.3671 -3.2318
v  2.7716 67.3744 4.8852
v  6.8473 67.3744 -2.1612
v  -6.0024 71.1922 5.9939
v  -7.5247 75.0098 8.6415
v  -14.1495 75.0098 -3.3143
v  -11.1085 71.1922 -3.3013
v  3.4034 71.1922 5.9859
v  4.9216 75.0098 8.6305
v  8.1133 71.1922 -2.1557
v  11.1543 75.0098 -2.1428
v  2.3734 67.3744 -10.3486
v  3.0071 71.1922 -11.4509
v  -10.1401 78.8271 13.1899
v  -14.9152 78.8271 4.6437
v  7.5298 78.8271 13.1739
v  -1.0713 78.8271 13.1817
v  16.3787 78.8271 -2.1206
v  11.9154 78.8271 5.5938
v  16.3672 86.1716 -2.1418
v  11.9504 91.7593 -9.8621
v  8.6257 91.7593 -9.2090
v  12.4623 86.1719 -2.1514
v  -10.1527 86.1716 13.1694
v  -1.3179 91.7574 13.1614
v  -1.3112 91.7578 9.7767
v  -8.1863 86.1719 9.7828
v  7.5171 86.1716 13.1520
v  11.9428 91.7574 5.5054
v  9.0138 91.7578 3.8092
v  5.5641 86.1721 9.7692
v  11.8592 78.8271 -10.2093
v  7.1448 78.8271 -18.6470
v  7.1575 86.1716 -18.6264
v  5.1911 86.1719 -15.2398
v  4.2068 80.1417 -13.5664
v  7.4650 80.1418 -7.6782
v  10.5300 80.1418 -2.1392
v  7.6328 80.1419 2.8676
v  -1.3528 80.1419 8.1036
v  -7.2021 80.1417 8.1094
v  -14.9457 91.7593 4.4051
v  -14.8362 91.6317 4.6052
v  -11.6209 91.7593 3.7519
v  -10.6897 55.1126 -3.2296
v  -9.5502 53.8039 -3.2245
v  -9.6224 63.3600 -3.2258
v  4.5294 75.0098 -14.0985
v  -10.4764 80.1418 2.1921
v  -13.5253 80.1418 -3.3178
v  -15.4575 86.1719 -3.3056
v  -1.6400 80.1432 -3.0607
v  -4.3119 3.4354 -6.8376
v  -4.1373 42.4625 -7.4350
v  -4.8680 44.4696 -8.7080
v  -4.1373 46.4770 -7.4350
v  -5.6221 53.8039 -10.0216
v  -6.1911 55.1126 -11.0128
v  -5.6221 56.4215 -10.0216
v  -9.5510 56.4215 -3.2250
v  -8.2201 59.7199 -2.8323
v  -4.8458 59.7199 -8.6686
v  -5.6573 63.3600 -10.0829
v  -6.3346 65.3671 -11.2626
v  -5.7668 67.3744 -10.3422
v  -6.3987 71.1922 -11.4429
v  -7.9168 75.0098 -14.0875
v  -10.5250 78.8271 -18.6309
v  -1.6252 78.8271 -18.6390
v  -19.3739 78.8271 -3.3364
v  -15.3899 78.8271 -10.2225
v  -19.3625 86.1716 -3.3152
v  -1.6774 91.7574 -18.6184
v  -1.6841 91.7578 -15.2337
v  -10.5124 86.1716 -18.6090
v  -14.9381 91.7574 -10.9624
v  -12.0091 91.7578 -9.2662
v  -8.5594 86.1721 -15.2262
v  -10.5030 80.1419 -8.5407
v  -7.6015 80.1420 -13.5548
v  -1.6984 80.1419 -13.5606
v  4.6062 80.1420 8.0977
# 131 vertices

vn 0.8784 -0.4772 0.0272
vn 0.8341 0.3153 -0.4526
vn 0.4454 -0.4422 -0.7785
vn 0.4806 -0.3620 -0.7987
vn 0.9278 -0.3727 0.0141
vn -0.4553 -0.4705 0.7559
vn 0.4308 -0.4965 0.7536
vn 0.4649 -0.3765 0.8013
vn -0.4718 -0.3663 0.8020
vn -0.9367 -0.3500 -0.0085
vn -0.9014 -0.4329 -0.0075
vn -0.2720 -0.9509 0.1475
vn 0.1262 -0.9755 -0.1804
vn 0.5068 -0.0002 -0.8621
vn 1.0000 -0.0002 0.0089
vn 0.4997 -0.0000 0.8662
vn -0.5068 -0.0002 0.8621
vn -0.5065 0.1469 0.8497
vn -0.9893 0.1452 -0.0128
vn -1.0000 -0.0002 -0.0089
vn 0.4950 0.1464 0.8564
vn 0.9893 0.1452 0.0128
vn 0.5065 0.1469 -0.8497
vn 0.4241 -0.5506 -0.7190
vn 0.8363 -0.5482 0.0076
vn 0.4179 -0.5497 0.7233
vn -0.4241 -0.5506 0.7190
vn 0.5052 -0.0002 -0.8630
vn 1.0000 -0.0002 0.0073
vn -0.5052 -0.0002 0.8630
vn 0.4113 0.5691 0.7120
vn -0.4142 0.5507 0.7247
vn 0.8359 0.5486 0.0189
vn 0.4142 0.5507 -0.7247
vn 0.5445 0.0086 -0.8387
vn 0.9996 0.0086 -0.0277
vn 0.5003 0.0120 0.8657
vn -0.5445 0.0086 0.8387
vn 0.4334 -0.4991 0.7504
vn -0.4358 -0.4810 0.7608
vn 0.8775 -0.4792 0.0185
vn 0.4358 -0.4810 -0.7608
vn 0.5065 -0.0441 -0.8611
vn 0.9994 -0.0343 0.0035
vn 0.5010 -0.0440 0.8643
vn -0.5065 -0.0441 0.8611
vn -0.5063 0.1001 0.8565
vn -0.9935 0.1120 -0.0192
vn -0.9994 -0.0343 -0.0035
vn 0.4952 0.0997 0.8630
vn 0.9935 0.1120 0.0192
vn -0.4406 -0.5036 0.7431
vn -0.3382 -0.7460 0.5737
vn -0.6689 -0.7433 -0.0061
vn -0.8654 -0.5010 -0.0102
vn 0.4325 -0.5025 0.7486
vn 0.3339 -0.7448 0.5777
vn 0.8654 -0.5010 0.0102
vn 0.6689 -0.7433 0.0061
vn 0.5063 0.1001 -0.8565
vn 0.4406 -0.5036 -0.7431
vn -0.4620 -0.4024 0.7903
vn -0.7932 -0.4184 0.4424
vn 0.4577 -0.4019 0.7931
vn 0.0008 -0.4217 0.9067
vn 0.9153 -0.4027 0.0072
vn 0.7851 -0.4211 0.4542
vn 0.8952 0.4456 0.0003
vn 0.5627 0.8028 -0.1971
vn -0.5197 0.8409 0.1511
vn -0.6081 0.7926 -0.0459
vn -0.4637 0.4525 0.7618
vn -0.0002 0.7971 0.6039
vn 0.0004 0.8366 -0.5479
vn 0.3084 0.7873 -0.5339
vn 0.4475 0.4460 0.7751
vn 0.5226 0.7971 0.3026
vn -0.4744 0.8364 -0.2745
vn -0.3092 0.7848 -0.5371
vn 0.7933 -0.4183 -0.4424
vn 0.4620 -0.4024 -0.7903
vn 0.4637 0.4525 -0.7618
vn -0.3084 0.7873 0.5339
vn -0.3507 0.7228 0.5955
vn -0.5705 0.7582 0.3157
vn -0.6889 0.7248 -0.0078
vn -0.5668 0.7557 -0.3280
vn -0.0007 0.7559 -0.6547
vn 0.3507 0.7228 -0.5955
vn -0.5602 0.8048 0.1961
vn -0.8836 -0.0252 0.4675
vn 0.5198 0.8409 -0.1511
vn -1.0000 -0.0002 -0.0073
vn -0.8363 -0.5482 -0.0076
vn -0.8775 -0.4792 -0.0185
vn 0.3382 -0.7460 -0.5737
vn 0.5705 0.7582 -0.3157
vn 0.6889 0.7248 0.0078
vn 0.6081 0.7926 0.0459
vn -0.0000 1.0000 -0.0000
vn -0.4529 -0.4314 -0.7802
vn -0.4673 -0.3494 -0.8121
vn -0.0914 -0.1528 -0.9840
vn -0.4997 -0.0000 -0.8662
vn -0.4950 0.1464 -0.8564
vn -0.4179 -0.5497 -0.7233
vn -0.4113 0.5691 -0.7120
vn -0.8359 0.5486 -0.0189
vn -0.9996 0.0086 0.0277
vn -0.5003 0.0120 -0.8657
vn -0.4334 -0.4991 -0.7504
vn -0.5010 -0.0440 -0.8643
vn -0.4952 0.0997 -0.8630
vn -0.4325 -0.5025 -0.7486
vn -0.3339 -0.7448 -0.5777
vn -0.4577 -0.4019 -0.7931
vn -0.0008 -0.4217 -0.9067
vn -0.9153 -0.4027 -0.0072
vn -0.7851 -0.4211 -0.4542
vn -0.8952 0.4456 -0.0003
vn 0.0002 0.7971 -0.6039
vn -0.0003 0.8366 0.5479
vn -0.4475 0.4460 -0.7751
vn -0.5226 0.7971 -0.3026
vn 0.4742 0.8364 0.2748
vn 0.3092 0.7848 0.5371
vn 0.5668 0.7557 0.3280
vn 0.3454 0.7234 0.5978
vn 0.0007 0.7559 0.6547
vn -0.3454 0.7234 -0.5978
# 130 vertex normals

vt 0.7500 0.0000 1.0000
vt 0.8333 -0.0000 1.0000
vt 0.9167 -0.0000 1.0000
vt 0.9572 0.2500 1.0000
vt 0.7500 0.2500 1.0000
vt 0.4167 0.0000 1.0000
vt 0.5833 0.0000 1.0000
vt 0.5833 0.2500 1.0000
vt 0.4167 0.2500 1.0000
vt 0.5000 0.0000 0.0000
vt 0.3333 0.0000 -0.0000
vt 0.0833 0.0000 -1.0000
vt 0.9576 0.2500 1.0000
vt 1.0603 0.2499 1.0000
vt 0.9574 0.2500 1.0000
vt 1.0101 0.2500 1.0000
vt 1.0094 0.2500 1.0000
vt 0.8538 0.2500 1.0000
vt 1.0087 0.2500 1.0000
vt 1.0089 0.2500 1.0000
vt 0.7517 0.2500 1.0000
vt 0.7558 0.2500 1.0000
vt 0.8598 0.2500 1.0000
vt 1.0078 0.2500 1.0000
vt 1.0083 0.2500 1.0000
vt 0.8536 0.2500 1.0000
vt 0.8560 0.2500 1.0000
vt 0.8333 0.0000 1.0000
vt 0.5000 0.0000 -0.0000
vt 0.9167 0.0000 1.0000
vt 0.8585 0.2500 1.0000
vt 0.9333 0.2500 1.0000
vt 0.8473 0.2500 1.0000
vt 0.8514 0.2500 1.0000
vt 0.7386 0.2500 1.0000
vt 1.0084 0.2500 1.0000
vt 1.0038 0.2500 1.0000
vt 1.0100 0.2500 1.0000
vt 1.0088 0.2500 1.0000
vt 0.7495 0.2500 1.0000
vt 0.7520 0.2500 1.0000
vt 0.7288 0.2500 1.0000
# 42 texture coords

o Torche_01
g Torche_01
usemtl wire_214228153
s 8
f 1/1/1 2/2/2 3/3/3 4/4/4 5/5/5 
f 6/6/6 7/7/7 8/8/8 9/9/9 
f 7/7/7 1/1/1 5/5/5 8/8/8 
f 6/3/6 9/4/9 10/5/10 11/1/11 12/2/12 
s 1
f 13/10/13 7/11/7 6/12/6 
f 1/1/1 7/11/7 13/10/13 
s off
f 5/13/5 4/4/4 14/4/14 15/13/15 
f 9/4/9 8/14/8 16/14/16 17/4/17 
f 8/14/8 5/13/5 15/13/15 16/14/16 
f 17/4/17 18/4/18 19/13/19 20/13/20 
f 16/14/16 21/14/21 18/4/18 17/4/17 
f 15/13/15 22/13/22 21/14/21 16/14/16 
f 22/13/22 23/4/23 24/4/24 25/13/25 
f 18/4/18 21/14/21 26/14/26 27/4/27 
f 21/14/21 22/13/22 25/13/25 26/14/26 
f 25/13/25 24/4/24 28/4/28 29/13/29 
f 27/4/27 26/14/26 30/14/16 31/4/30 
f 26/14/26 25/13/25 29/13/29 30/14/16 
f 30/14/16 32/14/31 33/4/32 31/4/30 
f 29/13/29 34/13/33 32/14/31 30/14/16 
f 34/13/33 35/4/34 36/4/35 37/13/36 
f 33/4/32 32/14/31 38/14/37 39/4/38 
f 32/14/31 34/13/33 37/13/36 38/14/37 
f 38/14/37 40/14/39 41/4/40 39/4/38 
f 37/13/36 42/13/41 40/14/39 38/14/37 
f 42/13/41 43/4/42 44/4/43 45/13/44 
f 41/4/40 40/14/39 46/14/45 47/4/46 
f 40/14/39 42/13/41 45/13/44 46/14/45 
f 47/4/46 48/4/47 49/13/48 50/13/49 
f 46/14/45 51/14/50 48/4/47 47/4/46 
f 45/13/44 52/13/51 51/14/50 46/14/45 
f 53/4/52 54/4/53 55/13/54 56/13/55 
f 57/14/56 58/14/57 54/4/53 53/4/52 
f 59/13/58 60/13/59 58/14/57 57/14/56 
f 59/13/58 52/13/51 61/4/60 62/4/61 
f 54/4/53 63/4/62 64/15/63 
f 58/14/57 65/14/64 66/16/65 
f 53/4/52 48/4/47 51/14/50 57/14/56 
f 60/13/59 67/13/66 68/17/67 
f 57/14/56 51/14/50 52/13/51 59/13/58 
f 69/13/68 70/18/69 71/18/70 72/13/71 
f 73/4/72 74/19/73 75/19/74 76/4/75 
f 77/14/76 78/20/77 79/20/78 80/14/79 
f 81/15/80 82/4/81 83/4/82 70/18/69 
f 66/16/65 65/14/64 77/14/76 74/19/73 
f 68/17/67 67/13/66 69/13/68 78/20/77 
f 71/18/70 84/21/83 85/22/84 86/23/85 
f 87/13/86 88/24/87 79/20/78 72/13/71 
f 89/25/88 90/4/89 76/4/75 75/19/74 
f 74/19/73 77/14/76 80/14/79 75/19/74 
f 78/20/77 69/13/68 72/13/71 79/20/78 
f 91/26/90 92/27/91 73/4/72 76/4/75 93/26/92 
f 22/13/22 15/13/15 14/4/14 23/4/23 
f 27/4/27 31/4/30 94/13/93 95/13/94 
f 34/13/33 29/13/29 28/4/28 35/4/34 
f 41/4/40 47/4/46 50/13/49 96/13/95 
f 52/13/51 45/13/44 44/4/43 61/4/60 
f 60/13/59 59/13/58 62/4/61 97/4/96 
f 97/4/96 82/4/81 81/15/80 
f 48/4/47 53/4/52 56/13/55 49/13/48 
s 1
f 2/28/2 1/1/1 13/10/13 
f 13/29/13 6/30/6 12/28/12 
s off
f 63/4/62 73/4/72 92/27/91 64/15/63 
f 93/18/92 98/31/97 99/13/98 100/13/99 
f 101/32/100 99/13/98 98/33/97 
f 90/4/89 89/25/88 101/32/100 
f 88/24/87 87/13/86 101/32/100 
f 86/34/85 85/35/84 101/32/100 
s 8
f 3/6/3 102/7/101 103/8/102 4/9/4 
f 102/7/101 11/1/11 10/5/10 103/8/102 
s 1
f 13/10/13 102/11/101 3/12/3 
f 11/1/11 102/11/101 13/10/13 13/10/103 
s off
f 10/13/10 9/4/9 17/4/17 20/13/20 
f 4/4/4 103/14/102 104/14/104 14/4/14 
f 103/14/102 10/13/10 20/13/20 104/14/104 
f 104/14/104 105/14/105 23/4/23 14/4/14 
f 20/13/20 19/13/19 105/14/105 104/14/104 
f 19/13/19 18/4/18 27/4/27 95/13/94 
f 23/4/23 105/14/105 106/14/106 24/4/24 
f 105/14/105 19/13/19 95/13/94 106/14/106 
f 24/4/24 106/14/106 107/14/104 28/4/28 
f 106/14/106 95/13/94 94/13/93 107/14/104 
f 107/14/104 108/14/107 35/4/34 28/4/28 
f 94/13/93 109/13/108 108/14/107 107/14/104 
f 109/13/108 33/4/32 39/4/38 110/13/109 
f 35/4/34 108/14/107 111/14/110 36/4/35 
f 108/14/107 109/13/108 110/13/109 111/14/110 
f 36/4/35 43/4/42 42/13/41 37/13/36 
f 111/14/110 112/14/111 43/4/42 36/4/35 
f 110/13/109 96/13/95 112/14/111 111/14/110 
f 43/4/42 112/14/111 113/14/112 44/4/43 
f 112/14/111 96/13/95 50/13/49 113/14/112 
f 113/14/112 114/14/113 61/4/60 44/4/43 
f 50/13/49 49/13/48 114/14/113 113/14/112 
f 115/14/114 116/14/115 97/4/96 62/4/61 
f 56/13/55 55/13/54 116/14/115 115/14/114 
f 116/14/115 117/14/116 118/36/117 
f 62/4/61 61/4/60 114/14/113 115/14/114 
f 55/13/54 119/13/118 120/37/119 
f 115/14/114 114/14/113 49/13/48 56/13/55 
f 121/13/120 91/18/90 93/18/92 100/13/99 
f 83/4/82 122/19/121 123/19/122 84/4/83 
f 124/14/123 125/20/124 126/20/125 127/14/126 
f 118/36/117 117/14/116 124/14/123 122/19/121 
f 120/37/119 119/13/118 121/13/120 125/20/124 
f 128/38/127 129/14/128 127/14/126 126/20/125 
f 129/14/128 130/39/129 123/19/122 127/14/126 
f 122/19/121 124/14/123 127/14/126 123/19/122 
f 125/20/124 121/13/120 100/13/99 126/20/125 
f 70/26/69 83/4/82 84/4/83 71/26/70 
f 109/13/108 94/13/93 31/4/30 33/4/32 
f 96/13/95 110/13/109 39/4/38 41/4/40 
s 1
f 12/28/12 11/1/11 13/10/103 
f 13/29/13 3/30/3 2/28/2 
s off
f 130/39/129 129/14/128 101/32/100 
f 129/14/128 128/38/127 101/32/100 
f 92/27/91 91/26/90 121/13/120 119/13/118 64/15/63 
f 64/15/63 119/13/118 55/13/54 
f 64/15/63 55/13/54 54/4/53 
f 74/19/73 73/4/72 63/4/62 66/16/65 
f 66/16/65 63/4/62 54/4/53 
f 66/16/65 54/4/53 58/14/57 
f 78/20/77 77/14/76 65/14/64 68/17/67 
f 68/17/67 65/14/64 58/14/57 
f 68/17/67 58/14/57 60/13/59 
f 70/18/69 69/13/68 67/13/66 81/15/80 
f 81/15/80 67/13/66 60/13/59 
f 81/15/80 60/13/59 97/4/96 
f 122/19/121 83/4/82 82/4/81 118/36/117 
f 118/36/117 82/4/81 97/4/96 
f 118/36/117 97/4/96 116/14/115 
f 125/20/124 124/14/123 117/14/116 120/37/119 
f 120/37/119 117/14/116 116/14/115 
f 120/37/119 116/14/115 55/13/54 
f 75/19/74 80/14/79 131/14/130 89/25/88 
f 89/25/88 131/14/130 101/32/100 
f 93/18/92 76/40/75 90/41/89 98/31/97 
f 98/33/97 90/42/89 101/32/100 
f 126/20/125 100/13/99 99/13/98 128/38/127 
f 128/38/127 99/13/98 101/32/100 
f 101/32/100 85/4/84 130/39/129 
f 130/39/129 85/4/84 84/4/83 123/19/122 
f 101/32/100 87/13/86 86/34/85 
f 86/23/85 87/13/86 72/13/71 71/18/70 
f 101/32/100 131/14/130 88/24/87 
f 88/24/87 131/14/130 80/14/79 79/20/78 
# 109 polygons - 37 triangles

