# 3ds Max Wavefront OBJ Exporter v0.97b - (c)2007 guruware
# File Created: 01.03.2021 09:39:40

mtllib Arch_Pilier_02.mtl

#
# object Arch_Pilier_02
#

v  -0.1732 0.6165 -0.0150
v  -0.1732 0.6873 -0.0106
v  -0.1732 0.7354 -0.2918
v  -0.1732 0.6845 -0.2918
v  -0.1732 0.9174 -0.2918
v  -0.1732 1.2979 -0.2918
v  0.1732 1.2974 -0.2918
v  0.1732 0.9174 -0.2918
v  -0.1732 0.9131 0.1809
v  -0.1732 1.2945 0.2404
v  -0.1732 0.9113 0.2184
v  -0.1732 0.8396 -0.2918
v  0.1732 0.8396 -0.2918
v  -0.1732 0.8358 0.1271
v  -0.1732 0.8337 0.1759
v  -0.1732 0.7782 0.0374
v  0.1732 0.7782 0.0374
v  0.1732 0.8358 0.1271
v  0.1732 0.8337 0.1759
v  -0.1732 0.7998 -0.2918
v  -0.1732 0.3112 -0.2918
v  -0.1732 0.3052 -0.0279
v  -0.1732 0.2702 0.0548
v  -0.1732 0.2104 0.0529
v  0.1732 0.2104 0.0529
v  0.1732 0.2702 0.0548
v  -0.1732 0.2161 -0.2918
v  -0.1732 0.2109 -0.0308
v  -0.1732 0.0763 -0.0326
v  -0.1732 0.0584 -0.0330
v  0.1732 0.0584 -0.0330
v  0.1732 0.0763 -0.0326
v  -0.1732 0.1913 -0.2918
v  -0.1732 0.1919 -0.0314
v  -0.1732 0.0985 -0.2918
v  -0.1732 0.0276 -0.2918
v  -0.1732 0.0238 -0.0690
v  -0.1732 0.1945 0.0267
v  -0.1732 0.0321 -0.0424
v  -0.1732 0.0936 -0.0150
v  -0.1732 0.0917 -0.0246
v  0.1732 0.0917 -0.0246
v  0.1732 0.0936 -0.0150
v  -0.1732 0.0938 -0.0323
v  -0.1732 0.0934 0.0027
v  -0.1732 0.1536 0.0033
v  -0.1732 0.1555 -0.0318
v  -0.1732 0.1542 -0.2918
v  -0.1732 0.1745 -0.2918
v  -0.1732 0.1755 -0.0316
v  -0.1732 0.1755 0.0117
v  0.1732 0.0934 0.0027
v  0.1732 0.1536 0.0033
v  0.1732 0.1913 -0.2918
v  0.1732 0.1745 -0.2918
v  0.1732 0.6165 -0.0150
v  0.1732 0.6873 -0.0106
v  0.1732 0.6845 -0.2918
v  0.1732 0.3112 -0.2918
v  -0.1732 0.3049 0.0214
v  0.1732 0.3049 0.0214
v  0.1732 0.3052 -0.0279
v  0.1732 0.1542 -0.2918
v  0.1732 0.0985 -0.2918
v  -0.1732 0.0859 -0.0305
v  0.1732 0.1755 0.0117
v  0.1732 0.0238 -0.0690
v  0.1732 0.0276 -0.2918
v  0.1732 0.7354 -0.2918
v  0.1732 0.9131 0.1809
v  0.1732 1.2945 0.2404
v  0.1732 0.9113 0.2184
v  0.1732 0.7998 -0.2918
v  0.1732 0.2109 -0.0308
v  0.1732 0.2161 -0.2918
v  0.1732 0.1919 -0.0314
v  0.1732 0.2961 0.0470
v  0.1732 0.1945 0.0267
v  0.1732 0.0321 -0.0424
v  0.1732 0.0938 -0.0323
v  0.1732 0.1555 -0.0318
v  0.1732 0.0859 -0.0305
v  0.1732 0.1755 -0.0316
v  -0.1732 0.2961 0.0470
v  -0.1732 1.3460 0.2709
v  -0.1732 1.3595 -0.2915
v  -0.1732 1.4189 0.2576
v  -0.1732 1.4149 0.2767
v  0.1732 1.4149 0.2767
v  0.1732 1.4189 0.2576
v  -0.1732 1.3998 0.2881
v  0.1732 1.3998 0.2881
v  -0.1732 1.3802 0.2918
v  -0.1732 1.4216 -0.2912
v  -0.1480 1.4190 0.2323
v  -0.1480 1.4214 -0.2659
v  -0.1480 1.4516 0.2325
v  -0.1480 1.4540 -0.2658
v  0.1480 1.4516 0.2325
v  0.1480 1.4540 -0.2658
v  0.1732 1.3595 -0.2915
v  0.1732 1.3460 0.2709
v  0.1732 1.3802 0.2918
v  0.1732 1.4216 -0.2912
v  0.1480 1.4214 -0.2659
v  0.1480 1.4190 0.2323
# 106 vertices

vn -0.7095 -0.0364 0.7038
vn -0.7577 -0.1766 0.6283
vn -0.7071 0.0000 -0.7071
vn -0.7065 0.0019 -0.7077
vn 0.7065 0.0019 -0.7077
vn 0.7071 0.0000 -0.7071
vn -0.9026 -0.3207 0.2870
vn -0.7644 -0.1880 0.6167
vn -0.5779 -0.6066 0.5460
vn -0.7071 -0.0000 -0.7071
vn 0.7071 -0.0000 -0.7071
vn -1.0000 0.0000 -0.0000
vn -0.5783 -0.6073 0.5447
vn -0.7690 -0.4323 0.4710
vn 0.7690 -0.4323 0.4710
vn 1.0000 0.0000 -0.0000
vn 0.5783 -0.6073 0.5447
vn -0.9086 0.2882 0.3023
vn -0.6725 0.0968 0.7337
vn -0.6136 -0.3990 0.6813
vn 0.6136 -0.3990 0.6813
vn 0.6725 0.0968 0.7337
vn -0.7299 -0.0812 0.6787
vn -0.6728 -0.1334 0.7277
vn 0.6728 -0.1334 0.7277
vn 0.7299 -0.0812 0.6787
vn -1.0000 -0.0000 0.0001
vn -0.5783 -0.5719 -0.5819
vn -0.6728 -0.7322 0.1058
vn 0.0000 0.9997 0.0262
vn -0.7496 -0.4966 0.4376
vn -0.6192 -0.5657 0.5446
vn -0.7444 -0.6645 0.0648
vn -0.7777 -0.5569 0.2917
vn 0.7777 -0.5569 0.2917
vn 0.7444 -0.6646 0.0648
vn -1.0000 0.0001 0.0001
vn -0.5773 -0.5820 0.5728
vn -0.7491 -0.1235 0.6508
vn -1.0000 -0.0000 0.0002
vn -0.7424 -0.3309 0.5825
vn 0.5773 -0.5820 0.5728
vn 0.7491 -0.1235 0.6508
vn 0.7095 -0.0364 0.7038
vn 0.7576 -0.1766 0.6283
vn -0.6726 0.7296 0.1241
vn 0.6726 0.7296 0.1241
vn 0.9086 0.2882 0.3023
vn -0.7776 -0.3057 0.5494
vn 0.7424 -0.3309 0.5825
vn 0.6728 -0.7322 0.1058
vn 0.5783 -0.5719 -0.5819
vn 0.9026 -0.3207 0.2870
vn 0.7643 -0.1880 0.6168
vn 0.5779 -0.6066 0.5460
vn 1.0000 -0.0000 0.0001
vn 0.6174 0.5457 0.5665
vn 0.7496 -0.4966 0.4376
vn 0.6192 -0.5657 0.5446
vn 1.0000 0.0001 0.0001
vn 1.0000 -0.0000 0.0002
vn 0.7776 -0.3057 0.5494
vn -0.6174 0.5457 0.5665
vn -0.7088 -0.3638 0.6043
vn -0.7072 0.0039 -0.7071
vn -0.6856 0.7240 0.0756
vn -0.6358 0.6529 0.4116
vn 0.6358 0.6529 0.4116
vn 0.6856 0.7240 0.0756
vn -0.6591 0.3054 0.6872
vn 0.6591 0.3054 0.6872
vn -0.6342 -0.1390 0.7605
vn -0.5774 0.5805 -0.5742
vn -0.3019 0.9028 0.3062
vn -0.3011 0.9062 -0.2969
vn -0.5773 0.5744 0.5803
vn -0.5774 0.5803 -0.5743
vn 0.5774 0.5744 0.5803
vn 0.5774 0.5803 -0.5743
vn 0.7071 0.0039 -0.7071
vn 0.7088 -0.3638 0.6043
vn 0.6343 -0.1390 0.7605
vn 0.5774 0.5805 -0.5742
vn 0.3011 0.9062 -0.2969
vn 0.3019 0.9028 0.3062
# 85 vertex normals

vt 1.0000 0.1062 0.0000
vt 1.0000 0.1250 0.0000
vt 0.0000 0.1250 0.0000
vt 0.0000 0.1063 0.0000
vt 1.0000 0.5000 0.0000
vt 1.0000 1.0000 0.0000
vt 0.0000 1.0000 0.0000
vt 0.0000 0.5000 0.0000
vt 1.0000 0.2500 0.0000
vt 0.0000 0.2500 0.0000
vt 0.0000 0.1437 0.0000
vt 1.0000 0.1437 0.0000
vt 0.0000 0.1438 0.0000
vt 0.0000 0.0531 0.0000
vt 1.0000 0.0531 0.0000
vt 0.0000 0.0434 0.0000
vt 0.0000 0.0266 0.0000
vt 1.0000 0.0266 0.0000
vt 0.0000 0.0100 0.0000
vt 0.0000 0.0066 0.0000
vt 0.0000 0.0199 0.0000
vt 1.0000 0.0209 0.0000
vt 0.0000 0.0133 0.0000
vt 0.0000 0.0000 0.0000
vt 0.8634 0.0000 0.0000
vt 0.0000 0.0209 0.0000
vt 0.9659 0.0017 0.0000
vt 1.0000 0.0066 0.0000
vt 0.0000 0.0129 0.0000
vt -0.0002 0.0134 0.0000
vt 0.0000 0.0155 0.0000
vt 0.0000 0.0171 0.0000
vt 1.0000 0.0171 0.0000
vt 0.9997 0.0133 0.0000
vt 0.0000 0.0177 0.0000
vt 1.0000 0.0190 0.0000
vt 0.0000 0.0190 0.0000
vt 1.0000 0.0177 0.0000
vt 1.0000 0.0199 0.0000
vt 0.0000 0.1062 0.0000
vt 1.0000 0.1063 0.0000
vt 1.0000 0.0155 0.0000
vt 1.0000 0.0133 0.0000
vt 0.0000 0.0118 0.0000
vt 1.0000 0.1366 0.0000
vt 1.0000 0.1438 0.0000
vt 0.0000 0.0507 0.0000
vt 1.0000 0.0000 0.0000
vt -0.0001 -0.0388 0.0000
vt -0.0001 -0.0842 0.0000
vt 1.1154 1.0000 0.0000
vt 1.0429 1.0000 0.0000
vt 1.0832 1.0000 0.0000
vt 1.1073 1.0000 0.0000
# 54 texture coords

o Arch_Pilier_02
g Arch_Pilier_02
usemtl wire_088088225
s 1
f 1/1/1 2/2/2 3/3/3 4/4/3 
s 4
f 5/5/3 6/6/4 7/6/5 8/5/6 
s 1
f 9/5/7 10/6/8 6/7/4 5/8/3 
f 9/8/7 11/8/9 10/7/8 
s 4
f 12/9/10 5/5/3 8/5/6 13/9/11 
s 1
f 14/9/12 9/5/7 5/8/3 12/10/10 
f 9/8/7 14/10/12 15/10/13 
s 2
f 14/10/12 16/11/14 17/11/15 18/10/16 19/10/17 15/10/13 
s 1
f 16/12/14 14/9/12 12/10/10 20/13/10 
f 2/2/2 16/12/14 20/13/10 3/3/3 
f 4/4/3 21/14/3 22/15/18 1/1/1 
s 2
f 23/16/19 24/17/20 25/17/21 26/16/22 
s 1
f 21/14/3 27/17/3 28/18/12 22/15/18 
s 2
f 29/19/23 30/20/24 31/20/25 32/19/26 
s 1
f 27/17/3 33/21/3 34/22/27 28/18/12 
f 35/23/3 36/24/28 37/25/29 35/23/30 
f 28/17/12 24/17/20 23/16/19 
f 28/17/12 34/26/27 38/21/31 24/17/20 
f 39/27/32 30/28/24 35/23/3 35/23/30 
f 37/25/29 39/27/32 35/23/30 
s 2
f 40/23/33 41/29/34 42/29/35 43/23/36 
s 1
f 44/30/37 40/23/33 45/23/38 46/31/39 47/32/40 
f 47/33/40 48/31/3 35/23/3 44/34/37 
f 49/35/3 48/31/3 47/33/40 50/36/27 
f 50/37/27 47/32/40 46/31/39 51/35/41 
s 4
f 46/31/39 45/23/38 52/23/42 53/31/43 
s 1
f 50/36/27 34/22/27 33/21/3 49/35/3 
s 4
f 49/38/3 33/39/3 54/39/6 55/38/6 
s 1
f 51/35/41 38/21/31 34/26/27 50/37/27 
f 29/19/23 35/23/3 30/28/24 
s 4
f 2/3/2 1/40/1 56/40/44 57/3/45 
f 16/11/14 2/3/2 57/3/45 17/11/15 
f 21/15/3 4/41/3 58/41/6 59/15/6 
s 8
f 22/14/18 60/14/46 61/14/47 62/14/48 
s 4
f 48/42/3 49/38/3 55/38/6 63/42/6 
f 35/43/3 48/42/3 63/42/6 64/43/6 
s 1
f 65/44/49 41/29/34 44/30/37 
f 41/29/34 40/23/33 44/30/37 
f 29/19/23 65/44/49 44/30/37 35/23/3 
s 4
f 51/35/41 46/31/39 53/31/43 66/35/50 
s 8
f 67/45/51 37/45/29 36/6/28 68/6/52 
s 4
f 58/41/6 4/41/3 3/2/3 69/2/6 
s 1
f 56/1/44 58/4/6 69/3/6 57/2/45 
f 70/5/53 8/8/6 7/7/5 71/6/54 
f 71/7/54 72/8/55 70/8/53 
s 2
f 70/8/53 72/8/55 11/8/9 9/8/7 
s 1
f 18/9/16 13/10/11 8/8/6 70/5/53 
f 70/8/53 19/10/17 18/10/16 
s 4
f 56/40/44 1/40/1 22/14/18 62/14/48 
f 73/46/11 20/46/10 12/9/10 13/9/11 
f 69/2/6 3/2/3 20/46/10 73/46/11 
s 1
f 17/12/15 73/13/11 13/10/11 18/9/16 
f 57/2/45 69/3/6 73/13/11 17/12/15 
f 58/4/6 56/1/44 62/15/48 59/14/6 
f 59/14/6 62/15/48 74/18/16 75/17/6 
f 75/17/6 74/18/16 76/22/56 54/21/6 
f 64/23/6 64/23/30 67/25/51 68/24/52 
f 77/47/57 26/16/22 74/17/16 
f 74/17/16 25/17/21 78/21/58 76/26/56 
s 2
f 43/23/36 52/23/42 45/23/38 40/23/33 
s 1
f 79/27/59 64/23/30 64/23/6 31/28/25 
f 67/25/51 64/23/30 79/27/59 
f 80/30/60 81/32/61 53/31/43 52/23/42 43/23/36 
f 81/33/61 80/34/60 64/23/6 63/31/6 
s 4
f 42/29/35 41/29/34 65/44/49 82/44/62 
s 2
f 82/44/62 65/44/49 29/19/23 32/19/26 
s 1
f 55/35/6 83/36/56 81/33/61 63/31/6 
f 83/37/56 66/35/50 53/31/43 81/32/61 
f 83/36/56 55/35/6 54/21/6 76/22/56 
f 66/35/50 83/37/56 76/26/56 78/21/58 
f 32/19/26 31/28/25 64/23/6 
s 4
f 54/39/6 33/39/3 27/18/3 21/15/3 59/15/6 75/18/6 
f 10/7/8 11/8/9 72/8/55 71/7/54 
f 9/8/7 15/10/13 19/10/17 70/8/53 
f 36/48/28 35/43/3 64/43/6 68/48/52 
s 8
f 39/49/32 37/50/29 67/50/51 79/49/59 
s 2
f 30/20/24 39/49/32 79/49/59 31/20/25 
s 1
f 82/44/62 80/30/60 42/29/35 
f 42/29/35 80/30/60 43/23/36 
f 32/19/26 64/23/6 80/30/60 82/44/62 
s 4
f 24/17/20 38/21/31 78/21/58 25/17/21 
f 38/21/31 51/35/41 66/35/50 78/21/58 
s 2
f 26/16/22 77/47/57 84/47/63 23/16/19 
s 8
f 77/47/57 61/14/47 60/14/46 84/47/63 
s 1
f 23/16/19 84/47/63 28/17/12 
f 60/14/46 22/14/18 28/17/12 
f 28/17/12 84/47/63 60/14/46 
f 26/16/22 25/17/21 74/17/16 
f 74/17/16 62/14/48 61/14/47 
f 61/14/47 77/47/57 74/17/16 
s 4
f 6/7/4 10/51/8 85/51/64 86/7/65 
s 1
f 87/52/66 88/53/67 89/53/68 90/52/69 
s 2
f 88/53/67 91/54/70 92/54/71 89/53/68 
s 4
f 85/51/64 93/51/72 86/7/65 
s off
f 94/7/73 87/52/66 95/52/74 96/7/75 
f 96/7/75 95/52/74 97/52/76 98/7/77 
s 4
f 93/51/72 91/54/70 86/7/65 
f 91/54/70 88/53/67 86/7/65 
f 88/53/67 87/52/66 94/7/73 86/7/65 
s 1
f 99/52/78 100/7/79 98/7/77 97/52/76 
s 4
f 7/7/5 101/7/80 102/51/81 71/51/54 
s 1
f 71/51/54 102/51/81 85/51/64 10/51/8 
f 92/54/71 91/54/70 93/51/72 103/51/82 
s 2
f 101/7/80 86/7/65 94/7/73 104/7/83 
s 4
f 102/51/81 101/7/80 103/51/82 
s off
f 104/7/83 105/7/84 106/52/85 90/52/69 
f 90/52/69 106/52/85 95/52/74 87/52/66 
f 105/7/84 100/7/79 99/52/78 106/52/85 
f 106/52/85 99/52/78 97/52/76 95/52/74 
s 2
f 6/7/4 86/7/65 101/7/80 7/7/5 
s 1
f 93/51/72 85/51/64 102/51/81 103/51/82 
s off
f 94/7/73 96/7/75 105/7/84 104/7/83 
f 96/7/75 98/7/77 100/7/79 105/7/84 
s 4
f 103/51/82 101/7/80 92/54/71 
f 92/54/71 101/7/80 89/53/68 
f 89/53/68 101/7/80 104/7/83 90/52/69 
# 90 polygons - 26 triangles

