# 3ds Max Wavefront OBJ Exporter v0.97b - (c)2007 guruware
# File Created: 27.02.2021 11:00:38

mtllib Arch_Pilier_02.mtl

#
# object Arch_Pilier_02
#

v  -13.3675 61.6453 8.0801
v  -13.3675 68.7296 8.5208
v  -13.3675 73.5377 -19.6008
v  -13.3675 68.4510 -19.6008
v  -13.3675 91.7434 -19.6008
v  -13.3675 129.7893 -19.6008
v  21.2765 129.7373 -19.6008
v  21.2765 91.7434 -19.6008
v  -13.3675 91.3097 27.6741
v  -13.3675 129.4484 33.6200
v  -13.3675 91.1316 31.4229
v  -13.3675 83.9602 -19.6008
v  21.2765 83.9602 -19.6008
v  -13.3675 83.5845 22.2876
v  -13.3675 83.3651 27.1684
v  -13.3675 77.8166 13.3193
v  21.2765 77.8166 13.3193
v  21.2765 83.5845 22.2876
v  21.2765 83.3651 27.1684
v  -13.3675 79.9796 -19.6008
v  -13.3675 31.1169 -19.6008
v  -13.3675 30.5170 6.7935
v  -13.3675 27.0177 15.0622
v  -13.3675 21.0370 14.8773
v  21.2765 21.0370 14.8773
v  21.2765 27.0177 15.0622
v  -13.3675 21.6137 -19.6008
v  -13.3675 21.0909 6.5021
v  -13.3675 7.6346 6.3206
v  -13.3675 5.8399 6.2835
v  21.2765 5.8399 6.2835
v  21.2765 7.6346 6.3206
v  -13.3675 19.1302 -19.6008
v  -13.3675 19.1913 6.4400
v  -13.3675 9.8493 -19.6008
v  -13.3675 2.7601 -19.6008
v  -13.3675 2.3752 2.6849
v  -13.3668 19.4548 12.2507
v  -13.3675 3.2109 5.3474
v  -13.3669 9.3559 8.0871
v  -13.3673 9.1687 7.1216
v  21.2762 9.1687 7.1216
v  21.2758 9.3559 8.0871
v  -13.3674 9.3767 6.3494
v  -13.3660 9.3433 9.8557
v  -13.3663 15.3557 9.9113
v  -13.3675 15.5466 6.3986
v  -13.3675 15.4230 -19.6008
v  -13.3675 17.4453 -19.6008
v  -13.3675 17.5459 6.4193
v  -13.3665 17.5544 10.7527
v  21.2750 9.3433 9.8557
v  21.2752 15.3557 9.9113
v  21.2765 19.1302 -19.6008
v  21.2765 17.4453 -19.6008
v  21.2765 61.6453 8.0801
v  21.2765 68.7296 8.5208
v  21.2765 68.4510 -19.6008
v  21.2765 31.1169 -19.6008
v  -13.3675 30.4853 11.7218
v  21.2765 30.4853 11.7218
v  21.2765 30.5170 6.7935
v  21.2765 15.4230 -19.6008
v  21.2765 9.8493 -19.6008
v  -13.3675 8.5949 6.5328
v  21.2755 17.5544 10.7527
v  21.2765 2.3752 2.6849
v  21.2765 2.7601 -19.6008
v  21.2765 73.5377 -19.6008
v  21.2765 91.3097 27.6741
v  21.2765 129.4484 33.6200
v  21.2765 91.1316 31.4229
v  21.2765 79.9796 -19.6008
v  21.2765 21.0909 6.5021
v  21.2765 21.6137 -19.6008
v  21.2765 19.1913 6.4400
v  21.2765 29.6073 14.2804
v  21.2757 19.4548 12.2507
v  21.2765 3.2109 5.3474
v  21.2763 9.3767 6.3494
v  21.2765 15.5466 6.3986
v  21.2764 8.5949 6.5328
v  21.2765 17.5459 6.4193
v  -13.3675 29.6073 14.2804
v  -13.3675 134.6025 36.6705
v  -13.3675 135.9466 -19.5670
v  -13.3675 141.8858 35.3377
v  -13.3675 141.4923 37.2506
v  21.2765 141.4923 37.2506
v  21.2765 141.8858 35.3377
v  -13.3675 139.9848 38.3934
v  21.2765 139.9848 38.3934
v  -13.3675 138.0248 38.7660
v  -13.3675 142.1558 -19.5332
v  -10.8458 141.8995 32.8160
v  -10.8458 142.1421 -17.0115
v  -10.8458 145.1582 32.8338
v  -10.8458 145.4008 -16.9938
v  18.7547 145.1582 32.8338
v  18.7547 145.4008 -16.9938
v  21.2765 135.9466 -19.5670
v  21.2765 134.6025 36.6705
v  21.2765 138.0248 38.7660
v  21.2765 142.1558 -19.5332
v  18.7547 142.1421 -17.0115
v  18.7547 141.8995 32.8160
# 106 vertices

vn -0.7095 -0.0364 0.7038
vn -0.7577 -0.1766 0.6283
vn -0.7071 0.0000 -0.7071
vn -0.7065 0.0019 -0.7077
vn 0.7065 0.0019 -0.7077
vn 0.7071 0.0000 -0.7071
vn -0.9026 -0.3207 0.2870
vn -0.7644 -0.1880 0.6167
vn -0.5779 -0.6066 0.5460
vn -0.7071 -0.0000 -0.7071
vn 0.7071 -0.0000 -0.7071
vn -1.0000 0.0000 -0.0000
vn -0.5784 -0.6072 0.5448
vn -0.7690 -0.4323 0.4710
vn 0.7689 -0.4323 0.4710
vn 1.0000 0.0000 -0.0000
vn 0.5783 -0.6074 0.5447
vn -0.9086 0.2882 0.3023
vn -0.6725 0.0968 0.7337
vn -0.6136 -0.3990 0.6813
vn 0.6136 -0.3991 0.6813
vn 0.6725 0.0968 0.7337
vn -0.7299 -0.0812 0.6787
vn -0.6728 -0.1334 0.7277
vn 0.6728 -0.1334 0.7277
vn 0.7299 -0.0812 0.6787
vn -1.0000 -0.0000 0.0001
vn -0.5783 -0.5719 -0.5819
vn -0.6728 -0.7322 0.1058
vn 0.8860 0.4634 0.0121
vn -0.7496 -0.4966 0.4376
vn -0.6192 -0.5657 0.5446
vn -0.7444 -0.6645 0.0648
vn -0.7777 -0.5569 0.2917
vn 0.7777 -0.5569 0.2917
vn 0.7444 -0.6645 0.0648
vn -1.0000 0.0001 0.0001
vn -0.5773 -0.5820 0.5728
vn -0.7491 -0.1235 0.6508
vn -1.0000 -0.0000 0.0002
vn -0.7425 -0.3309 0.5824
vn 0.5773 -0.5820 0.5728
vn 0.7491 -0.1235 0.6508
vn 0.7095 -0.0364 0.7038
vn 0.7577 -0.1766 0.6283
vn -0.6726 0.7296 0.1241
vn 0.6726 0.7296 0.1241
vn 0.9086 0.2882 0.3023
vn -0.7776 -0.3057 0.5494
vn 0.7425 -0.3309 0.5824
vn 0.6728 -0.7322 0.1058
vn 0.5783 -0.5719 -0.5819
vn 0.9026 -0.3207 0.2870
vn 0.7643 -0.1880 0.6168
vn 0.5779 -0.6066 0.5460
vn 1.0000 -0.0000 0.0001
vn -0.8860 0.4634 0.0121
vn 0.6174 0.5457 0.5665
vn 0.7496 -0.4966 0.4376
vn 0.6192 -0.5657 0.5446
vn 1.0000 0.0001 0.0001
vn 1.0000 -0.0000 0.0002
vn 0.7776 -0.3057 0.5494
vn -0.6174 0.5457 0.5665
vn -0.7088 -0.3638 0.6043
vn -0.7072 0.0039 -0.7071
vn -0.6856 0.7241 0.0756
vn -0.6358 0.6529 0.4116
vn 0.6358 0.6529 0.4116
vn 0.6856 0.7241 0.0756
vn -0.6592 0.3054 0.6871
vn 0.6592 0.3054 0.6872
vn -0.6342 -0.1390 0.7605
vn -0.5774 0.5805 -0.5742
vn -0.3019 0.9029 0.3061
vn -0.3011 0.9062 -0.2969
vn -0.5774 0.5744 0.5803
vn -0.5774 0.5803 -0.5743
vn 0.5774 0.5744 0.5803
vn 0.5774 0.5803 -0.5743
vn 0.7071 0.0039 -0.7071
vn 0.7088 -0.3638 0.6043
vn 0.6343 -0.1390 0.7605
vn 0.5774 0.5805 -0.5742
vn 0.3011 0.9062 -0.2969
vn 0.3019 0.9028 0.3062
# 86 vertex normals

vt 1.0000 0.1062 0.0000
vt 1.0000 0.1250 0.0000
vt 0.0000 0.1250 0.0000
vt 0.0000 0.1063 0.0000
vt 1.0000 0.5000 0.0000
vt 1.0000 1.0000 0.0000
vt 0.0000 1.0000 0.0000
vt 0.0000 0.5000 0.0000
vt 1.0000 0.2500 0.0000
vt 0.0000 0.2500 0.0000
vt 0.0000 0.1437 0.0000
vt 1.0000 0.1437 0.0000
vt 0.0000 0.1438 0.0000
vt 0.0000 0.0531 0.0000
vt 1.0000 0.0531 0.0000
vt 0.0000 0.0434 0.0000
vt 0.0000 0.0266 0.0000
vt 1.0000 0.0266 0.0000
vt 0.0000 0.0100 0.0000
vt 0.0000 0.0066 0.0000
vt 0.0000 0.0199 0.0000
vt 1.0000 0.0209 0.0000
vt 0.0000 0.0133 0.0000
vt 0.0000 0.0000 0.0000
vt 0.8634 0.0000 0.0000
vt 0.0000 0.0209 0.0000
vt 0.9659 0.0017 0.0000
vt 1.0000 0.0066 0.0000
vt 0.0000 0.0129 0.0000
vt -0.0002 0.0134 0.0000
vt 0.0000 0.0155 0.0000
vt 0.0000 0.0171 0.0000
vt 1.0000 0.0171 0.0000
vt 0.9997 0.0133 0.0000
vt 0.0000 0.0177 0.0000
vt 1.0000 0.0190 0.0000
vt 0.0000 0.0190 0.0000
vt 1.0000 0.0177 0.0000
vt 1.0000 0.0199 0.0000
vt 0.0000 0.1062 0.0000
vt 1.0000 0.1063 0.0000
vt 1.0000 0.0155 0.0000
vt 1.0000 0.0133 0.0000
vt 0.0000 0.0118 0.0000
vt 1.0000 0.1366 0.0000
vt 1.0000 0.1438 0.0000
vt 0.0000 0.0507 0.0000
vt 1.0000 0.0000 0.0000
vt -0.0001 -0.0388 0.0000
vt -0.0001 -0.0842 0.0000
vt 1.1154 1.0000 0.0000
vt 1.0429 1.0000 0.0000
vt 1.0832 1.0000 0.0000
vt 1.1073 1.0000 0.0000
# 54 texture coords

o Arch_Pilier_02
g Arch_Pilier_02
usemtl wire_088088225
s 1
f 1/1/1 2/2/2 3/3/3 4/4/3 
s 4
f 5/5/3 6/6/4 7/6/5 8/5/6 
s 1
f 9/5/7 10/6/8 6/7/4 5/8/3 
f 9/8/7 11/8/9 10/7/8 
s 4
f 12/9/10 5/5/3 8/5/6 13/9/11 
s 1
f 14/9/12 9/5/7 5/8/3 12/10/10 
f 9/8/7 14/10/12 15/10/13 
s 2
f 14/10/12 16/11/14 17/11/15 18/10/16 19/10/17 15/10/13 
s 1
f 16/12/14 14/9/12 12/10/10 20/13/10 
f 2/2/2 16/12/14 20/13/10 3/3/3 
f 4/4/3 21/14/3 22/15/18 1/1/1 
s 2
f 23/16/19 24/17/20 25/17/21 26/16/22 
s 1
f 21/14/3 27/17/3 28/18/12 22/15/18 
s 2
f 29/19/23 30/20/24 31/20/25 32/19/26 
s 1
f 27/17/3 33/21/3 34/22/27 28/18/12 
f 35/23/3 36/24/28 37/25/29 35/23/30 
f 28/17/12 24/17/20 23/16/19 
f 28/17/12 34/26/27 38/21/31 24/17/20 
f 39/27/32 30/28/24 35/23/3 35/23/30 
f 37/25/29 39/27/32 35/23/30 
s 2
f 40/23/33 41/29/34 42/29/35 43/23/36 
s 1
f 44/30/37 40/23/33 45/23/38 46/31/39 47/32/40 
f 47/33/40 48/31/3 35/23/3 44/34/37 
f 49/35/3 48/31/3 47/33/40 50/36/27 
f 50/37/27 47/32/40 46/31/39 51/35/41 
s 4
f 46/31/39 45/23/38 52/23/42 53/31/43 
s 1
f 50/36/27 34/22/27 33/21/3 49/35/3 
s 4
f 49/38/3 33/39/3 54/39/6 55/38/6 
s 1
f 51/35/41 38/21/31 34/26/27 50/37/27 
f 29/19/23 35/23/3 30/28/24 
s 4
f 2/3/2 1/40/1 56/40/44 57/3/45 
f 16/11/14 2/3/2 57/3/45 17/11/15 
f 21/15/3 4/41/3 58/41/6 59/15/6 
s 8
f 22/14/18 60/14/46 61/14/47 62/14/48 
s 4
f 48/42/3 49/38/3 55/38/6 63/42/6 
f 35/43/3 48/42/3 63/42/6 64/43/6 
s 1
f 65/44/49 41/29/34 44/30/37 
f 41/29/34 40/23/33 44/30/37 
f 29/19/23 65/44/49 44/30/37 35/23/3 
s 4
f 51/35/41 46/31/39 53/31/43 66/35/50 
s 8
f 67/45/51 37/45/29 36/6/28 68/6/52 
s 4
f 58/41/6 4/41/3 3/2/3 69/2/6 
s 1
f 56/1/44 58/4/6 69/3/6 57/2/45 
f 70/5/53 8/8/6 7/7/5 71/6/54 
f 71/7/54 72/8/55 70/8/53 
s 2
f 70/8/53 72/8/55 11/8/9 9/8/7 
s 1
f 18/9/16 13/10/11 8/8/6 70/5/53 
f 70/8/53 19/10/17 18/10/16 
s 4
f 56/40/44 1/40/1 22/14/18 62/14/48 
f 73/46/11 20/46/10 12/9/10 13/9/11 
f 69/2/6 3/2/3 20/46/10 73/46/11 
s 1
f 17/12/15 73/13/11 13/10/11 18/9/16 
f 57/2/45 69/3/6 73/13/11 17/12/15 
f 58/4/6 56/1/44 62/15/48 59/14/6 
f 59/14/6 62/15/48 74/18/16 75/17/6 
f 75/17/6 74/18/16 76/22/56 54/21/6 
f 64/23/6 64/23/57 67/25/51 68/24/52 
f 77/47/58 26/16/22 74/17/16 
f 74/17/16 25/17/21 78/21/59 76/26/56 
s 2
f 43/23/36 52/23/42 45/23/38 40/23/33 
s 1
f 79/27/60 64/23/57 64/23/6 31/28/25 
f 67/25/51 64/23/57 79/27/60 
f 80/30/61 81/32/62 53/31/43 52/23/42 43/23/36 
f 81/33/62 80/34/61 64/23/6 63/31/6 
s 4
f 42/29/35 41/29/34 65/44/49 82/44/63 
s 2
f 82/44/63 65/44/49 29/19/23 32/19/26 
s 1
f 55/35/6 83/36/56 81/33/62 63/31/6 
f 83/37/56 66/35/50 53/31/43 81/32/62 
f 83/36/56 55/35/6 54/21/6 76/22/56 
f 66/35/50 83/37/56 76/26/56 78/21/59 
f 32/19/26 31/28/25 64/23/6 
s 4
f 54/39/6 33/39/3 27/18/3 21/15/3 59/15/6 75/18/6 
f 10/7/8 11/8/9 72/8/55 71/7/54 
f 9/8/7 15/10/13 19/10/17 70/8/53 
f 36/48/28 35/43/3 64/43/6 68/48/52 
s 8
f 39/49/32 37/50/29 67/50/51 79/49/60 
s 2
f 30/20/24 39/49/32 79/49/60 31/20/25 
s 1
f 82/44/63 80/30/61 42/29/35 
f 42/29/35 80/30/61 43/23/36 
f 32/19/26 64/23/6 80/30/61 82/44/63 
s 4
f 24/17/20 38/21/31 78/21/59 25/17/21 
f 38/21/31 51/35/41 66/35/50 78/21/59 
s 2
f 26/16/22 77/47/58 84/47/64 23/16/19 
s 8
f 77/47/58 61/14/47 60/14/46 84/47/64 
s 1
f 23/16/19 84/47/64 28/17/12 
f 60/14/46 22/14/18 28/17/12 
f 28/17/12 84/47/64 60/14/46 
f 26/16/22 25/17/21 74/17/16 
f 74/17/16 62/14/48 61/14/47 
f 61/14/47 77/47/58 74/17/16 
s 4
f 6/7/4 10/51/8 85/51/65 86/7/66 
s 1
f 87/52/67 88/53/68 89/53/69 90/52/70 
s 2
f 88/53/68 91/54/71 92/54/72 89/53/69 
s 4
f 85/51/65 93/51/73 86/7/66 
s off
f 94/7/74 87/52/67 95/52/75 96/7/76 
f 96/7/76 95/52/75 97/52/77 98/7/78 
s 4
f 93/51/73 91/54/71 86/7/66 
f 91/54/71 88/53/68 86/7/66 
f 88/53/68 87/52/67 94/7/74 86/7/66 
s 1
f 99/52/79 100/7/80 98/7/78 97/52/77 
s 4
f 7/7/5 101/7/81 102/51/82 71/51/54 
s 1
f 71/51/54 102/51/82 85/51/65 10/51/8 
f 92/54/72 91/54/71 93/51/73 103/51/83 
s 2
f 101/7/81 86/7/66 94/7/74 104/7/84 
s 4
f 102/51/82 101/7/81 103/51/83 
s off
f 104/7/84 105/7/85 106/52/86 90/52/70 
f 90/52/70 106/52/86 95/52/75 87/52/67 
f 105/7/85 100/7/80 99/52/79 106/52/86 
f 106/52/86 99/52/79 97/52/77 95/52/75 
s 2
f 6/7/4 86/7/66 101/7/81 7/7/5 
s 1
f 93/51/73 85/51/65 102/51/82 103/51/83 
s off
f 94/7/74 96/7/76 105/7/85 104/7/84 
f 96/7/76 98/7/78 100/7/80 105/7/85 
s 4
f 103/51/83 101/7/81 92/54/72 
f 92/54/72 101/7/81 89/53/69 
f 89/53/69 101/7/81 104/7/84 90/52/70 
# 90 polygons - 26 triangles

