# 3ds Max Wavefront OBJ Exporter v0.97b - (c)2007 guruware
# File Created: 27.02.2021 11:01:11

mtllib Arch_Pilier_03.mtl

#
# object Arch_Pilier_03
#

v  -21.2765 63.8402 -3.2102
v  -21.2765 70.6137 1.2071
v  -21.2765 75.4358 -49.4243
v  -21.2765 117.0931 22.0188
v  -21.2765 139.4856 22.8497
v  -21.2765 139.4856 -49.4243
v  -21.2765 117.4161 -49.4243
v  -21.2765 100.0267 5.8567
v  -21.2765 86.0386 -49.4243
v  -21.2765 93.6088 8.5979
v  -21.2765 42.0890 -49.4243
v  -21.2765 38.3134 8.6623
v  -21.2765 41.5215 4.6975
v  -21.2765 13.9225 -30.2354
v  -21.2765 9.5907 -35.0731
v  21.2765 9.5907 -35.0731
v  21.2765 13.9225 -30.2354
v  -21.2765 47.9159 -2.7917
v  -21.2765 113.8261 12.9201
v  -21.2765 107.6108 6.4674
v  -21.2765 117.1221 59.8731
v  -21.2765 139.5146 60.7040
v  -21.2765 73.8650 16.4920
v  -21.2765 87.6657 16.7728
v  -21.2765 73.7670 21.3074
v  -21.2765 87.5677 21.5883
v  21.2765 73.8650 16.4920
v  21.2765 73.7670 21.3074
v  -21.2765 54.9872 -4.5595
v  -21.2765 23.5923 -49.4258
v  -21.2765 33.8943 9.9000
v  -21.2765 29.4804 8.6609
v  -21.2765 25.9477 2.4772
v  -21.2765 23.0053 -13.9245
v  21.2765 63.8402 -3.2102
v  21.2765 70.6137 1.2071
v  -21.2765 12.4563 -49.4243
v  21.2765 23.5923 -49.4258
v  21.2765 12.4563 -49.4243
v  21.2765 117.1221 59.8731
v  21.2765 139.5146 60.7040
v  21.2765 100.0267 5.8567
v  21.2765 107.6108 6.4674
v  21.2765 41.5215 4.6975
v  21.2765 47.9159 -2.7917
v  21.2765 113.8261 12.9201
v  21.2765 87.5677 21.5883
v  21.2765 87.6657 16.7728
v  21.2765 54.9872 -4.5595
v  21.2765 42.0890 -49.4243
v  -21.2765 0.3837 -49.3654
v  -21.2765 0.3848 -38.1742
v  21.2765 0.3848 -38.1742
v  -21.2765 16.5688 -21.4145
v  -21.2765 16.7601 -13.4744
v  21.2765 38.3134 8.6623
v  21.2765 93.6088 8.5979
v  21.2765 117.0931 22.0188
v  21.2765 33.8943 9.9000
v  21.2765 23.0053 -13.9245
v  21.2765 25.9477 2.4772
v  21.2765 16.7601 -13.4744
v  21.2765 16.5688 -21.4145
v  21.2765 75.4358 -49.4243
v  21.2765 117.4161 -49.4243
v  21.2765 139.4856 -49.4243
v  21.2765 139.4856 22.8497
v  21.2765 86.0386 -49.4243
v  21.2765 29.4804 8.6609
v  21.2765 0.3837 -49.3654
# 70 vertices

vn -0.7580 -0.2326 0.6094
vn -0.8039 -0.4904 0.3364
vn -0.7071 -0.0000 -0.7071
vn -0.7477 -0.6541 0.1141
vn -0.7072 0.7070 -0.0003
vn -0.5774 0.5774 -0.5774
vn -0.7071 0.0000 -0.7071
vn -0.7652 0.1036 0.6354
vn -0.7722 0.3960 0.4969
vn -0.6447 0.4201 0.6387
vn -0.7101 0.5415 0.4501
vn -0.7595 -0.5674 0.3180
vn -0.7692 -0.3516 0.5335
vn 0.7692 -0.3516 0.5335
vn 0.7595 -0.5674 0.3180
vn -0.7825 0.3278 0.5293
vn -0.7574 -0.5547 0.3444
vn -0.7961 -0.2590 0.5469
vn -0.5794 -0.5867 0.5657
vn -0.5754 0.5678 0.5887
vn -0.7339 -0.6763 0.0642
vn -0.7811 0.5918 0.1991
vn -0.5775 -0.5889 0.5654
vn -0.5775 0.5655 0.5889
vn 0.7339 -0.6763 0.0642
vn 0.5775 -0.5889 0.5654
vn -0.7542 0.0308 0.6559
vn -0.6511 -0.0002 0.7590
vn -0.6309 -0.4773 0.6116
vn -0.6708 -0.6971 0.2531
vn -0.8919 -0.2775 0.3570
vn 0.7580 -0.2326 0.6094
vn 0.8039 -0.4904 0.3364
vn -0.7066 -0.0018 -0.7076
vn 0.7071 -0.0000 -0.7071
vn 0.7066 -0.0018 -0.7076
vn 0.5794 -0.5867 0.5657
vn 0.5754 0.5678 0.5887
vn 0.7652 0.1036 0.6354
vn 0.7961 -0.2590 0.5469
vn 0.7101 0.5415 0.4501
vn 0.7825 0.3278 0.5293
vn 0.7574 -0.5547 0.3444
vn 0.5775 0.5655 0.5889
vn 0.7811 0.5918 0.1991
vn 0.7542 0.0308 0.6559
vn 0.7071 0.0000 -0.7071
vn -0.5776 -0.5787 -0.5758
vn -0.5964 -0.6519 0.4683
vn 0.5964 -0.6519 0.4683
vn -0.7384 -0.6660 0.1060
vn -0.5749 -0.5501 0.6057
vn 0.6447 0.4201 0.6387
vn 0.7722 0.3960 0.4969
vn 0.7477 -0.6541 0.1141
vn 0.6511 -0.0002 0.7590
vn 0.8919 -0.2775 0.3570
vn 0.6708 -0.6971 0.2531
vn 0.5749 -0.5501 0.6057
vn 0.7384 -0.6660 0.1060
vn 0.5774 0.5774 -0.5774
vn 0.7072 0.7070 -0.0003
vn 0.6309 -0.4773 0.6116
vn 0.5776 -0.5787 -0.5758
# 64 vertex normals

vt 1.0000 0.2127 0.0000
vt 1.0000 0.2500 0.0000
vt 0.0000 0.2127 0.0000
vt 1.0000 0.5000 0.0000
vt 1.0000 1.0000 0.0000
vt 0.0000 1.0000 0.0000
vt 0.0000 0.3559 0.0000
vt 1.0000 0.3811 0.0000
vt 0.0000 0.3216 0.0000
vt 1.0000 0.3559 0.0000
vt 0.0000 0.1064 0.0000
vt 1.0000 0.1064 0.0000
vt 1.0000 0.1215 0.0000
vt 0.0000 0.0547 0.0000
vt 0.0000 0.0365 0.0000
vt 1.0000 0.1443 0.0000
vt 1.0000 0.4314 0.0000
vt 1.0000 0.4062 0.0000
vt 0.0000 0.5000 0.0000
vt 1.0000 0.2873 0.0000
vt 1.0000 0.3216 0.0000
vt 0.0000 0.2873 0.0000
vt 1.0000 0.1671 0.0000
vt 0.0000 0.0912 0.0000
vt 1.0000 0.0988 0.0000
vt 1.0000 0.0950 0.0000
vt 1.0000 0.0931 0.0000
vt 1.0000 0.0912 0.0000
vt 0.0000 0.2500 0.0000
vt 1.0000 0.0000 0.0000
vt 0.0000 0.4062 0.0000
vt 0.0000 0.3811 0.0000
vt 0.0000 0.1443 0.0000
vt 0.0000 0.1215 0.0000
vt 0.0000 0.4314 0.0000
vt 0.0000 0.1671 0.0000
vt 0.0000 -0.0143 0.0000
vt 0.0000 -0.0156 0.0000
vt 0.0000 0.0182 0.0000
vt 0.0000 -0.0182 0.0000
vt 1.2324 0.0183 0.0000
vt 1.2743 0.0401 0.0000
vt 0.0000 0.0000 0.0000
vt 0.0000 0.0730 0.0000
vt 0.0000 0.0988 0.0000
vt 0.0000 0.0931 0.0000
vt 0.0000 0.0950 0.0000
# 47 texture coords

o Arch_Pilier_03
g Arch_Pilier_03
usemtl wire_088088225
s 64
f 1/1/1 2/2/2 3/3/3 
f 4/4/4 5/5/5 6/6/6 7/7/7 
f 8/8/8 9/9/7 10/10/9 
f 11/11/7 12/12/10 13/13/11 
s 8
f 14/14/12 15/15/13 16/15/14 17/14/15 
s 64
f 13/13/11 18/16/16 11/11/7 
f 19/17/17 4/4/4 7/7/7 
f 20/18/18 19/17/17 7/7/7 
s off
f 5/6/5 4/19/4 21/19/19 22/6/20 
s 64
f 9/9/7 3/3/3 23/20/21 24/21/22 
s off
f 24/9/22 23/22/21 25/22/23 26/9/24 
f 23/22/21 27/22/25 28/22/26 25/22/23 
s 64
f 2/2/2 23/20/21 3/3/3 
f 29/23/27 1/1/1 3/3/3 11/11/7 
f 18/16/16 29/23/27 11/11/7 
f 11/11/7 30/24/3 31/25/28 12/12/10 
f 30/24/3 32/26/29 31/25/28 
f 30/24/3 33/27/30 32/26/29 
f 30/24/3 34/28/31 33/27/30 
s 8
f 2/29/2 1/3/1 35/3/32 36/29/33 
s 32
f 37/30/34 30/28/3 38/28/35 39/30/36 
s 8
f 23/22/21 2/29/2 36/29/33 27/22/25 
s 64
f 8/8/8 20/18/18 7/7/7 9/9/7 
f 9/9/7 24/21/22 10/10/9 
s 8
f 22/6/20 21/19/19 40/19/37 41/6/38 
f 20/31/18 8/32/8 42/32/39 43/31/40 
f 18/33/16 13/34/11 44/34/41 45/33/42 
f 19/35/17 20/31/18 43/31/40 46/35/43 
s off
f 24/9/22 26/9/24 47/9/44 48/9/45 
s 8
f 1/3/1 29/36/27 49/36/46 35/3/32 
f 29/36/27 18/33/16 45/33/42 49/36/46 
s 32
f 30/28/3 11/12/7 50/12/47 38/28/35 
s off
f 37/37/34 51/38/48 52/39/49 15/15/13 
s 8
f 15/15/13 52/39/49 53/39/50 16/15/14 
s 64
f 15/15/13 14/14/12 37/40/34 
f 14/41/12 54/42/51 34/28/31 37/43/34 
s off
f 54/44/51 55/24/52 34/24/31 
s 64
f 34/28/31 30/24/3 37/43/34 
s 8
f 13/34/11 12/11/10 56/11/53 44/34/41 
f 8/32/8 10/7/9 57/7/54 42/32/39 
s off
f 21/19/19 4/19/4 58/19/55 40/19/37 
s 8
f 12/11/10 31/45/28 59/45/56 56/11/53 
f 33/46/30 34/24/31 60/24/57 61/46/58 
s off
f 34/24/31 55/24/52 62/24/59 60/24/57 
s 8
f 55/24/52 54/44/51 63/44/60 62/24/59 
f 54/44/51 14/14/12 17/14/15 63/44/60 
s 64
f 35/1/32 64/3/35 36/2/33 
s 32
f 65/10/47 7/10/7 6/5/6 66/5/61 
s 64
f 58/4/55 65/7/47 66/6/61 67/5/62 
f 42/8/39 57/10/54 68/9/47 
f 50/11/47 44/13/41 56/12/53 
f 44/13/41 50/11/47 45/16/42 
f 46/17/43 65/7/47 58/4/55 
f 43/18/40 65/7/47 46/17/43 
s off
f 67/6/62 41/6/38 40/19/37 58/19/55 
s 8
f 47/9/44 26/9/24 25/22/23 28/22/26 
s 64
f 68/9/47 48/21/45 27/20/25 64/3/35 
s off
f 48/9/45 47/9/44 28/22/26 27/22/25 
s 64
f 36/2/33 64/3/35 27/20/25 
s 32
f 50/12/47 11/12/7 3/1/3 64/1/35 
s 64
f 49/23/46 50/11/47 64/3/35 35/1/32 
f 45/16/42 50/11/47 49/23/46 
f 50/11/47 56/12/53 59/25/56 38/24/35 
f 38/24/35 59/25/56 69/26/63 
f 38/24/35 69/26/63 61/27/58 
f 38/24/35 61/27/58 60/28/57 
s off
f 66/6/61 6/6/6 5/5/5 67/5/62 
s 8
f 58/19/55 4/19/4 19/35/17 46/35/43 
s 32
f 68/21/47 9/21/7 7/10/7 65/10/47 
s 64
f 42/8/39 68/9/47 65/7/47 43/18/40 
f 68/9/47 57/10/54 48/21/45 
s off
f 67/6/62 5/6/5 22/6/20 41/6/38 
s 32
f 64/1/35 3/1/3 9/21/7 68/21/47 
s off
f 39/5/36 70/5/64 51/5/48 37/5/34 
f 39/37/36 16/15/14 53/39/50 70/38/64 
s 64
f 16/15/14 39/40/36 17/14/15 
f 17/41/15 39/43/36 60/28/57 63/42/60 
s off
f 63/44/60 60/24/57 62/24/59 
s 64
f 60/28/57 39/43/36 38/24/35 
s 10
f 52/39/49 51/38/48 70/38/64 53/39/50 
s 8
f 10/7/9 24/9/22 48/9/45 57/7/54 
f 31/45/28 32/47/29 69/47/63 59/45/56 
f 32/47/29 33/46/30 61/46/58 69/47/63 
# 53 polygons - 30 triangles

