# 3ds Max Wavefront OBJ Exporter v0.97b - (c)2007 guruware
# File Created: 01.03.2021 09:44:39

mtllib Ornement_Pilier_05.mtl

#
# object Ornement_Pilier_05
#

v  -0.6981 -0.0000 0.6981
v  -0.6981 -0.0001 -0.6981
v  0.6981 0.0000 -0.6981
v  0.6981 0.0001 0.6981
v  -0.6981 0.3800 0.6980
v  0.6980 0.3802 0.6980
v  0.6980 0.3801 -0.6981
v  -0.6981 0.3800 -0.6981
v  -0.8049 0.1068 0.8049
v  0.8049 0.1069 0.8049
v  0.8048 0.2734 0.8049
v  -0.8049 0.2732 0.8049
v  0.8049 0.1069 -0.8049
v  0.8048 0.2733 -0.8049
v  -0.8049 0.1067 -0.8049
v  -0.8049 0.2731 -0.8049
# 16 vertices

vn -0.3001 -0.9054 0.3003
vn -0.3001 -0.9055 -0.3001
vn 0.3003 -0.9054 -0.3001
vn 0.3003 -0.9054 0.3003
vn -0.3003 0.9054 0.3001
vn 0.3001 0.9055 0.3001
vn 0.3001 0.9054 -0.3003
vn -0.3003 0.9054 -0.3003
vn -0.6507 -0.3914 0.6507
vn 0.6508 -0.3912 0.6507
vn 0.6507 0.3915 0.6507
vn -0.6507 0.3913 0.6507
vn 0.6507 -0.3913 -0.6507
vn 0.6507 0.3914 -0.6507
vn -0.6507 -0.3915 -0.6507
vn -0.6508 0.3912 -0.6507
# 16 vertex normals

vt 0.9336 0.0664 0.0000
vt 0.9336 0.9336 0.0000
vt 0.0664 0.9336 0.0000
vt 0.0664 0.0664 0.0000
vt 0.0000 0.2811 0.0000
vt 1.0000 0.2811 0.0000
vt 1.0000 0.7189 0.0000
vt 0.0000 0.7189 0.0000
vt 0.9336 0.0239 0.0000
vt 0.0664 0.0239 0.0000
vt 0.0664 0.9761 0.0000
vt 0.9336 0.9761 0.0000
# 12 texture coords

o Ornement_Pilier_05
g Ornement_Pilier_05
usemtl wire_213154229
s 1
f 1/1/1 2/2/2 3/3/3 4/4/4 
f 5/4/5 6/1/6 7/2/7 8/3/8 
f 9/5/9 10/6/10 11/7/11 12/8/12 
s 2
f 10/5/10 13/6/13 14/7/14 11/8/11 
s 1
f 13/5/13 15/6/15 16/7/16 14/8/14 
s 2
f 15/5/15 9/6/9 12/7/12 16/8/16 
s 4
f 1/9/1 9/6/9 15/5/15 2/10/2 
s 8
f 2/9/2 15/6/15 13/5/13 3/10/3 
s 4
f 3/9/3 13/6/13 10/5/10 4/10/4 
s 8
f 4/9/4 10/6/10 9/5/9 1/10/1 
s 4
f 5/11/5 12/8/12 11/7/11 6/12/6 
s 8
f 6/11/6 11/8/11 14/7/14 7/12/7 
s 4
f 7/11/7 14/8/14 16/7/16 8/12/8 
s 8
f 8/11/8 16/8/16 12/7/12 5/12/5 
# 14 polygons

