# 3ds Max Wavefront OBJ Exporter v0.97b - (c)2007 guruware
# File Created: 01.03.2021 09:44:22

mtllib Ornement_Pilier_04.mtl

#
# object Ornement_Pilier_04
#

v  -0.8049 -0.0000 0.8049
v  -0.8049 -0.0001 -0.8049
v  0.8049 0.0000 -0.8049
v  0.8049 0.0001 0.8049
v  -0.8050 0.3800 0.8048
v  0.8048 0.3802 0.8048
v  0.8048 0.3801 -0.8049
v  -0.8050 0.3799 -0.8049
# 8 vertices

vn -0.5773 -0.5774 0.5774
vn -0.5773 -0.5775 -0.5773
vn 0.5774 -0.5773 -0.5773
vn 0.5774 -0.5772 0.5774
vn -0.5774 0.5773 0.5773
vn 0.5773 0.5775 0.5773
vn 0.5773 0.5774 -0.5774
vn -0.5774 0.5772 -0.5774
# 8 vertex normals

vt 1.0000 0.0000 0.0000
vt 1.0000 1.0000 0.0000
vt 0.0000 1.0000 0.0000
vt 0.0000 0.0000 0.0000
# 4 texture coords

o Ornement_Pilier_04
g Ornement_Pilier_04
usemtl wire_213154229
s 2
f 1/1/1 2/2/2 3/3/3 4/4/4 
s 4
f 5/4/5 6/1/6 7/2/7 8/3/8 
s 8
f 1/4/1 4/1/4 6/2/6 5/3/5 
s 16
f 4/4/4 3/1/3 7/2/7 6/3/6 
s 32
f 3/4/3 2/1/2 8/2/8 7/3/7 
s 64
f 2/4/2 1/1/1 5/2/5 8/3/8 
# 6 polygons

