# 3ds Max Wavefront OBJ Exporter v0.97b - (c)2007 guruware
# File Created: 27.02.2021 10:28:06

mtllib Ornement_Pilier_06.mtl

#
# object Ornement_Pilier_06
#

v  -69.8067 -0.0029 69.8067
v  -69.8067 -0.0107 -69.8067
v  69.8067 0.0029 -69.8067
v  69.8067 0.0107 69.8067
v  -69.8133 38.0039 69.8028
v  69.8000 38.0174 69.8028
v  69.8000 38.0096 -69.8105
v  -69.8133 37.9960 -69.8105
v  -94.4452 15.9896 94.4422
v  94.4415 15.9970 94.4422
v  94.4385 22.0214 94.4406
v  -94.4481 22.0140 94.4406
v  94.4415 15.9927 -94.4444
v  94.4385 22.0171 -94.4461
v  -94.4452 15.9853 -94.4444
v  -94.4481 22.0097 -94.4461
v  -80.4905 10.6787 80.4876
v  -80.4905 10.6697 -80.4898
v  80.4868 10.6853 -80.4898
v  80.4868 10.6944 80.4876
v  -80.4935 27.3214 80.4859
v  80.4839 27.3370 80.4859
v  80.4839 27.3280 -80.4914
v  -80.4935 27.3123 -80.4914
# 24 vertices

vn -0.3001 -0.9054 0.3003
vn -0.3001 -0.9055 -0.3001
vn 0.3003 -0.9054 -0.3001
vn 0.3003 -0.9054 0.3003
vn -0.3003 0.9054 0.3001
vn 0.3001 0.9055 0.3001
vn 0.3001 0.9054 -0.3003
vn -0.3003 0.9054 -0.3003
vn -0.6111 -0.5027 0.6114
vn 0.6114 -0.5026 0.6113
vn 0.6112 0.5028 0.6113
vn -0.6114 0.5026 0.6111
vn 0.6114 -0.5026 -0.6111
vn 0.6111 0.5027 -0.6114
vn -0.6112 -0.5028 -0.6113
vn -0.6114 0.5026 -0.6113
vn -0.2471 -0.9369 0.2472
vn -0.2472 -0.9369 -0.2473
vn 0.2471 -0.9370 -0.2470
vn 0.2470 -0.9370 0.2470
vn -0.2471 0.9370 0.2470
vn 0.2472 0.9369 0.2473
vn 0.2471 0.9369 -0.2472
vn -0.2470 0.9370 -0.2470
# 24 vertex normals

vt 0.9336 0.0664 0.0000
vt 0.9336 0.9336 0.0000
vt 0.0664 0.9336 0.0000
vt 0.0664 0.0664 0.0000
vt 0.0000 0.2811 0.0000
vt 1.0000 0.2811 0.0000
vt 1.0000 0.7189 0.0000
vt 0.0000 0.7189 0.0000
vt 0.9336 0.0239 0.0000
vt 0.0664 0.0239 0.0000
vt 0.0664 0.9761 0.0000
vt 0.9336 0.9761 0.0000
# 12 texture coords

o Ornement_Pilier_06
g Ornement_Pilier_06
usemtl wire_213154229
s 1
f 1/1/1 2/2/2 3/3/3 4/4/4 
f 5/4/5 6/1/6 7/2/7 8/3/8 
f 9/5/9 10/6/10 11/7/11 12/8/12 
s 2
f 10/5/10 13/6/13 14/7/14 11/8/11 
s 1
f 13/5/13 15/6/15 16/7/16 14/8/14 
s 2
f 15/5/15 9/6/9 12/7/12 16/8/16 
s 4
f 1/9/1 17/6/17 18/5/18 2/10/2 
s 8
f 2/9/2 18/6/18 19/5/19 3/10/3 
s 4
f 3/9/3 19/6/19 20/5/20 4/10/4 
s 8
f 4/9/4 20/6/20 17/5/17 1/10/1 
s 4
f 5/11/5 21/8/21 22/7/22 6/12/6 
s 8
f 6/11/6 22/8/22 23/7/23 7/12/7 
s 4
f 7/11/7 23/8/23 24/7/24 8/12/8 
s 8
f 8/11/8 24/8/24 21/7/21 5/12/5 
s off
f 18/5/18 17/6/17 9/6/9 15/5/15 
f 17/5/17 20/6/20 10/6/10 9/5/9 
f 20/5/20 19/6/19 13/6/13 10/5/10 
f 19/5/19 18/6/18 15/6/15 13/5/13 
f 22/7/22 21/8/21 12/8/12 11/7/11 
f 21/7/21 24/8/24 16/8/16 12/7/12 
f 24/7/24 23/8/23 14/8/14 16/7/16 
f 23/7/23 22/8/22 11/8/11 14/7/14 
# 22 polygons

