# 3ds Max Wavefront OBJ Exporter v0.97b - (c)2007 guruware
# File Created: 27.02.2021 10:20:01

mtllib Top_Pilier_01.mtl

#
# object Top_Pilier_01
#

v  -66.6066 0.0000 -0.0000
v  -60.0105 0.0000 28.8995
v  -60.6956 22.0103 29.2282
v  -67.3664 22.0103 0.0012
v  -41.5286 0.0000 52.0752
v  -42.0042 22.0103 52.6665
v  -14.8214 -0.0000 64.9367
v  -14.9944 22.0103 65.6737
v  14.8214 -0.0000 64.9367
v  14.9843 22.0102 65.6737
v  41.5286 -0.0000 52.0752
v  41.9941 22.0102 52.6665
v  60.0105 -0.0000 28.8995
v  60.6855 22.0102 29.2282
v  66.6066 -0.0000 0.0000
v  67.3563 22.0102 0.0012
v  60.0105 -0.0000 -28.8995
v  60.6855 22.0102 -29.2258
v  41.5286 -0.0000 -52.0752
v  41.9941 22.0103 -52.6640
v  14.8214 0.0000 -64.9367
v  14.9843 22.0103 -65.6713
v  -14.8214 0.0000 -64.9367
v  -14.9944 22.0103 -65.6713
v  -41.5286 0.0000 -52.0752
v  -42.0042 22.0103 -52.6640
v  -60.0105 0.0000 -28.8995
v  -60.6956 22.0103 -29.2258
v  -65.9781 58.5358 31.7734
v  -73.2301 58.5358 0.0000
v  -63.9756 44.1449 0.0003
v  -57.6401 44.1449 27.7577
v  -45.6582 58.5348 57.2536
v  -39.8886 44.1442 50.0174
v  -16.2953 58.5329 71.3940
v  -14.2369 44.1428 62.3706
v  16.2952 58.5306 71.3939
v  14.2343 44.1411 62.3707
v  45.6580 58.5283 57.2534
v  39.8860 44.1394 50.0175
v  65.9777 58.5264 31.7733
v  57.6376 44.1381 27.7578
v  73.2298 58.5253 0.0000
v  63.9731 44.1373 0.0003
v  65.9777 58.5253 -31.7732
v  57.6376 44.1373 -27.7571
v  45.6580 58.5263 -57.2534
v  39.8861 44.1380 -50.0168
v  16.2951 58.5282 -71.3939
v  14.2343 44.1394 -62.3700
v  -16.2952 58.5305 -71.3939
v  -14.2369 44.1411 -62.3700
v  -45.6582 58.5329 -57.2535
v  -39.8886 44.1428 -50.0168
v  -65.9781 58.5347 -31.7733
v  -57.6402 44.1442 -27.7571
v  -65.0578 63.2686 31.3302
v  -63.4941 67.0340 30.5772
v  -70.4732 67.0340 0.0000
v  -72.2087 63.2686 -0.0000
v  -45.0215 63.2678 56.4553
v  -43.9393 67.0340 55.0981
v  -16.0680 63.2664 70.3991
v  -15.6817 67.0340 68.7063
v  16.0683 63.2647 70.3997
v  15.6818 67.0340 68.7063
v  45.0227 63.2629 56.4566
v  43.9393 67.0340 55.0981
v  65.0602 63.2615 31.3313
v  63.4941 67.0340 30.5772
v  72.2116 63.2607 -0.0000
v  70.4732 67.0340 0.0000
v  65.0604 63.2607 -31.3314
v  63.4941 67.0340 -30.5771
v  45.0231 63.2615 -56.4570
v  43.9393 67.0340 -55.0981
v  16.0685 63.2629 -70.4003
v  15.6818 67.0340 -68.7062
v  -16.0682 63.2646 -70.3997
v  -15.6818 67.0340 -68.7062
v  -45.0219 63.2664 -56.4557
v  -43.9393 67.0341 -55.0981
v  -65.0581 63.2678 -31.3303
v  -63.4941 67.0340 -30.5771
v  0.0000 -0.0000 -0.0000
v  0.0000 67.0340 -0.0000
# 86 vertices

vn -0.7396 -0.6730 -0.0000
vn -0.6664 -0.6730 0.3209
vn -0.8995 0.0580 0.4331
vn -0.9983 0.0580 0.0000
vn -0.4612 -0.6730 0.5783
vn -0.6225 0.0580 0.7805
vn -0.1646 -0.6730 0.7211
vn -0.2222 0.0580 0.9733
vn 0.1646 -0.6729 0.7212
vn 0.2221 0.0580 0.9733
vn 0.4612 -0.6729 0.5783
vn 0.6224 0.0580 0.7805
vn 0.6665 -0.6729 0.3210
vn 0.8994 0.0580 0.4332
vn 0.7398 -0.6728 -0.0000
vn 0.9983 0.0580 0.0000
vn 0.6665 -0.6728 -0.3210
vn 0.8994 0.0580 -0.4332
vn 0.4613 -0.6729 -0.5784
vn 0.6224 0.0580 -0.7805
vn 0.1646 -0.6729 -0.7212
vn 0.2221 0.0580 -0.9733
vn -0.1646 -0.6729 -0.7212
vn -0.2222 0.0580 -0.9733
vn -0.4612 -0.6730 -0.5783
vn -0.6225 0.0580 -0.7805
vn -0.6664 -0.6730 -0.3209
vn -0.8995 0.0580 -0.4331
vn -0.8879 -0.1697 0.4276
vn -0.9855 -0.1697 0.0000
vn -0.9757 -0.2192 0.0000
vn -0.8791 -0.2192 0.4233
vn -0.6144 -0.1697 0.7705
vn -0.6083 -0.2192 0.7628
vn -0.2193 -0.1698 0.9608
vn -0.2171 -0.2193 0.9512
vn 0.2193 -0.1699 0.9608
vn 0.2171 -0.2193 0.9512
vn 0.6144 -0.1700 0.7705
vn 0.6083 -0.2194 0.7628
vn 0.8878 -0.1701 0.4276
vn 0.8790 -0.2194 0.4233
vn 0.9854 -0.1701 0.0000
vn 0.9756 -0.2194 0.0000
vn 0.8878 -0.1701 -0.4276
vn 0.8790 -0.2194 -0.4233
vn 0.6144 -0.1701 -0.7704
vn 0.6083 -0.2194 -0.7628
vn 0.2193 -0.1700 -0.9607
vn 0.2171 -0.2194 -0.9512
vn -0.2193 -0.1699 -0.9608
vn -0.2171 -0.2193 -0.9512
vn -0.6144 -0.1698 -0.7705
vn -0.6083 -0.2193 -0.7628
vn -0.8879 -0.1697 -0.4276
vn -0.8791 -0.2192 -0.4233
vn -0.8560 0.3121 0.4122
vn -0.5310 0.8079 0.2557
vn -0.5894 0.8079 0.0000
vn -0.9500 0.3121 -0.0000
vn -0.5924 0.3121 0.7428
vn -0.3675 0.8079 0.4608
vn -0.2114 0.3120 0.9263
vn -0.1312 0.8079 0.5746
vn 0.2114 0.3119 0.9263
vn 0.1312 0.8078 0.5746
vn 0.5924 0.3118 0.7429
vn 0.3675 0.8078 0.4608
vn 0.8561 0.3117 0.4123
vn 0.5310 0.8078 0.2557
vn 0.9502 0.3117 -0.0000
vn 0.5894 0.8078 0.0000
vn 0.8561 0.3117 -0.4123
vn 0.5311 0.8078 -0.2557
vn 0.5924 0.3117 -0.7429
vn 0.3675 0.8078 -0.4608
vn 0.2114 0.3118 -0.9263
vn 0.1312 0.8078 -0.5746
vn -0.2114 0.3119 -0.9263
vn -0.1312 0.8078 -0.5746
vn -0.5924 0.3120 -0.7428
vn -0.3675 0.8079 -0.4608
vn -0.8560 0.3121 -0.4122
vn -0.5310 0.8079 -0.2557
vn -0.0000 -1.0000 -0.0000
vn 0.0000 1.0000 0.0000
# 86 vertex normals

vt 0.7500 0.0000 1.0000
vt 0.8214 0.0000 1.0000
vt 0.8214 0.5000 1.0000
vt 0.7500 0.5000 1.0000
vt 0.8929 0.0000 1.0000
vt 0.8929 0.5000 1.0000
vt 0.9643 0.0000 1.0000
vt 0.9643 0.5000 1.0000
vt -0.0357 0.0000 1.0000
vt 0.0357 0.0000 1.0000
vt 0.0357 0.5000 1.0000
vt -0.0357 0.5000 1.0000
vt 0.1071 0.0000 1.0000
vt 0.1071 0.5000 1.0000
vt 0.1786 0.0000 1.0000
vt 0.1786 0.5000 1.0000
vt 0.2500 0.0000 1.0000
vt 0.2500 0.5000 1.0000
vt 0.3214 0.0000 1.0000
vt 0.3214 0.5000 1.0000
vt 0.3929 0.0000 1.0000
vt 0.3929 0.5000 1.0000
vt 0.4643 0.0000 1.0000
vt 0.4643 0.5000 1.0000
vt 0.5357 0.0000 1.0000
vt 0.5357 0.5000 1.0000
vt 0.6071 0.0000 1.0000
vt 0.6071 0.5000 1.0000
vt 0.6786 0.0000 1.0000
vt 0.6786 0.5000 1.0000
vt 0.8214 0.7870 1.0000
vt 0.7500 0.7870 1.0000
vt 0.7500 0.6984 1.0000
vt 0.8214 0.6984 1.0000
vt 0.8929 0.7870 1.0000
vt 0.8929 0.6984 1.0000
vt 0.9643 0.7870 1.0000
vt 0.9643 0.6984 1.0000
vt 0.0357 0.7870 1.0000
vt -0.0357 0.7870 1.0000
vt -0.0357 0.6984 1.0000
vt 0.0357 0.6984 1.0000
vt 0.1071 0.7870 1.0000
vt 0.1071 0.6984 1.0000
vt 0.1786 0.7870 1.0000
vt 0.1786 0.6984 1.0000
vt 0.2500 0.7870 1.0000
vt 0.2500 0.6984 1.0000
vt 0.3214 0.7870 1.0000
vt 0.3214 0.6984 1.0000
vt 0.3929 0.7870 1.0000
vt 0.3929 0.6984 1.0000
vt 0.4643 0.7870 1.0000
vt 0.4643 0.6984 1.0000
vt 0.5357 0.7870 1.0000
vt 0.5357 0.6984 1.0000
vt 0.6071 0.7870 1.0000
vt 0.6071 0.6984 1.0000
vt 0.6786 0.7870 1.0000
vt 0.6786 0.6984 1.0000
vt 0.8214 0.9086 1.0000
vt 0.8214 1.0000 1.0000
vt 0.7500 1.0000 1.0000
vt 0.7500 0.9086 1.0000
vt 0.8929 0.9086 1.0000
vt 0.8929 1.0000 1.0000
vt 0.9643 0.9086 1.0000
vt 0.9643 1.0000 1.0000
vt 0.0357 0.9085 1.0000
vt 0.0357 1.0000 1.0000
vt -0.0357 1.0000 1.0000
vt -0.0357 0.9086 1.0000
vt 0.1071 0.9085 1.0000
vt 0.1071 1.0000 1.0000
vt 0.1786 0.9085 1.0000
vt 0.1786 1.0000 1.0000
vt 0.2500 0.9085 1.0000
vt 0.2500 1.0000 1.0000
vt 0.3214 0.9085 1.0000
vt 0.3214 1.0000 1.0000
vt 0.3929 0.9085 1.0000
vt 0.3929 1.0000 1.0000
vt 0.4643 0.9085 1.0000
vt 0.4643 1.0000 1.0000
vt 0.5357 0.9085 1.0000
vt 0.5357 1.0000 1.0000
vt 0.6071 0.9086 1.0000
vt 0.6071 1.0000 1.0000
vt 0.6786 0.9086 1.0000
vt 0.6786 1.0000 1.0000
vt 0.5201 0.0000 0.0538
vt 0.3395 0.0000 -0.0000
vt 0.1647 0.0000 -0.4450
vt 0.0562 0.0000 -0.8019
vt 0.0357 0.0000 -1.0000
vt 0.1071 0.0000 -1.0000
vt 0.2564 0.0000 -0.8019
vt 0.4539 0.0000 -0.4450
vt 0.6605 0.0000 0.0000
vt 0.8353 0.0000 0.4450
vt 0.9438 0.0000 0.8019
vt 0.5443 1.0000 0.1252
vt 0.9438 1.0000 0.8019
vt 0.8353 1.0000 0.4450
vt 0.6605 1.0000 0.0000
vt 0.4539 1.0000 -0.4450
vt 0.2564 1.0000 -0.8019
vt 0.1071 1.0000 -1.0000
vt 0.0357 1.0000 -1.0000
vt 0.0562 1.0000 -0.8019
vt 0.1647 1.0000 -0.4450
# 111 texture coords

o Top_Pilier_01
g Top_Pilier_01
usemtl wire_087225198
s 1
f 1/1/1 2/2/2 3/3/3 4/4/4 
f 2/2/2 5/5/5 6/6/6 3/3/3 
f 5/5/5 7/7/7 8/8/8 6/6/6 
f 7/9/7 9/10/9 10/11/10 8/12/8 
f 9/10/9 11/13/11 12/14/12 10/11/10 
f 11/13/11 13/15/13 14/16/14 12/14/12 
f 13/15/13 15/17/15 16/18/16 14/16/14 
f 15/17/15 17/19/17 18/20/18 16/18/16 
f 17/19/17 19/21/19 20/22/20 18/20/18 
f 19/21/19 21/23/21 22/24/22 20/22/20 
f 21/23/21 23/25/23 24/26/24 22/24/22 
f 23/25/23 25/27/25 26/28/26 24/26/24 
f 25/27/25 27/29/27 28/30/28 26/28/26 
f 27/29/27 1/1/1 4/4/4 28/30/28 
f 29/31/29 30/32/30 31/33/31 32/34/32 
f 33/35/33 29/31/29 32/34/32 34/36/34 
f 35/37/35 33/35/33 34/36/34 36/38/36 
f 37/39/37 35/40/35 36/41/36 38/42/38 
f 39/43/39 37/39/37 38/42/38 40/44/40 
f 41/45/41 39/43/39 40/44/40 42/46/42 
f 43/47/43 41/45/41 42/46/42 44/48/44 
f 45/49/45 43/47/43 44/48/44 46/50/46 
f 47/51/47 45/49/45 46/50/46 48/52/48 
f 49/53/49 47/51/47 48/52/48 50/54/50 
f 51/55/51 49/53/49 50/54/50 52/56/52 
f 53/57/53 51/55/51 52/56/52 54/58/54 
f 55/59/55 53/57/53 54/58/54 56/60/56 
f 30/32/30 55/59/55 56/60/56 31/33/31 
f 57/61/57 58/62/58 59/63/59 60/64/60 
f 31/33/31 4/4/4 3/3/3 32/34/32 
f 61/65/61 62/66/62 58/62/58 57/61/57 
f 32/34/32 3/3/3 6/6/6 34/36/34 
f 63/67/63 64/68/64 62/66/62 61/65/61 
f 34/36/34 6/6/6 8/8/8 36/38/36 
f 65/69/65 66/70/66 64/71/64 63/72/63 
f 36/41/36 8/12/8 10/11/10 38/42/38 
f 67/73/67 68/74/68 66/70/66 65/69/65 
f 38/42/38 10/11/10 12/14/12 40/44/40 
f 69/75/69 70/76/70 68/74/68 67/73/67 
f 40/44/40 12/14/12 14/16/14 42/46/42 
f 71/77/71 72/78/72 70/76/70 69/75/69 
f 42/46/42 14/16/14 16/18/16 44/48/44 
f 73/79/73 74/80/74 72/78/72 71/77/71 
f 44/48/44 16/18/16 18/20/18 46/50/46 
f 75/81/75 76/82/76 74/80/74 73/79/73 
f 46/50/46 18/20/18 20/22/20 48/52/48 
f 77/83/77 78/84/78 76/82/76 75/81/75 
f 48/52/48 20/22/20 22/24/22 50/54/50 
f 79/85/79 80/86/80 78/84/78 77/83/77 
f 50/54/50 22/24/22 24/26/24 52/56/52 
f 81/87/81 82/88/82 80/86/80 79/85/79 
f 52/56/52 24/26/24 26/28/26 54/58/54 
f 83/89/83 84/90/84 82/88/82 81/87/81 
f 54/58/54 26/28/26 28/30/28 56/60/56 
f 60/64/60 59/63/59 84/90/84 83/89/83 
f 56/60/56 28/30/28 4/4/4 31/33/31 
s 2
f 2/2/2 1/1/1 85/91/85 
f 1/1/1 27/92/27 85/91/85 
f 27/92/27 25/93/25 85/91/85 
f 25/93/25 23/94/23 85/91/85 
f 23/94/23 21/95/21 85/91/85 
f 21/95/21 19/96/19 85/91/85 
f 19/96/19 17/97/17 85/91/85 
f 17/97/17 15/98/15 85/91/85 
f 15/98/15 13/99/13 85/91/85 
f 13/99/13 11/100/11 85/91/85 
f 11/100/11 9/101/9 85/91/85 
f 9/101/9 7/7/7 85/91/85 
f 7/7/7 5/5/5 85/91/85 
f 5/5/5 2/2/2 85/91/85 
f 59/63/59 58/62/58 86/102/86 
f 58/62/58 62/66/62 86/102/86 
f 62/66/62 64/68/64 86/102/86 
f 64/68/64 66/103/66 86/102/86 
f 66/103/66 68/104/68 86/102/86 
f 68/104/68 70/105/70 86/102/86 
f 70/105/70 72/106/72 86/102/86 
f 72/106/72 74/107/74 86/102/86 
f 74/107/74 76/108/76 86/102/86 
f 76/108/76 78/109/78 86/102/86 
f 78/109/78 80/110/80 86/102/86 
f 80/110/80 82/111/82 86/102/86 
f 82/111/82 84/90/84 86/102/86 
f 84/90/84 59/63/59 86/102/86 
f 29/31/29 57/61/57 60/64/60 30/32/30 
f 33/35/33 61/65/61 57/61/57 29/31/29 
f 35/37/35 63/67/63 61/65/61 33/35/33 
f 37/39/37 65/69/65 63/72/63 35/40/35 
f 39/43/39 67/73/67 65/69/65 37/39/37 
f 41/45/41 69/75/69 67/73/67 39/43/39 
f 43/47/43 71/77/71 69/75/69 41/45/41 
f 45/49/45 73/79/73 71/77/71 43/47/43 
f 47/51/47 75/81/75 73/79/73 45/49/45 
f 49/53/49 77/83/77 75/81/75 47/51/47 
f 51/55/51 79/85/79 77/83/77 49/53/49 
f 53/57/53 81/87/81 79/85/79 51/55/51 
f 55/59/55 83/89/83 81/87/81 53/57/53 
f 30/32/30 60/64/60 83/89/83 55/59/55 
# 70 polygons - 28 triangles

