# This file uses centimeters as units for non-parametric coordinates.

mtllib disque attaque.mtl
g default
v -0.195090 0.000000 0.980785
v 0.195090 0.000000 0.980785
v 0.555570 0.000000 0.831470
v 0.831470 0.000000 0.555570
v 0.980785 0.000000 0.195090
v 0.980785 0.000000 -0.195090
v 0.831470 0.000000 -0.555570
v 0.555570 0.000000 -0.831470
v 0.195090 0.000000 -0.980785
v -0.195090 0.000000 -0.980785
v -0.555570 0.000000 -0.831470
v -0.831470 0.000000 -0.555570
v -0.980785 0.000000 -0.195090
v -0.980785 0.000000 0.195090
v -0.831469 0.000000 0.555570
v -0.555570 0.000000 0.831470
v 0.000000 0.000000 1.000000
v 0.382683 0.000000 0.923880
v 0.707107 0.000000 0.707107
v 0.923880 0.000000 0.382683
v 1.000000 0.000000 -0.000000
v 0.923880 0.000000 -0.382683
v 0.707107 0.000000 -0.707107
v 0.382683 0.000000 -0.923880
v -0.000000 0.000000 -1.000000
v -0.382683 0.000000 -0.923880
v -0.707107 0.000000 -0.707107
v -0.923880 0.000000 -0.382683
v -1.000000 0.000000 0.000000
v -0.923879 0.000000 0.382684
v -0.707107 0.000000 0.707107
v -0.382683 0.000000 0.923880
v 0.191342 0.061429 -0.461940
v 0.353553 0.061429 -0.353553
v 0.461940 0.061429 -0.191342
v 0.500000 0.061429 -0.000000
v 0.461940 0.061429 0.191342
v 0.353553 0.061429 0.353553
v 0.191342 0.061429 0.461940
v -0.000000 0.061429 0.500000
v -0.191342 0.061429 0.461940
v -0.353553 0.061429 0.353554
v -0.461940 0.061429 0.191342
v -0.500000 0.061429 0.000000
v -0.461940 0.061429 -0.191342
v -0.353553 0.061429 -0.353553
v -0.191342 0.061429 -0.461940
v -0.000000 0.061429 -0.500000
vt 0.402455 0.009607
vt 0.597545 0.009607
vt 0.777785 0.084265
vt 0.915735 0.222215
vt 0.990393 0.402455
vt 0.990393 0.597545
vt 0.915735 0.777785
vt 0.777785 0.915735
vt 0.597545 0.990393
vt 0.402455 0.990393
vt 0.222215 0.915735
vt 0.084265 0.777785
vt 0.009607 0.597545
vt 0.009607 0.402455
vt 0.084265 0.222215
vt 0.222215 0.084265
vt 0.500000 0.000000
vt 0.691342 0.038060
vt 0.853553 0.146447
vt 0.961940 0.308658
vt 1.000000 0.500000
vt 0.961940 0.691342
vt 0.853553 0.853553
vt 0.691342 0.961940
vt 0.500000 1.000000
vt 0.308658 0.961940
vt 0.146447 0.853553
vt 0.038060 0.691342
vt 0.000000 0.500000
vt 0.038060 0.308658
vt 0.146447 0.146446
vt 0.308658 0.038060
vt 0.595671 0.730970
vt 0.676777 0.676777
vt 0.730970 0.595671
vt 0.750000 0.500000
vt 0.730970 0.404329
vt 0.676777 0.323223
vt 0.595671 0.269030
vt 0.500000 0.250000
vt 0.404329 0.269030
vt 0.323223 0.323223
vt 0.269030 0.404329
vt 0.250000 0.500000
vt 0.269030 0.595671
vt 0.323223 0.676777
vt 0.404329 0.730970
vt 0.500000 0.750000
vn -0.045494 0.992908 0.109833
vn -0.023641 0.992631 0.118849
vn 0.000000 0.992908 0.118882
vn 0.000000 0.992908 0.118882
vn -0.045494 0.992908 0.109833
vn 0.023641 0.992631 0.118849
vn 0.045494 0.992908 0.109833
vn 0.045494 0.992908 0.109833
vn 0.067322 0.992631 0.100755
vn 0.084062 0.992908 0.084062
vn 0.084062 0.992908 0.084062
vn 0.100755 0.992631 0.067322
vn 0.109833 0.992908 0.045494
vn 0.109833 0.992908 0.045494
vn 0.118849 0.992631 0.023641
vn 0.118882 0.992908 0.000000
vn 0.118882 0.992908 0.000000
vn 0.118849 0.992631 -0.023641
vn 0.109833 0.992908 -0.045494
vn 0.109833 0.992908 -0.045494
vn 0.100755 0.992631 -0.067322
vn 0.084062 0.992908 -0.084062
vn 0.084062 0.992908 -0.084062
vn 0.067322 0.992631 -0.100755
vn 0.045494 0.992908 -0.109833
vn 0.045494 0.992908 -0.109833
vn 0.023641 0.992631 -0.118849
vn -0.000000 0.992908 -0.118882
vn -0.000000 0.992908 -0.118882
vn -0.023641 0.992631 -0.118849
vn -0.045494 0.992908 -0.109833
vn -0.045494 0.992908 -0.109833
vn -0.067322 0.992631 -0.100755
vn -0.084062 0.992908 -0.084062
vn -0.084062 0.992908 -0.084062
vn -0.100755 0.992631 -0.067322
vn -0.109833 0.992908 -0.045494
vn -0.109833 0.992908 -0.045494
vn -0.118849 0.992631 -0.023640
vn -0.118882 0.992908 0.000000
vn -0.118882 0.992908 0.000000
vn -0.118849 0.992631 0.023641
vn -0.109833 0.992908 0.045494
vn -0.109833 0.992908 0.045494
vn -0.100755 0.992631 0.067322
vn -0.084062 0.992908 0.084062
vn -0.084062 0.992908 0.084062
vn -0.067322 0.992631 0.100755
s 1
g pDisc1
usemtl initialShadingGroup
f 32/32/1 1/1/2 17/17/3 40/40/4 41/41/5
f 17/17/3 2/2/6 18/18/7 39/39/8 40/40/4
f 18/18/7 3/3/9 19/19/10 38/38/11 39/39/8
f 19/19/10 4/4/12 20/20/13 37/37/14 38/38/11
f 20/20/13 5/5/15 21/21/16 36/36/17 37/37/14
f 21/21/16 6/6/18 22/22/19 35/35/20 36/36/17
f 22/22/19 7/7/21 23/23/22 34/34/23 35/35/20
f 23/23/22 8/8/24 24/24/25 33/33/26 34/34/23
f 24/24/25 9/9/27 25/25/28 48/48/29 33/33/26
f 25/25/28 10/10/30 26/26/31 47/47/32 48/48/29
f 26/26/31 11/11/33 27/27/34 46/46/35 47/47/32
f 27/27/34 12/12/36 28/28/37 45/45/38 46/46/35
f 28/28/37 13/13/39 29/29/40 44/44/41 45/45/38
f 29/29/40 14/14/42 30/30/43 43/43/44 44/44/41
f 30/30/43 15/15/45 31/31/46 42/42/47 43/43/44
f 31/31/46 16/16/48 32/32/1 41/41/5 42/42/47
