# 3ds Max Wavefront OBJ Exporter v0.97b - (c)2007 guruware
# File Created: 09.03.2021 12:00:38

mtllib Arme_04.mtl

#
# object Poignée
#

v  0.1351 2.1219 0.0535
v  0.1510 2.1265 0.0535
v  0.1481 2.1629 0.0535
v  0.1263 2.1620 0.0535
v  0.1374 1.9355 0.0535
v  0.1549 1.9479 0.0535
v  0.1642 2.0082 0.0535
v  0.1401 2.0170 0.0535
v  0.1559 2.0818 0.0535
v  0.1434 2.0763 0.0535
v  0.1628 2.2461 0.0535
v  0.1285 2.2343 0.0535
v  0.2342 2.1274 0.0535
v  0.2586 2.1738 0.0535
v  0.2251 2.1536 0.0535
v  0.2530 2.1996 0.0535
v  0.2408 2.2560 0.0358
v  0.2203 2.2269 0.0535
v  0.1461 2.3158 0.0468
v  0.1260 2.3031 0.0468
v  0.1077 2.2915 0.0319
v  0.0994 2.2243 0.0358
v  0.0964 2.1608 0.0358
v  0.1139 2.1159 0.0358
v  0.1314 2.0709 0.0358
v  0.1267 2.0219 0.0358
v  0.1206 1.9237 0.0358
v  0.1648 1.9549 0.0358
v  0.1757 2.0039 0.0358
v  0.1882 2.0419 0.0358
v  0.1623 2.0846 0.0358
v  0.1654 2.1306 0.0358
v  0.1760 2.1640 0.0358
v  0.1940 2.2568 0.0358
v  0.1655 2.3281 0.0354
v  0.1921 2.1865 0.0535
v  0.2054 2.1418 0.0358
v  0.2106 2.0826 0.0358
v  0.1077 2.2915 -0.0111
v  0.0994 2.2243 -0.0151
v  0.0964 2.1608 -0.0151
v  0.1139 2.1159 -0.0151
v  0.1314 2.0709 -0.0151
v  0.1267 2.0219 -0.0151
v  0.1206 1.9237 -0.0151
v  0.2106 2.0826 -0.0151
v  0.2342 2.1274 -0.0328
v  0.2586 2.1738 -0.0328
v  0.2530 2.1996 -0.0328
v  0.1648 1.9549 -0.0151
v  0.1757 2.0039 -0.0151
v  0.1882 2.0419 -0.0151
v  0.1623 2.0846 -0.0151
v  0.1654 2.1306 -0.0151
v  0.1760 2.1640 -0.0151
v  0.2054 2.1418 -0.0151
v  0.1351 2.1219 -0.0328
v  0.1263 2.1620 -0.0328
v  0.1481 2.1629 -0.0328
v  0.1510 2.1265 -0.0328
v  0.1374 1.9355 -0.0328
v  0.1401 2.0170 -0.0328
v  0.1642 2.0082 -0.0328
v  0.1549 1.9479 -0.0328
v  0.1434 2.0763 -0.0328
v  0.1559 2.0818 -0.0328
v  0.1628 2.2461 -0.0328
v  0.1285 2.2343 -0.0328
v  0.2251 2.1536 -0.0328
v  0.2203 2.2269 -0.0328
v  0.2408 2.2560 -0.0151
v  0.1461 2.3158 -0.0261
v  0.1260 2.3031 -0.0261
v  0.1940 2.2568 -0.0151
v  0.1655 2.3281 -0.0146
v  0.1921 2.1865 -0.0328
v  0.3267 1.6360 0.0269
v  0.3321 1.3528 0.0269
v  0.3822 1.3458 0.0675
v  0.3773 1.6355 0.0675
v  0.1588 0.7843 0.0269
v  -0.0159 0.5501 0.0269
v  0.1069 0.5008 0.0675
v  0.1851 0.7431 0.0675
v  0.2959 1.0767 0.0269
v  0.3548 1.0326 0.0675
v  0.4387 1.9145 0.0205
v  0.2458 2.2141 0.0159
v  0.1760 2.2530 0.0416
v  0.2170 1.9256 0.0675
v  0.5448 1.6282 0.0205
v  0.1381 2.2672 0.0011
v  0.1455 1.9122 -0.0064
v  0.1455 1.9122 0.0269
v  0.1381 2.2672 0.0193
v  0.3267 1.6360 -0.0064
v  0.3321 1.3528 -0.0064
v  0.2959 1.0767 -0.0064
v  0.1588 0.7843 -0.0064
v  -0.0159 0.5501 -0.0064
v  0.1069 0.5008 -0.0471
v  0.7099 0.2935 -0.0001
v  0.7196 0.4872 -0.0001
v  0.7196 0.4872 0.0205
v  0.7099 0.2935 0.0205
v  0.7293 0.6809 -0.0001
v  0.6984 1.0001 -0.0001
v  0.6984 1.0001 0.0205
v  0.7293 0.6809 0.0205
v  0.6256 1.3432 -0.0001
v  0.6256 1.3432 0.0205
v  0.5448 1.6282 -0.0001
v  0.4387 1.9145 -0.0001
v  0.2458 2.2141 0.0046
v  0.1760 2.2530 -0.0212
v  0.2170 1.9256 -0.0471
v  0.3773 1.6355 -0.0471
v  0.3822 1.3458 -0.0471
v  0.3548 1.0326 -0.0471
v  0.1851 0.7431 -0.0471
v  0.1466 2.7986 0.0034
v  0.1388 2.7986 0.0001
v  0.1309 2.7986 0.0034
v  0.1277 2.7986 0.0112
v  0.1309 2.7986 0.0191
v  0.1388 2.7986 0.0223
v  0.1466 2.7986 0.0191
v  0.1499 2.7986 0.0112
v  0.1793 2.7407 0.0112
v  0.1675 2.7407 0.0399
v  0.1654 2.3334 0.0354
v  0.1656 2.3336 -0.0142
v  0.1388 2.7407 0.0518
v  0.1459 2.3212 0.0468
v  0.1101 2.7407 0.0399
v  0.1259 2.3086 0.0467
v  0.0982 2.7407 0.0112
v  0.1076 2.2972 0.0316
v  0.1101 2.7407 -0.0175
v  0.1078 2.2972 -0.0111
v  0.1388 2.7407 -0.0293
v  0.1262 2.3088 -0.0260
v  0.1675 2.7407 -0.0175
v  0.1463 2.3215 -0.0259
# 144 vertices

vn -0.3227 -0.0652 0.9443
vn 0.4191 0.0400 0.9071
vn 0.1798 -0.0737 0.9809
vn -0.2824 -0.0274 0.9589
vn -0.0330 -0.6416 0.7663
vn 0.5526 -0.4673 0.6901
vn 0.5058 -0.0020 0.8626
vn -0.4442 0.0192 0.8957
vn 0.5663 0.0630 0.8218
vn -0.4316 -0.0333 0.9014
vn 0.1217 0.1504 0.9811
vn -0.2745 0.0423 0.9607
vn 0.4265 -0.4466 0.7866
vn 0.7632 -0.1040 0.6377
vn -0.2375 -0.1485 0.9600
vn 0.6782 0.1927 0.7092
vn 0.5464 0.7260 0.4175
vn 0.1214 0.2245 0.9669
vn 0.2046 0.0781 0.9757
vn -0.3645 0.0498 0.9299
vn -0.9072 0.0837 0.4123
vn -0.8717 0.0823 0.4831
vn -0.8728 -0.1392 0.4678
vn -0.8407 -0.3272 0.4314
vn -0.9409 -0.1178 0.3177
vn -0.9433 0.0749 0.3233
vn -0.4898 -0.8039 0.3375
vn 0.8523 -0.5010 0.1503
vn 0.9198 -0.2520 0.3008
vn 0.7764 0.0888 0.6239
vn 0.9555 0.2259 0.1895
vn 0.9280 -0.1868 0.3225
vn 0.2603 -0.7291 0.6330
vn 0.3804 0.7957 0.4713
vn 0.8289 0.1509 0.5386
vn -0.0448 -0.1752 0.9835
vn -0.7628 -0.4183 0.4932
vn -0.1902 -0.8711 0.4527
vn -0.9096 0.0850 -0.4068
vn -0.8717 0.0823 -0.4831
vn -0.8728 -0.1392 -0.4679
vn -0.8407 -0.3272 -0.4314
vn -0.9409 -0.1178 -0.3176
vn -0.9433 0.0749 -0.3233
vn -0.4898 -0.8039 -0.3375
vn -0.1897 -0.8712 -0.4528
vn 0.4265 -0.4466 -0.7866
vn 0.7632 -0.1040 -0.6377
vn 0.6782 0.1927 -0.7092
vn 0.8523 -0.5010 -0.1503
vn 0.9198 -0.2520 -0.3008
vn 0.7764 0.0888 -0.6239
vn 0.9555 0.2259 -0.1895
vn 0.9280 -0.1868 -0.3225
vn 0.2603 -0.7291 -0.6330
vn -0.7628 -0.4183 -0.4931
vn -0.3227 -0.0652 -0.9443
vn -0.2824 -0.0274 -0.9589
vn 0.1798 -0.0737 -0.9809
vn 0.4191 0.0400 -0.9071
vn -0.0330 -0.6416 -0.7663
vn -0.4442 0.0192 -0.8957
vn 0.5058 -0.0020 -0.8626
vn 0.5526 -0.4673 -0.6901
vn -0.4316 -0.0333 -0.9014
vn 0.5663 0.0630 -0.8218
vn 0.1217 0.1504 -0.9811
vn -0.2745 0.0423 -0.9607
vn -0.2375 -0.1485 -0.9600
vn 0.1214 0.2245 -0.9669
vn 0.5464 0.7260 -0.4175
vn 0.1919 0.0888 -0.9774
vn -0.3725 0.0540 -0.9265
vn 0.3804 0.7957 -0.4713
vn 0.8156 0.1630 -0.5552
vn -0.0448 -0.1752 -0.9835
vn -0.8475 -0.2832 0.4489
vn -0.8968 0.0488 0.4397
vn -0.2285 0.0088 0.9735
vn -0.1271 -0.0141 0.9918
vn -0.7887 0.4616 0.4060
vn -0.8555 -0.2087 0.4739
vn -0.3084 -0.6058 0.7334
vn -0.3437 0.1401 0.9286
vn -0.8254 0.2302 0.5155
vn -0.1375 0.0489 0.9893
vn 0.7163 0.3558 0.6003
vn 0.6629 0.6341 0.3980
vn 0.1044 0.6388 0.7622
vn -0.1781 -0.0251 0.9837
vn 0.7676 0.2491 0.5905
vn -0.5604 0.7247 -0.4008
vn -0.8440 -0.2530 -0.4729
vn -0.8440 -0.2530 0.4729
vn -0.5604 0.7247 0.4008
vn -0.8475 -0.2832 -0.4489
vn -0.8968 0.0488 -0.4397
vn -0.8254 0.2302 -0.5155
vn -0.7887 0.4616 -0.4060
vn -0.8555 -0.2087 -0.4739
vn -0.3084 -0.6058 -0.7334
vn 0.4778 -0.6909 -0.5426
vn 0.7334 -0.0423 -0.6785
vn 0.7334 -0.0423 0.6785
vn 0.4776 -0.6910 0.5426
vn 0.7504 0.0170 -0.6607
vn 0.7556 0.1155 -0.6448
vn 0.7556 0.1155 0.6448
vn 0.7505 0.0170 0.6606
vn 0.7557 0.1864 -0.6278
vn 0.7557 0.1864 0.6278
vn 0.7676 0.2491 -0.5905
vn 0.7163 0.3558 -0.6003
vn 0.6629 0.6341 -0.3980
vn 0.1044 0.6388 -0.7622
vn -0.1781 -0.0251 -0.9837
vn -0.1271 -0.0141 -0.9918
vn -0.2285 0.0088 -0.9735
vn -0.1375 0.0489 -0.9893
vn -0.3437 0.1401 -0.9286
vn 0.4277 0.7963 -0.4277
vn 0.0000 0.7963 -0.6049
vn -0.4277 0.7963 -0.4277
vn -0.6049 0.7963 -0.0000
vn -0.4277 0.7963 0.4277
vn 0.0000 0.7963 0.6049
vn 0.4277 0.7963 0.4277
vn 0.6049 0.7963 -0.0000
vn 0.9788 0.2045 0.0081
vn 0.6900 0.2158 0.6908
vn 0.8681 -0.0027 0.4963
vn 0.8666 0.0090 -0.4990
vn -0.0022 0.2155 0.9765
vn 0.2584 0.0011 0.9660
vn -0.6941 0.2140 0.6873
vn -0.3486 0.0104 0.9372
vn -0.9775 0.2108 -0.0060
vn -0.9088 0.0082 0.4171
vn -0.6888 0.2182 -0.6914
vn -0.9017 0.0070 -0.4322
vn 0.0038 0.2175 -0.9761
vn -0.3341 0.0109 -0.9425
vn 0.6958 0.2106 -0.6866
vn 0.2645 0.0141 -0.9643
# 144 vertex normals

vt 0.1737 0.6250 0.0000
vt 0.3038 0.6250 0.0000
vt 0.2812 0.7500 0.0000
vt 0.1623 0.7500 0.0000
vt 0.3792 0.0000 0.0000
vt 0.7744 0.0000 0.0000
vt 0.7644 0.2500 0.0000
vt 0.2735 0.2500 0.0000
vt 0.4585 0.5000 0.0000
vt 0.2253 0.5000 0.0000
vt 0.6710 0.8750 0.0000
vt 0.3080 0.8750 0.0000
vt 1.0000 0.5614 0.0000
vt 1.0000 0.6250 0.0000
vt 0.7315 0.6250 0.0000
vt 1.0000 0.6642 0.0000
vt 1.0000 0.7500 0.0000
vt 0.8202 0.7500 0.0000
vt 0.6641 1.0000 0.0000
vt 0.3177 1.0000 0.0000
vt 0.0000 1.0000 0.0000
vt 0.0000 0.8750 0.0000
vt 0.0000 0.7500 0.0000
vt 0.0000 0.6250 0.0000
vt 0.0000 0.5000 0.0000
vt 0.0000 0.2500 0.0000
vt 0.0000 0.0000 0.0000
vt 1.0000 0.0000 0.0000
vt 1.0000 0.2500 0.0000
vt 1.0000 0.3295 0.0000
vt 0.5773 0.5000 0.0000
vt 0.4218 0.6250 0.0000
vt 0.4325 0.7500 0.0000
vt 1.0000 0.8750 0.0000
vt 1.0000 1.0000 0.0000
vt 0.6111 0.7500 0.0000
vt 0.5742 0.6250 0.0000
vt 1.0000 0.5000 0.0000
vt 1.0925 0.0000 0.0000
vt 0.1849 0.0000 0.0000
vt 0.0000 0.6667 0.0000
vt 0.5000 0.5000 0.0000
vt 0.5000 0.6667 0.0000
vt 0.0000 0.1667 0.0000
vt 0.5000 0.0000 0.0000
vt 0.5000 0.1667 0.0000
vt 0.0000 0.3333 0.0000
vt 0.5000 0.3333 0.0000
vt 1.0000 0.8333 0.0000
vt 0.5000 1.0000 0.0000
vt 0.5000 0.8333 0.0000
vt 1.0000 0.6667 0.0000
vt 0.0000 0.8333 0.0000
vt 1.0000 0.0833 0.0000
vt 1.0000 0.1667 0.0000
vt 1.0000 0.3333 0.0000
vt 1.0000 -0.0000 0.0000
vt 0.5000 -0.0000 0.0000
vt 0.4786 0.0000 0.4142
vt 0.2197 0.0000 -0.4142
vt 0.1250 0.0000 -1.0000
vt 0.2500 0.0000 -1.0000
vt 0.5214 0.0000 -0.4142
vt 0.7803 0.0000 0.4142
vt 0.8750 0.0000 1.0000
vt 0.7500 0.0000 1.0000
vt 0.8750 0.5000 1.0000
vt 0.7500 0.5000 1.0000
vt -0.1250 0.0000 1.0000
vt 0.0000 0.0000 1.0000
vt 0.0000 0.5000 1.0000
vt -0.1250 0.5000 1.0000
vt 0.1250 0.0000 1.0000
vt 0.1250 0.5000 1.0000
vt 0.2500 0.0000 1.0000
vt 0.2500 0.5000 1.0000
vt 0.3750 0.0000 1.0000
vt 0.3750 0.5000 1.0000
vt 0.5000 0.0000 1.0000
vt 0.5000 0.5000 1.0000
vt 0.6250 0.0000 1.0000
vt 0.6250 0.5000 1.0000
vt 0.8750 1.0000 1.0000
vt 0.7500 1.0000 1.0000
vt 0.0000 1.0000 1.0000
vt -0.1250 1.0000 1.0000
vt 0.1250 1.0000 1.0000
vt 0.2500 1.0000 1.0000
vt 0.3750 1.0000 1.0000
vt 0.5000 1.0000 1.0000
vt 0.6250 1.0000 1.0000
# 91 texture coords

o Poignée
g Poignée
usemtl Material__3
s 1
f 1/1/1 2/2/2 3/3/3 4/4/4 
f 5/5/5 6/6/6 7/7/7 8/8/8 
f 8/8/8 7/7/7 9/9/9 10/10/10 
f 11/11/11 12/12/12 4/4/4 3/3/3 
f 10/10/10 9/9/9 2/2/2 1/1/1 
f 13/13/13 14/14/14 15/15/15 
f 16/16/16 17/17/17 18/18/18 
f 19/19/19 20/20/20 12/12/12 11/11/11 
f 20/20/20 21/21/21 22/22/22 12/12/12 
f 12/12/12 22/22/22 23/23/23 4/4/4 
f 4/4/4 23/23/23 24/24/24 1/1/1 
f 1/1/1 24/24/24 25/25/25 10/10/10 
f 10/10/10 25/25/25 26/26/26 8/8/8 
f 8/8/8 26/26/26 27/27/27 5/5/5 
f 6/6/6 28/28/28 29/29/29 7/7/7 
f 7/7/7 29/29/29 30/30/30 31/31/31 9/9/9 
f 9/9/9 31/31/31 32/32/32 2/2/2 
f 2/2/2 32/32/32 33/33/33 3/3/3 
f 18/18/18 17/17/17 34/34/34 11/11/11 
f 11/11/11 34/34/34 35/35/35 19/19/19 
f 3/3/3 33/33/33 36/36/36 
f 36/36/36 33/33/33 37/37/37 15/15/15 
f 15/15/15 37/37/37 38/38/38 13/13/13 
f 11/11/11 3/3/3 36/36/36 18/18/18 
f 18/18/18 36/36/36 15/15/15 14/14/14 16/16/16 
s off
f 22/22/22 21/21/21 39/21/39 40/22/40 
f 24/24/24 23/23/23 41/23/41 42/24/42 
f 26/26/26 25/25/25 43/25/43 44/26/44 
f 27/27/27 26/26/26 44/26/44 45/27/45 
f 25/25/25 24/24/24 42/24/42 43/25/43 
f 23/23/23 22/22/22 40/22/40 41/23/41 
f 13/13/13 38/38/38 46/38/46 47/13/47 
f 16/16/16 14/14/14 48/14/48 49/16/49 
f 14/14/14 13/13/13 47/13/47 48/14/48 
f 29/29/29 28/28/28 50/28/50 51/29/51 
f 30/30/30 29/29/29 51/29/51 52/30/52 
f 31/31/31 30/30/30 52/30/52 53/31/53 
f 32/32/32 31/31/31 53/31/53 54/32/54 
f 33/33/33 32/32/32 54/32/54 55/33/55 
f 37/37/37 33/33/33 55/33/55 56/37/56 
f 38/38/38 37/37/37 56/37/56 46/38/46 
s 1
f 57/1/57 58/4/58 59/3/59 60/2/60 
f 61/5/61 62/8/62 63/7/63 64/6/64 
f 62/8/62 65/10/65 66/9/66 63/7/63 
f 67/11/67 59/3/59 58/4/58 68/12/68 
f 65/10/65 57/1/57 60/2/60 66/9/66 
f 47/13/47 69/15/69 48/14/48 
f 49/16/49 70/18/70 71/17/71 
f 72/19/72 67/11/67 68/12/68 73/20/73 
f 73/20/73 68/12/68 40/22/40 39/21/39 
f 68/12/68 58/4/58 41/23/41 40/22/40 
f 58/4/58 57/1/57 42/24/42 41/23/41 
f 57/1/57 65/10/65 43/25/43 42/24/42 
f 65/10/65 62/8/62 44/26/44 43/25/43 
f 62/8/62 61/5/61 45/27/45 44/26/44 
f 64/6/64 63/7/63 51/29/51 50/28/50 
f 63/7/63 66/9/66 53/31/53 52/30/52 51/29/51 
f 66/9/66 60/2/60 54/32/54 53/31/53 
f 60/2/60 59/3/59 55/33/55 54/32/54 
f 70/18/70 67/11/67 74/34/74 71/17/71 
f 67/11/67 72/19/72 75/35/75 74/34/74 
f 59/3/59 76/36/76 55/33/55 
f 76/36/76 69/15/69 56/37/56 55/33/55 
f 69/15/69 47/13/47 46/38/46 56/37/56 
f 67/11/67 70/18/70 76/36/76 59/3/59 
f 70/18/70 49/16/49 48/14/48 69/15/69 76/36/76 
s off
f 74/34/74 34/34/34 17/17/17 71/17/71 
f 75/35/75 35/35/35 34/34/34 74/34/74 
f 71/17/71 17/17/17 16/16/16 49/16/49 
s 2
f 64/6/64 50/28/50 45/27/45 61/5/61 
s 6
f 28/39/28 27/40/27 45/27/45 50/28/50 
s 4
f 28/28/28 6/6/6 5/5/5 27/27/27 
s 1
f 77/41/77 78/25/78 79/42/79 80/43/80 
f 81/44/81 82/27/82 83/45/83 84/46/84 
f 85/47/85 81/44/81 84/46/84 86/48/86 
f 78/25/78 85/47/85 86/48/86 79/42/79 
f 87/49/87 88/35/88 89/50/89 90/51/90 
f 91/52/91 87/49/87 90/51/90 80/43/80 
s off
f 92/21/92 93/53/93 94/53/94 95/21/95 
f 93/53/93 96/41/96 77/41/77 94/53/94 
f 96/41/96 97/25/97 78/25/78 77/41/77 
f 97/25/97 98/47/98 85/47/85 78/25/78 
f 98/47/98 99/44/99 81/44/81 85/47/85 
f 99/44/99 100/27/100 82/27/82 81/44/81 
f 100/27/100 101/45/101 83/45/83 82/27/82 
f 102/28/102 103/54/103 104/54/104 105/28/105 
f 106/55/106 107/56/107 108/56/108 109/55/109 
f 107/56/107 110/38/110 111/38/111 108/56/108 
f 110/38/110 112/52/112 91/52/91 111/38/111 
f 112/52/112 113/49/113 87/49/87 91/52/91 
f 113/49/113 114/35/114 88/35/88 87/49/87 
f 114/35/114 115/50/115 89/50/89 88/35/88 
s 1
f 114/35/114 113/49/113 116/51/116 115/50/115 
s 2
f 113/49/113 112/52/112 117/43/117 116/51/116 
s 1
f 112/52/112 110/38/110 118/42/118 117/43/117 
s 2
f 110/38/110 107/56/107 119/48/119 118/42/118 
s 1
f 107/56/107 106/55/106 120/46/120 119/48/119 
s off
f 103/54/103 106/55/106 109/55/109 104/54/104 
s 2
f 103/54/103 102/57/102 101/58/101 120/46/120 106/55/106 
s 1
f 79/42/79 111/38/111 91/52/91 80/43/80 
f 83/45/83 105/28/105 104/54/104 109/55/109 84/46/84 
f 84/46/84 109/55/109 108/56/108 86/48/86 
f 86/48/86 108/56/108 111/38/111 79/42/79 
f 89/50/89 95/21/95 94/53/94 90/51/90 
f 90/51/90 94/53/94 77/41/77 80/43/80 
s off
f 101/45/101 102/28/102 105/28/105 83/45/83 
f 115/50/115 92/21/92 95/21/95 89/50/89 
s 1
f 116/51/116 93/53/93 92/21/92 115/50/115 
s 2
f 117/43/117 96/41/96 93/53/93 116/51/116 
s 1
f 118/42/118 97/25/97 96/41/96 117/43/117 
s 2
f 119/48/119 98/47/98 97/25/97 118/42/118 
s 1
f 120/46/120 99/44/99 98/47/98 119/48/119 
s 2
f 101/58/101 100/27/100 99/44/99 120/46/120 
s 1
f 121/59/121 122/60/122 123/61/123 124/62/124 125/63/125 126/64/126 127/65/127 128/66/128 
s 8
f 129/66/129 130/65/130 131/67/131 132/68/132 
f 130/69/130 133/70/133 134/71/134 131/72/131 
f 133/70/133 135/73/135 136/74/136 134/71/134 
f 135/73/135 137/75/137 138/76/138 136/74/136 
f 137/75/137 139/77/139 140/78/140 138/76/138 
f 139/77/139 141/79/141 142/80/142 140/78/140 
f 141/79/141 143/81/143 144/82/144 142/80/142 
f 143/81/143 129/66/129 132/68/132 144/82/144 
s off
f 130/65/130 129/66/129 128/66/128 127/65/127 
f 129/66/129 143/59/143 121/59/121 128/66/128 
f 143/59/143 141/60/141 122/60/122 121/59/121 
f 141/60/141 139/61/139 123/61/123 122/60/122 
f 139/61/139 137/62/137 124/62/124 123/61/123 
f 137/62/137 135/63/135 125/63/125 124/62/124 
f 135/63/135 133/64/133 126/64/126 125/63/125 
f 133/64/133 130/65/130 127/65/127 126/64/126 
s 8
f 131/67/131 35/83/35 75/84/75 132/68/132 
f 134/71/134 19/85/19 35/86/35 131/72/131 
f 136/74/136 20/87/20 19/85/19 134/71/134 
f 138/76/138 21/88/21 20/87/20 136/74/136 
f 140/78/140 39/89/39 21/88/21 138/76/138 
f 142/80/142 73/90/73 39/89/39 140/78/140 
f 144/82/144 72/91/72 73/90/73 142/80/142 
f 132/68/132 75/84/75 72/91/72 144/82/144 
# 132 polygons - 6 triangles

