# 3ds Max Wavefront OBJ Exporter v0.97b - (c)2007 guruware
# File Created: 01.03.2021 09:38:05

mtllib Balcon_01.mtl

#
# object Balcon_01
#

v  -3.0594 0.1230 2.5585
v  3.0594 0.1230 2.5585
v  3.0594 0.4465 2.5585
v  -3.0594 0.4465 2.5585
v  -2.9456 0.1230 -0.4024
v  2.9456 0.1230 -0.4024
v  2.9456 0.1230 2.4447
v  -2.9456 0.1230 2.4447
v  3.0594 0.1230 -0.4059
v  3.0594 0.4465 -0.4059
v  2.6031 0.2005 -0.3918
v  -2.6031 0.2005 -0.3918
v  -2.6031 0.2005 2.1022
v  2.6031 0.2005 2.1022
v  -3.0594 1.4174 -0.4059
v  -3.0594 1.1248 -0.4059
v  -3.0594 1.1248 2.5585
v  -3.0594 1.4174 2.5585
v  -2.9456 1.4174 -0.4024
v  -2.9456 1.4174 2.4447
v  -2.6031 1.4174 2.1022
v  -2.6031 1.4174 -0.3918
v  2.9456 1.4174 2.4447
v  2.6031 1.4174 2.1022
v  2.9456 1.4174 -0.4024
v  2.6031 1.4174 -0.3918
v  -2.6031 1.1636 2.1022
v  -2.6031 1.1636 -0.3918
v  2.6031 1.1636 2.1022
v  2.6031 1.1636 -0.3918
v  3.0594 1.1248 2.5585
v  3.0594 1.4174 2.5585
v  3.0594 1.1248 -0.4059
v  3.0594 1.4174 -0.4059
v  -2.9456 1.1248 -0.4024
v  -2.9456 0.4465 -0.4024
v  -2.9456 0.4465 2.4447
v  -2.9456 1.1248 2.4447
v  -2.6031 0.5047 2.1022
v  -2.6031 0.5047 -0.3918
v  2.6031 0.5047 2.1022
v  2.6031 0.5047 -0.3918
v  2.9456 1.1248 2.4447
v  2.9456 1.1248 -0.4024
v  2.9456 0.4465 2.4447
v  2.9456 0.4465 -0.4024
v  -3.0594 0.4465 -0.4059
v  -3.0594 0.1230 -0.4059
v  -2.3027 0.1511 0.7156
v  -2.3027 0.1511 -0.4401
v  -1.9945 0.1511 -0.4401
v  -1.9945 0.1511 0.7156
v  -2.3027 5.4353 0.7156
v  -1.9945 5.4353 0.7156
v  -1.9945 5.4353 -0.4401
v  -2.3027 5.4353 -0.4401
v  0.0089 0.1511 -0.4401
v  0.0089 0.1511 0.7156
v  0.0089 5.4353 0.7156
v  0.0089 5.4353 -0.4401
v  2.3206 0.1511 0.7156
v  2.0124 0.1511 0.7156
v  2.0124 0.1511 -0.4401
v  2.3206 0.1511 -0.4401
v  2.3206 5.4353 0.7156
v  2.3206 5.4353 -0.4401
v  2.0124 5.4353 -0.4401
v  2.0124 5.4353 0.7156
v  -2.6600 4.8397 -0.8716
v  -2.6600 5.1632 -0.8716
v  2.6600 5.1632 -0.8716
v  2.6600 4.8397 -0.8716
v  -2.6600 4.8397 1.8008
v  2.6600 4.8397 1.8008
v  2.6600 5.1632 1.8008
v  -2.6600 5.1632 1.8008
v  -2.5610 4.8397 -0.7577
v  2.5610 4.8397 -0.7577
v  2.5610 4.8397 1.6869
v  -2.5610 4.8397 1.6869
v  -2.6600 6.1342 -0.8716
v  -2.6600 5.8415 -0.8716
v  -2.6600 5.8415 1.8008
v  -2.6600 6.1342 1.8008
v  2.5610 6.1342 -0.7577
v  -2.5610 6.1342 -0.7577
v  0.0000 6.1342 0.4646
v  -2.5610 6.1342 1.6869
v  2.5610 6.1342 1.6869
v  2.6600 6.1342 -0.8716
v  2.6600 5.8415 -0.8716
v  2.6600 5.8415 1.8008
v  2.6600 6.1342 1.8008
v  -2.5610 5.8415 -0.7577
v  -2.5610 5.1632 -0.7577
v  -2.5610 5.1632 1.6869
v  -2.5610 5.8415 1.6869
v  2.5610 5.8415 -0.7577
v  2.5610 5.8415 1.6869
v  2.5610 5.1632 -0.7577
v  2.5610 5.1632 1.6869
# 101 vertices

vn -0.5773 -0.5774 0.5773
vn 0.5773 -0.5774 0.5773
vn 0.5774 0.5773 0.5774
vn -0.5774 0.5773 0.5774
vn -0.0000 -1.0000 -0.0000
vn 0.0000 -1.0000 -0.0000
vn 0.7141 -0.7000 -0.0000
vn 0.7141 0.7000 0.0000
vn -0.7071 0.7071 0.0000
vn 0.7071 0.7071 0.0000
vn 0.5774 0.5774 -0.5774
vn -0.5774 0.5774 -0.5774
vn -0.7141 0.7000 0.0000
vn -0.7141 -0.7000 -0.0000
vn -0.5774 -0.5774 0.5774
vn -0.5774 0.5774 0.5774
vn 0.0000 1.0000 0.0000
vn -0.0000 1.0000 0.0000
vn 0.3015 0.9045 -0.3015
vn 0.7002 0.7140 0.0000
vn -0.3015 0.9045 -0.3015
vn -0.7002 0.7140 0.0000
vn 0.7071 0.0000 -0.7071
vn 1.0000 0.0000 -0.0000
vn -0.7071 0.0000 -0.7071
vn -1.0000 0.0000 -0.0000
vn 0.5774 -0.5774 0.5774
vn 0.5774 0.5774 0.5774
vn -0.7002 -0.7140 -0.0000
vn -0.3015 0.9045 0.3015
vn -0.3015 -0.9045 0.3015
vn 0.3015 -0.9045 0.3015
vn 0.7002 -0.7140 -0.0000
vn 0.3015 0.9045 0.3015
vn -0.7071 -0.7071 -0.0000
vn 0.0000 -0.7071 0.7071
vn 0.0000 0.7071 0.7071
vn 0.7071 -0.7071 -0.0000
vn -0.5774 -0.5774 -0.5774
vn 0.5774 -0.5774 -0.5774
vn -0.3015 -0.9045 -0.3015
vn 0.3015 -0.9045 -0.3015
# 42 vertex normals

vt 0.0000 0.0000 0.0000
vt 1.0000 0.0000 0.0000
vt 1.0000 0.2500 0.0000
vt 0.0000 0.2500 0.0000
vt 1.0000 1.0000 0.0000
vt 0.0000 1.0000 0.0000
vt 0.2500 0.0000 0.0000
vt 0.2500 1.0000 0.0000
vt 0.5000 0.0000 0.0000
vt 0.5000 1.0000 0.0000
vt 1.0000 0.5000 0.0000
vt 0.0000 0.5000 0.0000
vt 0.7500 0.0000 0.0000
vt 0.7500 1.0000 0.0000
vt 0.5000 0.5000 0.0000
# 15 texture coords

o Balcon_01
g Balcon_01
usemtl wire_176026026
s 4
f 1/1/1 2/2/2 3/3/3 4/4/4 
s 8
f 5/1/5 6/2/6 7/5/5 8/6/6 
s 16
f 9/1/7 10/7/8 3/8/3 2/6/2 
s 32
f 11/1/9 12/2/10 13/5/11 14/6/12 
s 64
f 15/1/13 16/9/14 17/10/15 18/6/16 
s off
f 19/2/17 20/5/18 21/5/19 22/2/20 
f 20/5/18 23/6/17 24/6/21 21/5/19 
f 23/6/17 25/1/18 26/1/22 24/6/21 
f 22/2/20 21/5/19 27/5/23 28/2/24 
f 21/5/19 24/6/21 29/6/25 27/5/23 
f 24/6/21 26/1/22 30/1/26 29/6/25 
s 4
f 31/11/27 32/5/28 18/6/16 17/12/15 
s 16
f 33/9/7 34/2/8 32/5/28 31/10/27 
s 64
f 35/9/29 36/13/22 37/14/30 38/10/31 
s off
f 27/5/23 39/5/23 40/2/24 28/2/24 
f 29/6/25 41/6/25 39/5/23 27/5/23 
f 30/1/26 42/1/26 41/6/25 29/6/25 
f 25/2/18 23/5/17 32/5/28 34/2/8 
f 23/5/17 20/6/18 18/6/16 32/5/28 
f 20/6/18 19/1/17 15/1/13 18/6/16 
f 35/9/29 38/10/31 17/10/15 16/9/14 
f 38/12/31 43/11/32 31/11/27 17/12/15 
f 43/10/32 44/9/33 33/9/7 31/10/27 
s 4
f 45/3/34 43/11/32 38/12/31 37/4/30 
s 16
f 46/7/20 44/9/33 43/10/32 45/8/34 
s 64
f 47/13/13 48/2/14 1/5/1 4/14/4 
s off
f 39/5/23 13/5/11 12/2/10 40/2/24 
f 41/6/25 14/6/12 13/5/11 39/5/23 
f 42/1/26 11/1/9 14/6/12 41/6/25 
f 5/2/5 8/5/6 1/5/1 48/2/14 
f 8/1/6 7/2/5 2/2/2 1/1/1 
f 7/6/5 6/1/6 9/1/7 2/6/2 
f 46/7/20 45/8/34 3/8/3 10/7/8 
f 45/3/34 37/4/30 4/4/4 3/3/3 
f 37/14/30 36/13/22 47/13/13 4/14/4 
s 2
f 49/2/15 50/5/35 51/14/6 52/13/36 
s 4
f 53/1/16 54/7/37 55/8/17 56/6/9 
s 8
f 49/1/15 52/7/36 54/8/37 53/6/16 
s 64
f 50/1/35 49/2/15 53/5/16 56/6/9 
s 2
f 51/14/6 57/10/5 58/9/36 52/13/36 
s 4
f 54/7/37 59/9/37 60/10/17 55/8/17 
s 8
f 52/7/36 58/9/36 59/10/37 54/8/37 
s 2
f 61/2/27 62/13/36 63/14/5 64/5/38 
s 4
f 65/1/28 66/6/10 67/8/17 68/7/37 
s 8
f 61/1/27 65/6/28 68/8/37 62/7/36 
s 64
f 64/1/38 66/6/10 65/5/28 61/2/27 
s 2
f 63/14/5 62/13/36 58/9/36 57/10/5 
s 4
f 68/7/37 67/8/17 60/10/17 59/9/37 
s 8
f 62/7/36 68/8/37 59/10/37 58/9/36 
s 2
f 69/2/39 70/3/12 71/4/11 72/1/40 
s 4
f 73/1/1 74/2/2 75/3/3 76/4/4 
s 8
f 77/1/6 78/2/6 79/5/5 80/6/6 
s 16
f 72/1/40 71/7/11 75/8/3 74/6/2 
s 64
f 81/1/12 82/9/39 83/10/15 84/6/16 
s off
f 85/1/18 86/2/17 87/15/17 
f 86/2/17 88/5/17 87/15/17 
f 88/5/17 89/6/18 87/15/17 
f 89/6/18 85/1/18 87/15/17 
s 2
f 82/11/39 81/5/12 90/6/11 91/12/40 
s 4
f 92/11/27 93/5/28 84/6/16 83/12/15 
s 16
f 91/9/40 90/2/11 93/5/28 92/10/27 
s 64
f 94/9/41 95/13/21 96/14/30 97/10/31 
s off
f 86/5/17 85/6/18 90/6/11 81/5/12 
f 85/2/18 89/5/18 93/5/28 90/2/11 
f 89/5/18 88/6/17 84/6/16 93/5/28 
f 88/6/17 86/1/17 81/1/12 84/6/16 
f 98/12/42 94/11/41 82/11/39 91/12/40 
f 94/9/41 97/10/31 83/10/15 82/9/39 
f 97/12/31 99/11/32 92/11/27 83/12/15 
f 99/10/32 98/9/42 91/9/40 92/10/27 
s 2
f 95/3/21 94/11/41 98/12/42 100/4/19 
s 4
f 101/3/34 99/11/32 97/12/31 96/4/30 
s 16
f 100/7/19 98/9/42 99/10/32 101/8/34 
s 64
f 70/13/12 69/2/39 73/5/1 76/14/4 
s off
f 78/1/6 77/2/6 69/2/39 72/1/40 
f 77/2/6 80/5/6 73/5/1 69/2/39 
f 80/1/6 79/2/5 74/2/2 73/1/1 
f 79/6/5 78/1/6 72/1/40 74/6/2 
f 95/3/21 100/4/19 71/4/11 70/3/12 
f 100/7/19 101/8/34 75/8/3 71/7/11 
f 101/3/34 96/4/30 76/4/4 75/3/3 
f 96/14/30 95/13/21 70/13/12 76/14/4 
# 78 polygons - 4 triangles

