# 3ds Max Wavefront OBJ Exporter v0.97b - (c)2007 guruware
# File Created: 02.03.2021 00:07:12

mtllib M_Stone_11_Low.mtl

#
# object M_Stone_11_Loww
#

v  1.6688 1.9019 -0.2665
v  1.6102 0.9668 -1.0329
v  0.8411 2.6390 -0.7834
v  -0.3699 1.6017 1.5337
v  -0.0779 0.9476 1.2729
v  0.6880 1.9792 0.9859
v  1.8022 1.4953 0.1035
v  1.2237 0.9390 0.6561
v  1.3389 0.4657 -0.1856
v  -0.2612 0.5821 1.1940
v  -0.7156 0.1823 0.4846
v  -0.2003 0.2451 0.0999
v  -0.2066 0.2574 -1.1282
v  -0.8713 0.5355 -1.1969
v  -0.4582 0.5828 -1.6139
v  -0.6414 2.2664 0.2669
v  0.1807 2.1086 1.0072
v  -1.2796 0.4842 1.3296
v  -1.3858 0.0833 0.7757
v  -0.4903 0.3094 1.4984
v  -1.5125 1.4117 0.2435
v  -1.8605 0.5411 0.5722
v  -1.7588 0.8096 1.1260
v  0.1028 2.3231 -1.5132
v  0.8687 0.9433 -1.5955
v  -0.5382 1.0071 -1.8587
v  -0.7296 0.7901 -1.5897
v  -1.1917 1.9942 -0.4421
v  -0.7148 2.3706 -1.0519
v  -0.0974 2.7008 -0.3696
v  1.1641 2.6033 -0.0020
v  0.5630 2.6661 -1.0499
v  1.4416 2.2329 0.3150
v  0.1814 0.5237 -1.6978
v  1.8606 1.2563 -0.4342
v  1.5288 0.6409 -0.5201
v  0.5091 0.6787 0.7484
v  -1.3249 1.2250 1.4077
v  -0.5670 1.1178 1.8587
v  0.3777 0.1597 -0.9531
v  0.6995 0.5651 -1.6787
v  -1.0961 0.3675 -0.4046
v  0.5799 0.1049 -0.3347
v  1.0966 0.5085 0.4031
v  -0.3302 2.5384 -0.0478
v  -1.3135 0.7564 -0.2501
v  -1.4017 0.1326 0.2361
v  0.5468 2.3484 0.6809
v  -0.9785 0.0249 0.6491
v  -0.9607 1.2884 1.7237
# 50 vertices

vn 0.8599 0.4575 -0.2264
vn 0.8049 -0.1736 -0.5675
vn 0.4756 0.7936 -0.3795
vn 0.1374 0.5657 0.8131
vn 0.6045 -0.2449 0.7581
vn 0.4285 0.3443 0.8354
vn 0.9218 0.0072 0.3877
vn 0.6318 -0.3024 0.7137
vn 0.6410 -0.7565 0.1295
vn 0.6757 -0.6782 0.2888
vn 0.3043 -0.9491 -0.0807
vn 0.0539 -0.9873 0.1495
vn -0.1765 -0.9429 -0.2823
vn -0.7177 -0.5449 -0.4336
vn -0.3018 -0.6953 -0.6523
vn -0.4779 0.8114 0.3366
vn -0.0333 0.7700 0.6372
vn -0.4491 -0.5103 0.7334
vn -0.4364 -0.8627 0.2554
vn 0.3655 -0.7201 0.5898
vn -0.9024 0.4189 -0.1011
vn -0.9656 -0.2421 -0.0947
vn -0.8757 0.0267 0.4821
vn 0.0480 0.5714 -0.8193
vn 0.4589 0.1353 -0.8781
vn -0.4108 -0.0224 -0.9115
vn -0.7597 -0.2553 -0.5981
vn -0.8536 0.4938 -0.1657
vn -0.6006 0.6748 -0.4289
vn -0.2149 0.9742 0.0682
vn 0.4581 0.8776 0.1410
vn 0.3697 0.7391 -0.5631
vn 0.7121 0.5114 0.4810
vn 0.0013 -0.6416 -0.7671
vn 0.9898 -0.0641 -0.1274
vn 0.7280 -0.6800 -0.0873
vn 0.1257 -0.8706 0.4756
vn -0.6533 0.5494 0.5209
vn 0.2043 0.0136 0.9788
vn 0.1306 -0.9627 -0.2369
vn 0.3614 -0.4941 -0.7907
vn -0.5458 -0.7697 -0.3312
vn 0.1760 -0.9813 0.0776
vn 0.4570 -0.7382 0.4961
vn -0.3646 0.8909 0.2710
vn -0.8768 -0.1081 -0.4685
vn -0.4332 -0.8171 -0.3804
vn 0.0980 0.8305 0.5483
vn 0.1656 -0.9847 -0.0536
vn -0.4456 0.4289 0.7858
# 50 vertex normals

vt 0.0000 0.0000 0.0000
# 1 texture coords

o M_Stone_11_Loww
g M_Stone_11_Loww
usemtl S_Stone_04_Low_default
s 1
f 1/1/1 2/1/2 3/1/3 
f 4/1/4 5/1/5 6/1/6 
f 7/1/7 8/1/8 9/1/9 
f 10/1/10 11/1/11 12/1/12 
f 13/1/13 14/1/14 15/1/15 
f 16/1/16 4/1/4 17/1/17 
f 18/1/18 19/1/19 20/1/20 
f 21/1/21 22/1/22 23/1/23 
f 24/1/24 25/1/25 26/1/26 
f 27/1/27 14/1/14 28/1/28 
f 29/1/29 24/1/24 26/1/26 
f 30/1/30 31/1/31 32/1/32 
f 33/1/33 8/1/8 7/1/7 
f 31/1/31 1/1/1 3/1/3 
f 34/1/34 13/1/13 15/1/15 
f 35/1/35 36/1/36 2/1/2 
f 37/1/37 10/1/10 12/1/12 
f 6/1/6 5/1/5 8/1/8 
f 16/1/16 38/1/38 4/1/4 
f 39/1/39 18/1/18 20/1/20 
f 32/1/32 29/1/29 30/1/30 
f 16/1/16 28/1/28 38/1/38 
f 36/1/36 40/1/40 41/1/41 
f 12/1/12 42/1/42 13/1/13 
f 22/1/22 19/1/19 23/1/23 
f 42/1/42 12/1/12 11/1/11 
f 2/1/2 36/1/36 41/1/41 
f 2/1/2 25/1/25 24/1/24 
f 43/1/43 40/1/40 9/1/9 
f 9/1/9 44/1/44 43/1/43 
f 39/1/39 20/1/20 5/1/5 
f 20/1/20 11/1/11 10/1/10 
f 29/1/29 27/1/27 28/1/28 
f 29/1/29 28/1/28 45/1/45 
f 17/1/17 4/1/4 6/1/6 
f 8/1/8 33/1/33 6/1/6 
f 28/1/28 14/1/14 46/1/46 
f 46/1/46 42/1/42 47/1/47 
f 6/1/6 33/1/33 48/1/48 
f 30/1/30 48/1/48 31/1/31 
f 42/1/42 11/1/11 47/1/47 
f 20/1/20 19/1/19 49/1/49 
f 2/1/2 24/1/24 3/1/3 
f 32/1/32 24/1/24 29/1/29 
f 43/1/43 12/1/12 13/1/13 
f 37/1/37 12/1/12 43/1/43 
f 18/1/18 39/1/39 50/1/50 
f 21/1/21 23/1/23 38/1/38 
f 5/1/5 44/1/44 8/1/8 
f 8/1/8 44/1/44 9/1/9 
f 25/1/25 2/1/2 41/1/41 
f 41/1/41 26/1/26 25/1/25 
f 48/1/48 30/1/30 45/1/45 
f 30/1/30 29/1/29 45/1/45 
f 47/1/47 49/1/49 19/1/19 
f 22/1/22 47/1/47 19/1/19 
f 33/1/33 7/1/7 1/1/1 
f 35/1/35 7/1/7 9/1/9 
f 46/1/46 47/1/47 22/1/22 
f 46/1/46 22/1/22 21/1/21 
f 44/1/44 37/1/37 43/1/43 
f 5/1/5 37/1/37 44/1/44 
f 28/1/28 21/1/21 38/1/38 
f 21/1/21 28/1/28 46/1/46 
f 20/1/20 10/1/10 5/1/5 
f 37/1/37 5/1/5 10/1/10 
f 26/1/26 34/1/34 15/1/15 
f 29/1/29 26/1/26 27/1/27 
f 1/1/1 7/1/7 35/1/35 
f 1/1/1 35/1/35 2/1/2 
f 4/1/4 50/1/50 39/1/39 
f 39/1/39 5/1/5 4/1/4 
f 46/1/46 14/1/14 42/1/42 
f 14/1/14 13/1/13 42/1/42 
f 32/1/32 3/1/3 24/1/24 
f 32/1/32 31/1/31 3/1/3 
f 23/1/23 18/1/18 50/1/50 
f 23/1/23 19/1/19 18/1/18 
f 34/1/34 40/1/40 13/1/13 
f 43/1/43 13/1/13 40/1/40 
f 48/1/48 33/1/33 31/1/31 
f 31/1/31 33/1/33 1/1/1 
f 38/1/38 23/1/23 50/1/50 
f 50/1/50 4/1/4 38/1/38 
f 41/1/41 34/1/34 26/1/26 
f 34/1/34 41/1/41 40/1/40 
f 49/1/49 11/1/11 20/1/20 
f 47/1/47 11/1/11 49/1/49 
f 45/1/45 16/1/16 17/1/17 
f 45/1/45 28/1/28 16/1/16 
f 35/1/35 9/1/9 36/1/36 
f 9/1/9 40/1/40 36/1/36 
f 26/1/26 15/1/15 27/1/27 
f 15/1/15 14/1/14 27/1/27 
f 17/1/17 6/1/6 48/1/48 
f 17/1/17 48/1/48 45/1/45 
# 0 polygons - 96 triangles

