# 3ds Max Wavefront OBJ Exporter v0.97b - (c)2007 guruware
# File Created: 02.03.2021 00:06:58

mtllib M_Stone_09_Low.mtl

#
# object M_Stone_09_Low
#

v  -0.3782 3.7477 -0.0045
v  -0.8039 3.4802 -0.3936
v  -1.0941 3.4159 0.1234
v  1.8745 1.8645 -0.7860
v  1.9398 2.8970 -0.8655
v  1.8773 2.7114 -0.4371
v  0.1600 1.0491 -1.6780
v  -1.0323 1.4341 -0.9581
v  -0.5936 1.9475 -1.2616
v  0.6669 1.8486 1.6223
v  0.3250 0.6649 1.4023
v  0.9056 1.5092 1.4070
v  -1.5298 1.9750 0.7733
v  -0.9980 1.3690 1.6424
v  -0.9534 2.9237 1.6604
v  0.2481 0.0732 -1.3390
v  0.4339 0.0015 -0.3163
v  -0.3293 0.0418 -1.0038
v  1.6858 0.9778 -1.1360
v  1.3200 0.0443 -0.2113
v  -1.1441 3.0604 -0.9113
v  -1.3589 2.7496 -0.7623
v  -1.3546 0.5120 1.0966
v  -1.5469 1.1147 0.7419
v  -1.5768 0.3742 0.6278
v  -0.6764 2.8162 1.6845
v  -0.1835 1.0901 1.6556
v  0.0880 2.2568 1.6576
v  1.8305 2.7637 -0.2703
v  1.7733 3.2476 -1.0629
v  1.3206 3.0839 -0.3774
v  1.1534 3.7834 -1.3081
v  0.8799 3.5105 -0.6869
v  1.0218 2.0181 -1.3975
v  0.8644 3.7012 1.4748
v  0.8065 3.2786 0.4261
v  0.4330 3.5701 0.6662
v  0.6651 2.4955 1.6502
v  1.2167 1.9745 1.1312
v  1.7735 2.7258 0.6475
v  -1.1332 3.4499 0.6763
v  -0.4461 3.7575 0.4532
v  -0.2664 3.9140 1.6952
v  -0.2677 3.8116 0.9593
v  -0.7909 0.0287 0.4454
v  -1.4465 0.3532 0.7394
v  -1.6080 0.2949 0.4597
v  -0.4735 0.4801 1.6527
v  -1.2654 3.2256 -0.5253
v  -1.7902 3.1046 0.2326
v  0.2799 2.8759 -1.6526
v  0.1235 3.4713 -1.6515
v  0.5659 3.9221 -1.5055
v  0.7416 3.7711 1.5983
v  1.2371 3.2921 1.1370
v  0.6159 3.8207 1.6766
v  0.0339 3.2338 1.6729
v  1.8353 1.1982 -0.0656
v  0.8952 0.0708 1.0038
v  -0.0104 -0.0081 0.6013
v  0.0999 0.0827 1.2410
v  -1.5942 3.2330 0.5454
v  -1.1849 3.1854 1.2639
v  -1.8542 2.9003 0.1707
v  -1.1326 3.1609 -0.8721
v  1.8719 0.2150 -0.4147
v  0.8634 0.1564 -1.3487
v  1.6350 0.3272 -1.0431
v  1.7416 2.1928 -1.0661
v  1.4244 0.3389 -1.2266
v  0.3405 0.2497 -1.6032
v  0.2744 1.0340 -1.6831
v  0.2711 0.4830 -1.6390
v  -0.8148 0.8305 -1.0172
v  -0.8781 0.0667 -0.6729
v  -0.8996 0.0262 0.2761
v  -1.6861 0.3179 -0.2214
v  -1.6523 0.8296 -0.4022
v  -1.8733 1.4663 -0.1142
v  1.3461 2.9040 0.2494
v  0.4895 3.4450 0.0693
v  1.7705 1.1363 0.5836
v  1.8092 2.5566 0.3939
v  -1.5398 2.5500 -0.6101
v  -1.7402 1.8648 -0.3420
v  -1.9273 2.3267 -0.1362
v  -1.9241 2.5762 0.0509
v  1.2706 0.1056 0.7966
v  1.8163 0.1272 -0.1433
v  1.7591 0.8948 0.5216
v  -1.5791 0.3015 -0.3613
v  -0.8113 0.0871 -0.7819
v  -0.2249 3.7034 0.3728
v  0.4135 3.5731 -0.3322
v  0.3494 3.8251 -1.0395
v  -0.2039 3.7179 -0.0656
v  -1.3625 1.9523 -0.7105
v  1.2523 2.9609 0.0018
v  0.7219 3.3871 -0.2472
v  -1.2675 0.4495 1.1258
v  0.6562 3.6493 -0.7702
v  0.0730 3.7285 -1.1808
v  -0.6964 3.3688 -0.9372
v  -0.0996 3.8098 -0.6380
v  -1.3063 0.7784 1.1917
v  -0.7573 0.5325 1.6673
v  1.0957 1.1202 -1.3807
v  0.1340 2.1663 -1.6967
v  -1.7885 0.3575 0.1095
v  -1.8632 1.0716 0.2137
v  -1.9398 2.1495 -0.0360
v  -1.8347 2.1174 0.1979
v  1.8874 0.8618 -0.5541
v  -0.4574 3.8329 1.0571
v  -1.2860 3.3079 1.0240
v  -0.7832 3.5787 1.6967
v  -0.6700 -0.0041 -0.1081
v  -0.6240 -0.0194 0.3628
v  0.3134 0.0480 1.2242
v  0.2935 1.7976 -1.6799
v  -0.0493 0.0864 -1.2559
v  1.8252 0.7457 0.2004
v  -0.9058 2.8269 1.6889
v  -0.9625 3.4484 1.5999
v  0.3265 3.5181 0.2989
v  1.6072 0.5578 -1.1631
v  0.1598 3.8023 1.2986
v  1.5678 2.9239 0.7597
v  0.3856 0.1623 -1.5471
v  1.7657 2.7054 0.0902
v  1.7298 2.7343 0.3522
v  -0.6765 0.3040 1.1603
v  -0.6337 0.4623 1.6873
v  -0.8844 1.2815 1.6951
v  1.9219 3.0548 -0.9129
v  1.4099 0.5495 0.9233
v  -0.7123 3.6707 0.8088
v  -1.7412 0.3160 0.3064
v  -0.8112 3.1925 -1.1237
v  -0.0765 3.5509 -1.3226
v  -0.2656 3.3167 -1.4300
v  -0.0184 3.2762 -1.6072
v  0.5856 0.1002 -1.3376
v  1.5665 0.0689 0.1058
v  -0.0095 3.6757 0.5751
v  -0.8915 3.4378 1.6706
# 146 vertices

vn -0.1524 0.9881 -0.0217
vn -0.4419 0.8773 -0.1875
vn -0.4237 0.8993 -0.1079
vn 0.9895 -0.0495 -0.1359
vn 0.9852 0.0231 -0.1696
vn 0.9861 0.0807 0.1450
vn -0.3086 -0.0783 -0.9480
vn -0.5835 -0.0688 -0.8092
vn -0.5309 -0.0209 -0.8472
vn 0.3680 -0.0861 0.9258
vn 0.3546 -0.2635 0.8971
vn 0.5461 -0.1417 0.8256
vn -0.8648 0.0268 0.5014
vn -0.6586 -0.0321 0.7518
vn -0.6811 0.0344 0.7314
vn -0.0411 -0.9553 -0.2926
vn 0.0335 -0.9987 -0.0376
vn -0.1553 -0.9497 -0.2721
vn 0.7233 -0.0490 -0.6887
vn 0.1176 -0.9908 -0.0678
vn -0.6679 0.1876 -0.7202
vn -0.7141 0.1473 -0.6844
vn -0.7638 -0.3179 0.5617
vn -0.8725 -0.0141 0.4884
vn -0.7522 -0.4383 0.4920
vn 0.0243 -0.0079 0.9997
vn 0.0670 -0.0213 0.9975
vn 0.0305 -0.0176 0.9994
vn 0.7410 0.6155 0.2685
vn 0.7314 0.5801 -0.3586
vn 0.4447 0.7994 0.4040
vn 0.5500 0.7498 -0.3677
vn 0.4060 0.8000 0.4418
vn 0.3779 0.0182 -0.9257
vn 0.6993 0.6874 0.1963
vn 0.5059 0.8363 -0.2116
vn 0.3461 0.8971 -0.2746
vn 0.3706 -0.0230 0.9285
vn 0.6779 -0.0214 0.7348
vn 0.8831 0.3415 0.3217
vn -0.4522 0.8915 0.0268
vn -0.1455 0.9841 -0.1020
vn -0.1245 0.7713 0.6242
vn 0.1428 0.9766 -0.1606
vn -0.2399 -0.9361 0.2573
vn -0.3799 -0.8393 0.3889
vn -0.4431 -0.8361 0.3234
vn 0.2521 -0.2752 0.9277
vn -0.5580 0.7751 -0.2965
vn -0.8390 0.5432 0.0327
vn 0.2395 0.0343 -0.9703
vn -0.2477 0.3708 -0.8951
vn 0.0789 0.8073 -0.5848
vn 0.6060 0.6828 0.4080
vn 0.8090 0.5187 0.2765
vn 0.3254 0.7171 0.6164
vn 0.0169 -0.0176 0.9997
vn 0.9964 0.0092 0.0845
vn 0.2869 -0.7650 0.5766
vn 0.0181 -0.9985 0.0526
vn -0.1522 -0.9057 0.3957
vn -0.7578 0.5955 0.2668
vn -0.8642 0.0969 0.4938
vn -0.9726 0.2254 0.0566
vn -0.6317 0.5784 -0.5162
vn 0.8208 -0.5444 -0.1730
vn 0.2889 -0.7916 -0.5383
vn 0.6806 -0.5620 -0.4701
vn 0.5690 0.0063 -0.8223
vn 0.4359 -0.4573 -0.7752
vn -0.0817 -0.3570 -0.9305
vn 0.1489 -0.0422 -0.9880
vn -0.1792 -0.1699 -0.9690
vn -0.5520 -0.1668 -0.8170
vn -0.3036 -0.9234 -0.2350
vn -0.2599 -0.9635 0.0648
vn -0.7366 -0.6015 -0.3093
vn -0.7537 -0.1052 -0.6488
vn -0.9500 -0.0837 -0.3009
vn 0.4795 0.8715 -0.1028
vn 0.4370 0.8941 0.0979
vn 0.8959 -0.0410 0.4423
vn 0.9914 0.1058 0.0765
vn -0.7490 0.1358 -0.6485
vn -0.7392 -0.0334 -0.6727
vn -0.9176 0.1093 -0.3821
vn -0.9826 0.1854 0.0142
vn 0.5037 -0.7245 0.4706
vn 0.7136 -0.6939 0.0969
vn 0.8923 -0.2013 0.4040
vn -0.6159 -0.5667 -0.5472
vn -0.4244 -0.6777 -0.6005
vn 0.2630 0.9625 -0.0667
vn 0.3611 0.8890 0.2815
vn 0.2220 0.9260 0.3053
vn 0.2666 0.9525 0.1473
vn -0.6610 -0.0495 -0.7487
vn 0.4885 0.8555 0.1717
vn 0.4775 0.8239 0.3053
vn -0.4758 -0.7255 0.4973
vn 0.2871 0.8783 0.3824
vn -0.5112 0.7925 -0.3324
vn -0.4658 0.8108 -0.3544
vn -0.2035 0.9783 -0.0399
vn -0.7997 -0.0643 0.5970
vn -0.4594 -0.3537 0.8148
vn 0.3645 -0.0090 -0.9312
vn -0.1870 0.0070 -0.9823
vn -0.8732 -0.4851 -0.0475
vn -0.9700 -0.0582 0.2361
vn -0.9965 -0.0335 0.0761
vn -0.8905 0.0158 0.4548
vn 0.9909 -0.0422 -0.1282
vn -0.2966 0.9533 -0.0566
vn -0.7316 0.5999 0.3239
vn -0.4172 0.5326 0.7364
vn -0.1025 -0.9937 -0.0456
vn -0.1017 -0.9908 0.0890
vn 0.1749 -0.7826 0.5975
vn 0.2373 0.0093 -0.9714
vn -0.3137 -0.7610 -0.5679
vn 0.9828 -0.0663 0.1724
vn -0.2565 0.0038 0.9665
vn -0.7696 0.4219 0.4792
vn 0.3589 0.9246 -0.1279
vn 0.6546 -0.1236 -0.7458
vn 0.1603 0.9662 -0.2019
vn 0.5716 0.7914 -0.2168
vn 0.0443 -0.7076 -0.7052
vn 0.5994 0.7865 0.1485
vn 0.4607 0.8836 -0.0838
vn -0.2674 -0.8961 0.3543
vn -0.1331 -0.5481 0.8258
vn -0.2331 -0.0449 0.9714
vn 0.9038 0.4032 -0.1432
vn 0.6643 -0.2655 0.6987
vn -0.4799 0.8758 -0.0523
vn -0.7513 -0.6147 0.2403
vn -0.5490 0.4169 -0.7244
vn -0.5184 0.7164 -0.4669
vn -0.5248 0.4859 -0.6989
vn -0.4643 0.0943 -0.8806
vn 0.1286 -0.9563 -0.2627
vn 0.2553 -0.9611 0.1059
vn 0.2650 0.9451 -0.1913
vn -0.5229 0.1556 0.8381
# 146 vertex normals

vt 0.0000 0.0000 0.0000
# 1 texture coords

o M_Stone_09_Low
g M_Stone_09_Low
usemtl M_Stone_08_Low_default
s 1
f 1/1/1 2/1/2 3/1/3 
f 4/1/4 5/1/5 6/1/6 
f 7/1/7 8/1/8 9/1/9 
f 10/1/10 11/1/11 12/1/12 
f 13/1/13 14/1/14 15/1/15 
f 16/1/16 17/1/17 18/1/18 
f 4/1/4 19/1/19 5/1/5 
f 17/1/17 16/1/16 20/1/20 
f 21/1/21 8/1/8 22/1/22 
f 23/1/23 24/1/24 25/1/25 
f 26/1/26 27/1/27 28/1/28 
f 29/1/29 30/1/30 31/1/31 
f 30/1/30 32/1/32 33/1/33 
f 34/1/34 32/1/32 30/1/30 
f 35/1/35 36/1/36 37/1/37 
f 38/1/38 39/1/39 40/1/40 
f 3/1/3 41/1/41 42/1/42 
f 43/1/43 44/1/44 42/1/42 
f 45/1/45 46/1/46 47/1/47 
f 11/1/11 10/1/10 48/1/48 
f 49/1/49 50/1/50 2/1/2 
f 51/1/51 52/1/52 53/1/53 
f 54/1/54 38/1/38 55/1/55 
f 28/1/28 56/1/56 57/1/57 
f 6/1/6 58/1/58 4/1/4 
f 20/1/20 59/1/59 60/1/60 
f 46/1/46 45/1/45 61/1/61 
f 20/1/20 60/1/60 17/1/17 
f 62/1/62 13/1/13 63/1/63 
f 64/1/64 65/1/65 22/1/22 
f 66/1/66 67/1/67 68/1/68 
f 69/1/69 19/1/19 34/1/34 
f 70/1/70 71/1/71 72/1/72 
f 73/1/73 74/1/74 7/1/7 
f 75/1/75 76/1/76 77/1/77 
f 78/1/78 77/1/77 79/1/79 
f 80/1/80 81/1/81 36/1/36 
f 40/1/40 82/1/82 83/1/83 
f 84/1/84 85/1/85 86/1/86 
f 64/1/64 22/1/22 87/1/87 
f 39/1/39 82/1/82 40/1/40 
f 88/1/88 89/1/89 90/1/90 
f 91/1/91 75/1/75 77/1/77 
f 71/1/71 92/1/92 91/1/91 
f 42/1/42 44/1/44 93/1/93 
f 94/1/94 95/1/95 96/1/96 
f 74/1/74 73/1/73 91/1/91 
f 8/1/8 97/1/97 22/1/22 
f 94/1/94 96/1/96 81/1/81 
f 98/1/98 99/1/99 81/1/81 
f 25/1/25 100/1/100 23/1/23 
f 27/1/27 48/1/48 10/1/10 
f 101/1/101 32/1/32 95/1/95 
f 102/1/102 103/1/103 104/1/104 
f 105/1/105 14/1/14 13/1/13 
f 106/1/106 14/1/14 105/1/105 
f 107/1/107 70/1/70 72/1/72 
f 9/1/9 108/1/108 7/1/7 
f 79/1/79 109/1/109 110/1/110 
f 111/1/111 110/1/110 112/1/112 
f 58/1/58 66/1/66 113/1/113 
f 66/1/66 68/1/68 113/1/113 
f 114/1/114 115/1/115 116/1/116 
f 26/1/26 28/1/28 57/1/57 
f 18/1/18 17/1/17 117/1/117 
f 118/1/118 17/1/17 60/1/60 
f 53/1/53 32/1/32 51/1/51 
f 53/1/53 95/1/95 32/1/32 
f 114/1/114 116/1/116 43/1/43 
f 114/1/114 43/1/43 42/1/42 
f 31/1/31 98/1/98 29/1/29 
f 83/1/83 58/1/58 6/1/6 
f 91/1/91 78/1/78 74/1/74 
f 91/1/91 77/1/77 78/1/78 
f 118/1/118 60/1/60 119/1/119 
f 59/1/59 119/1/119 60/1/60 
f 72/1/72 120/1/120 107/1/107 
f 34/1/34 51/1/51 32/1/32 
f 42/1/42 93/1/93 1/1/1 
f 1/1/1 3/1/3 42/1/42 
f 18/1/18 117/1/117 75/1/75 
f 121/1/121 92/1/92 71/1/71 
f 82/1/82 58/1/58 83/1/83 
f 122/1/122 66/1/66 58/1/58 
f 14/1/14 123/1/123 15/1/15 
f 124/1/124 115/1/115 63/1/63 
f 8/1/8 74/1/74 78/1/78 
f 8/1/8 7/1/7 74/1/74 
f 96/1/96 93/1/93 81/1/81 
f 125/1/125 36/1/36 81/1/81 
f 110/1/110 13/1/13 112/1/112 
f 110/1/110 25/1/25 24/1/24 
f 107/1/107 126/1/126 70/1/70 
f 68/1/68 19/1/19 113/1/113 
f 38/1/38 54/1/54 56/1/56 
f 127/1/127 54/1/54 37/1/37 
f 95/1/95 104/1/104 96/1/96 
f 53/1/53 104/1/104 95/1/95 
f 35/1/35 55/1/55 36/1/36 
f 128/1/128 80/1/80 36/1/36 
f 121/1/121 129/1/129 16/1/16 
f 70/1/70 67/1/67 129/1/129 
f 115/1/115 41/1/41 62/1/62 
f 115/1/115 62/1/62 63/1/63 
f 98/1/98 130/1/130 29/1/29 
f 128/1/128 131/1/131 80/1/80 
f 46/1/46 61/1/61 132/1/132 
f 133/1/133 134/1/134 106/1/106 
f 87/1/87 112/1/112 64/1/64 
f 62/1/62 41/1/41 3/1/3 
f 5/1/5 19/1/19 69/1/69 
f 135/1/135 30/1/30 29/1/29 
f 23/1/23 100/1/100 106/1/106 
f 106/1/106 100/1/100 133/1/133 
f 72/1/72 71/1/71 73/1/73 
f 71/1/71 91/1/91 73/1/73 
f 88/1/88 90/1/90 136/1/136 
f 11/1/11 59/1/59 136/1/136 
f 114/1/114 137/1/137 115/1/115 
f 42/1/42 137/1/137 114/1/114 
f 138/1/138 76/1/76 47/1/47 
f 138/1/138 25/1/25 110/1/110 
f 128/1/128 40/1/40 131/1/131 
f 38/1/38 40/1/40 55/1/55 
f 139/1/139 140/1/140 141/1/141 
f 108/1/108 9/1/9 142/1/142 
f 135/1/135 69/1/69 30/1/30 
f 69/1/69 34/1/34 30/1/30 
f 9/1/9 8/1/8 21/1/21 
f 139/1/139 142/1/142 9/1/9 
f 38/1/38 10/1/10 12/1/12 
f 27/1/27 10/1/10 28/1/28 
f 66/1/66 89/1/89 67/1/67 
f 66/1/66 122/1/122 89/1/89 
f 77/1/77 76/1/76 138/1/138 
f 77/1/77 109/1/109 79/1/79 
f 101/1/101 95/1/95 94/1/94 
f 99/1/99 98/1/98 31/1/31 
f 10/1/10 38/1/38 28/1/28 
f 28/1/28 38/1/38 56/1/56 
f 89/1/89 20/1/20 143/1/143 
f 144/1/144 20/1/20 89/1/89 
f 99/1/99 31/1/31 33/1/33 
f 31/1/31 30/1/30 33/1/33 
f 143/1/143 16/1/16 129/1/129 
f 16/1/16 143/1/143 20/1/20 
f 136/1/136 12/1/12 11/1/11 
f 39/1/39 136/1/136 82/1/82 
f 68/1/68 67/1/67 70/1/70 
f 68/1/68 70/1/70 126/1/126 
f 127/1/127 37/1/37 145/1/145 
f 125/1/125 81/1/81 93/1/93 
f 78/1/78 86/1/86 85/1/85 
f 97/1/97 8/1/8 78/1/78 
f 38/1/38 12/1/12 39/1/39 
f 136/1/136 39/1/39 12/1/12 
f 52/1/52 140/1/140 53/1/53 
f 53/1/53 102/1/102 104/1/104 
f 83/1/83 29/1/29 130/1/130 
f 40/1/40 83/1/83 130/1/130 
f 119/1/119 133/1/133 61/1/61 
f 61/1/61 118/1/118 119/1/119 
f 64/1/64 112/1/112 62/1/62 
f 62/1/62 112/1/112 13/1/13 
f 56/1/56 54/1/54 127/1/127 
f 43/1/43 56/1/56 127/1/127 
f 141/1/141 140/1/140 52/1/52 
f 52/1/52 108/1/108 142/1/142 
f 75/1/75 117/1/117 76/1/76 
f 45/1/45 118/1/118 61/1/61 
f 80/1/80 130/1/130 98/1/98 
f 81/1/81 80/1/80 98/1/98 
f 122/1/122 58/1/58 82/1/82 
f 136/1/136 90/1/90 82/1/82 
f 104/1/104 2/1/2 1/1/1 
f 2/1/2 104/1/104 103/1/103 
f 84/1/84 97/1/97 85/1/85 
f 97/1/97 78/1/78 85/1/85 
f 24/1/24 13/1/13 110/1/110 
f 24/1/24 105/1/105 13/1/13 
f 117/1/117 17/1/17 118/1/118 
f 117/1/117 118/1/118 76/1/76 
f 52/1/52 51/1/51 108/1/108 
f 120/1/120 72/1/72 108/1/108 
f 23/1/23 106/1/106 105/1/105 
f 23/1/23 105/1/105 24/1/24 
f 22/1/22 84/1/84 87/1/87 
f 22/1/22 97/1/97 84/1/84 
f 44/1/44 127/1/127 145/1/145 
f 43/1/43 127/1/127 44/1/44 
f 107/1/107 120/1/120 34/1/34 
f 107/1/107 34/1/34 19/1/19 
f 14/1/14 134/1/134 123/1/123 
f 14/1/14 106/1/106 134/1/134 
f 142/1/142 139/1/139 141/1/141 
f 141/1/141 52/1/52 142/1/142 
f 84/1/84 86/1/86 87/1/87 
f 111/1/111 112/1/112 87/1/87 
f 35/1/35 54/1/54 55/1/55 
f 37/1/37 54/1/54 35/1/35 
f 72/1/72 7/1/7 108/1/108 
f 72/1/72 73/1/73 7/1/7 
f 1/1/1 93/1/93 96/1/96 
f 1/1/1 96/1/96 104/1/104 
f 76/1/76 118/1/118 45/1/45 
f 76/1/76 45/1/45 47/1/47 
f 26/1/26 134/1/134 27/1/27 
f 133/1/133 27/1/27 134/1/134 
f 144/1/144 89/1/89 88/1/88 
f 59/1/59 20/1/20 144/1/144 
f 26/1/26 57/1/57 116/1/116 
f 134/1/134 26/1/26 123/1/123 
f 29/1/29 6/1/6 5/1/5 
f 83/1/83 6/1/6 29/1/29 
f 137/1/137 42/1/42 41/1/41 
f 115/1/115 137/1/137 41/1/41 
f 140/1/140 103/1/103 102/1/102 
f 140/1/140 102/1/102 53/1/53 
f 58/1/58 113/1/113 4/1/4 
f 113/1/113 19/1/19 4/1/4 
f 123/1/123 26/1/26 116/1/116 
f 15/1/15 123/1/123 146/1/146 
f 2/1/2 50/1/50 3/1/3 
f 62/1/62 3/1/3 50/1/50 
f 47/1/47 46/1/46 25/1/25 
f 47/1/47 25/1/25 138/1/138 
f 81/1/81 99/1/99 94/1/94 
f 94/1/94 99/1/99 33/1/33 
f 59/1/59 88/1/88 136/1/136 
f 88/1/88 59/1/59 144/1/144 
f 124/1/124 116/1/116 115/1/115 
f 124/1/124 15/1/15 146/1/146 
f 64/1/64 62/1/62 50/1/50 
f 50/1/50 65/1/65 64/1/64 
f 121/1/121 71/1/71 129/1/129 
f 71/1/71 70/1/70 129/1/129 
f 40/1/40 130/1/130 131/1/131 
f 80/1/80 131/1/131 130/1/130 
f 11/1/11 119/1/119 59/1/59 
f 11/1/11 48/1/48 119/1/119 
f 109/1/109 138/1/138 110/1/110 
f 77/1/77 138/1/138 109/1/109 
f 2/1/2 103/1/103 49/1/49 
f 65/1/65 50/1/50 49/1/49 
f 33/1/33 101/1/101 94/1/94 
f 32/1/32 101/1/101 33/1/33 
f 125/1/125 145/1/145 37/1/37 
f 125/1/125 37/1/37 36/1/36 
f 133/1/133 48/1/48 27/1/27 
f 48/1/48 133/1/133 119/1/119 
f 78/1/78 79/1/79 86/1/86 
f 111/1/111 79/1/79 110/1/110 
f 103/1/103 65/1/65 49/1/49 
f 140/1/140 139/1/139 103/1/103 
f 89/1/89 122/1/122 90/1/90 
f 90/1/90 122/1/122 82/1/82 
f 121/1/121 18/1/18 92/1/92 
f 16/1/16 18/1/18 121/1/121 
f 19/1/19 68/1/68 126/1/126 
f 19/1/19 126/1/126 107/1/107 
f 124/1/124 146/1/146 116/1/116 
f 146/1/146 123/1/123 116/1/116 
f 100/1/100 46/1/46 133/1/133 
f 46/1/46 100/1/100 25/1/25 
f 120/1/120 108/1/108 51/1/51 
f 51/1/51 34/1/34 120/1/120 
f 44/1/44 145/1/145 93/1/93 
f 93/1/93 145/1/145 125/1/125 
f 128/1/128 36/1/36 55/1/55 
f 128/1/128 55/1/55 40/1/40 
f 79/1/79 111/1/111 86/1/86 
f 111/1/111 87/1/87 86/1/86 
f 135/1/135 29/1/29 5/1/5 
f 135/1/135 5/1/5 69/1/69 
f 103/1/103 139/1/139 65/1/65 
f 139/1/139 9/1/9 21/1/21 
f 129/1/129 67/1/67 143/1/143 
f 89/1/89 143/1/143 67/1/67 
f 13/1/13 15/1/15 63/1/63 
f 63/1/63 15/1/15 124/1/124 
f 139/1/139 21/1/21 65/1/65 
f 22/1/22 65/1/65 21/1/21 
f 75/1/75 91/1/91 92/1/92 
f 18/1/18 75/1/75 92/1/92 
f 56/1/56 43/1/43 57/1/57 
f 57/1/57 43/1/43 116/1/116 
f 61/1/61 133/1/133 132/1/132 
f 132/1/132 133/1/133 46/1/46 
# 0 polygons - 288 triangles

