# 3ds Max Wavefront OBJ Exporter v0.97b - (c)2007 guruware
# File Created: 02.03.2021 00:06:05

mtllib M_Stone_06_Low.mtl

#
# object M_Stone_06_Low
#

v  1.4067 0.8508 0.3068
v  0.4372 0.8384 0.5241
v  0.4624 0.7719 2.5129
v  -1.4030 0.9323 0.5488
v  -1.9168 0.5528 -0.3220
v  -1.3570 0.4190 1.1706
v  -1.2005 0.0037 1.2657
v  0.0654 -0.1885 0.5948
v  -0.6141 0.0567 2.4152
v  1.3798 0.0106 -1.8602
v  0.5289 0.0631 -0.2906
v  -1.3837 0.0538 -0.6301
v  0.0458 0.2506 -2.5789
v  -0.7976 0.0939 -1.4582
v  -0.3600 0.7755 -2.0311
v  1.7195 0.9127 -1.4065
v  1.0325 0.9301 -1.0839
v  0.5918 0.4662 2.5199
v  0.7996 0.1405 2.1825
v  1.5641 0.4907 1.4222
v  1.8852 0.5718 0.6243
v  1.8297 0.1016 0.3492
v  1.8313 0.0358 -1.1964
v  0.4894 -0.0098 -2.3341
v  1.8607 0.5680 -1.6966
v  -0.0116 0.5121 -2.5495
v  1.9168 0.3191 -1.6527
v  -0.7947 0.2851 2.5789
v  0.2392 0.1058 2.4132
v  -1.1894 0.2337 2.1351
v  -0.7151 0.7732 2.5296
v  -0.4085 0.8496 1.6787
v  1.4742 0.0958 1.2016
v  -1.2951 1.0089 -0.8929
v  -1.7043 0.8844 -0.3871
v  1.0184 0.9692 -1.9218
v  -0.7281 0.9915 -1.6257
v  0.5061 1.0782 -0.4023
v  -0.2715 1.0848 -0.9726
v  -0.9023 1.0612 -0.3715
v  -0.2738 1.0155 0.7054
v  -1.5414 -0.0020 0.4862
v  -1.3271 0.0884 -1.0081
v  -1.7623 0.0618 0.1442
v  -1.1107 0.8344 1.6938
v  -0.0357 0.9214 -2.2475
v  1.8450 0.8187 0.3577
v  1.2986 0.0223 0.1247
v  1.4599 0.7948 1.5564
v  -1.3045 0.1133 1.3446
# 50 vertices

vn 0.0353 0.9983 0.0462
vn 0.1549 0.9786 0.1358
vn 0.2303 0.6720 0.7038
vn -0.5635 0.7943 0.2271
vn -0.9819 0.0717 -0.1754
vn -0.9584 0.1048 0.2655
vn -0.3607 -0.9174 0.1683
vn 0.0336 -0.9989 -0.0314
vn -0.1356 -0.8550 0.5006
vn 0.3423 -0.7907 -0.5076
vn 0.0219 -0.9946 -0.1015
vn -0.1649 -0.9808 -0.1042
vn -0.2221 -0.3461 -0.9115
vn -0.5640 -0.6404 -0.5213
vn -0.7166 0.1624 -0.6783
vn 0.5481 0.8198 -0.1656
vn 0.1786 0.9823 0.0567
vn 0.4409 -0.1153 0.8901
vn 0.4845 -0.7071 0.5150
vn 0.8558 -0.1628 0.4910
vn 0.9703 0.0668 0.2326
vn 0.7233 -0.6829 0.1022
vn 0.6807 -0.7312 -0.0446
vn 0.1857 -0.7560 -0.6277
vn 0.7974 0.2755 -0.5369
vn -0.3137 0.2317 -0.9208
vn 0.9220 -0.1667 -0.3495
vn -0.4075 -0.2642 0.8741
vn 0.1408 -0.7743 0.6170
vn -0.8383 -0.3189 0.4422
vn -0.3203 0.6566 0.6829
vn 0.0311 0.9941 0.1034
vn 0.5545 -0.7765 0.2992
vn -0.5733 0.7214 -0.3885
vn -0.6745 0.7217 -0.1555
vn 0.2727 0.8053 -0.5264
vn -0.5192 0.6765 -0.5223
vn 0.2777 0.9521 0.1277
vn -0.0178 0.9984 -0.0540
vn -0.0930 0.9952 0.0292
vn 0.0934 0.9845 0.1485
vn -0.3962 -0.9089 0.1299
vn -0.5899 -0.5453 -0.5956
vn -0.7770 -0.6221 0.0964
vn -0.5732 0.7781 0.2570
vn -0.1883 0.7823 -0.5938
vn 0.6821 0.7282 0.0673
vn 0.0948 -0.9947 -0.0386
vn 0.6023 0.6670 0.4386
vn -0.8565 -0.4525 0.2482
# 50 vertex normals

vt 0.0000 0.0000 0.0000
# 1 texture coords

o M_Stone_06_Low
g M_Stone_06_Low
usemtl M_Stone_06_Low_default
s 1
f 1/1/1 2/1/2 3/1/3 
f 4/1/4 5/1/5 6/1/6 
f 7/1/7 8/1/8 9/1/9 
f 10/1/10 11/1/11 12/1/12 
f 13/1/13 14/1/14 15/1/15 
f 1/1/1 16/1/16 17/1/17 
f 18/1/18 19/1/19 20/1/20 
f 21/1/21 22/1/22 23/1/23 
f 24/1/24 10/1/10 12/1/12 
f 25/1/25 13/1/13 26/1/26 
f 21/1/21 23/1/23 25/1/25 
f 27/1/27 24/1/24 25/1/25 
f 28/1/28 29/1/29 18/1/18 
f 6/1/6 30/1/30 4/1/4 
f 3/1/3 31/1/31 28/1/28 
f 32/1/32 3/1/3 2/1/2 
f 20/1/20 33/1/33 22/1/22 
f 9/1/9 8/1/8 29/1/29 
f 12/1/12 11/1/11 8/1/8 
f 33/1/33 8/1/8 22/1/22 
f 15/1/15 14/1/14 5/1/5 
f 34/1/34 35/1/35 4/1/4 
f 17/1/17 16/1/16 36/1/36 
f 34/1/34 37/1/37 35/1/35 
f 38/1/38 36/1/36 39/1/39 
f 40/1/40 4/1/4 41/1/41 
f 41/1/41 32/1/32 2/1/2 
f 38/1/38 17/1/17 36/1/36 
f 12/1/12 8/1/8 42/1/42 
f 43/1/43 44/1/44 5/1/5 
f 45/1/45 30/1/30 31/1/31 
f 32/1/32 41/1/41 45/1/45 
f 36/1/36 46/1/46 39/1/39 
f 36/1/36 25/1/25 26/1/26 
f 19/1/19 8/1/8 33/1/33 
f 20/1/20 19/1/19 33/1/33 
f 37/1/37 5/1/5 35/1/35 
f 35/1/35 5/1/5 4/1/4 
f 20/1/20 22/1/22 21/1/21 
f 1/1/1 47/1/47 16/1/16 
f 42/1/42 8/1/8 7/1/7 
f 5/1/5 44/1/44 6/1/6 
f 16/1/16 47/1/47 25/1/25 
f 16/1/16 25/1/25 36/1/36 
f 28/1/28 9/1/9 29/1/29 
f 30/1/30 7/1/7 9/1/9 
f 15/1/15 26/1/26 13/1/13 
f 36/1/36 26/1/26 46/1/46 
f 28/1/28 30/1/30 9/1/9 
f 30/1/30 28/1/28 31/1/31 
f 22/1/22 48/1/48 23/1/23 
f 22/1/22 8/1/8 48/1/48 
f 38/1/38 40/1/40 41/1/41 
f 38/1/38 41/1/41 2/1/2 
f 43/1/43 12/1/12 44/1/44 
f 24/1/24 12/1/12 14/1/14 
f 3/1/3 18/1/18 49/1/49 
f 3/1/3 28/1/28 18/1/18 
f 14/1/14 43/1/43 5/1/5 
f 43/1/43 14/1/14 12/1/12 
f 32/1/32 45/1/45 31/1/31 
f 32/1/32 31/1/31 3/1/3 
f 48/1/48 8/1/8 11/1/11 
f 23/1/23 48/1/48 11/1/11 
f 41/1/41 4/1/4 45/1/45 
f 4/1/4 30/1/30 45/1/45 
f 49/1/49 20/1/20 21/1/21 
f 18/1/18 20/1/20 49/1/49 
f 13/1/13 24/1/24 14/1/14 
f 25/1/25 24/1/24 13/1/13 
f 44/1/44 50/1/50 6/1/6 
f 6/1/6 50/1/50 30/1/30 
f 2/1/2 1/1/1 17/1/17 
f 2/1/2 17/1/17 38/1/38 
f 27/1/27 10/1/10 24/1/24 
f 25/1/25 23/1/23 27/1/27 
f 29/1/29 8/1/8 19/1/19 
f 29/1/29 19/1/19 18/1/18 
f 46/1/46 26/1/26 15/1/15 
f 46/1/46 37/1/37 39/1/39 
f 23/1/23 11/1/11 10/1/10 
f 23/1/23 10/1/10 27/1/27 
f 50/1/50 44/1/44 7/1/7 
f 50/1/50 7/1/7 30/1/30 
f 39/1/39 37/1/37 34/1/34 
f 34/1/34 4/1/4 40/1/40 
f 21/1/21 25/1/25 47/1/47 
f 47/1/47 49/1/49 21/1/21 
f 44/1/44 12/1/12 42/1/42 
f 42/1/42 7/1/7 44/1/44 
f 39/1/39 34/1/34 40/1/40 
f 39/1/39 40/1/40 38/1/38 
f 1/1/1 49/1/49 47/1/47 
f 3/1/3 49/1/49 1/1/1 
f 37/1/37 46/1/46 15/1/15 
f 37/1/37 15/1/15 5/1/5 
# 0 polygons - 96 triangles

