# 3ds Max Wavefront OBJ Exporter v0.97b - (c)2007 guruware
# File Created: 02.03.2021 00:05:28

mtllib M_Stone_03_Low.mtl

#
# object M_Stone_03_Low
#

v  -0.6002 0.8042 2.5374
v  -0.9175 1.6196 2.1668
v  -1.4271 0.6341 1.4741
v  1.5852 0.3166 -0.1429
v  0.6750 -0.0356 0.9552
v  -0.7015 -0.1637 0.5340
v  0.4076 2.3396 2.7513
v  0.6831 2.8197 0.3241
v  -1.5474 1.5899 -0.2837
v  -1.2375 0.8142 -2.1331
v  -1.4983 1.2076 -1.9663
v  -0.3856 0.8831 -2.7397
v  0.0516 2.8189 -2.1329
v  0.4711 2.9424 -1.1514
v  0.7941 2.3772 -2.4082
v  1.5965 1.2888 0.2504
v  1.5741 2.1712 1.0221
v  1.5645 1.4943 1.3824
v  -1.5994 0.7029 -1.2219
v  -1.5842 1.4251 -0.4324
v  -1.5610 1.1564 -1.7801
v  -0.5808 2.4611 -2.2207
v  1.5045 2.0947 1.8792
v  -0.4868 1.6300 2.7477
v  0.1943 0.3465 3.0230
v  -0.3522 0.1033 1.7614
v  1.2251 -0.0283 1.7437
v  1.0072 1.5005 3.0356
v  0.6543 1.0158 2.9860
v  1.1395 0.5027 3.0811
v  0.2534 0.6429 -1.8777
v  -0.6513 0.7539 -2.4861
v  1.5230 1.4999 -2.3266
v  1.5831 2.2908 -1.2604
v  1.5842 0.9392 -0.3844
v  -0.5043 2.3794 -2.3279
v  -0.2151 2.0010 -2.5698
v  -1.5571 1.8154 -1.7870
v  -1.4872 1.3362 0.9363
v  -1.5041 0.9365 0.1545
v  -0.9285 0.0106 -0.2614
v  0.3948 0.3854 -1.0928
v  1.0415 2.8759 1.5260
v  0.3751 2.2303 2.8846
v  0.0638 2.3830 -2.7193
v  0.4304 2.0945 -3.0811
v  0.2675 1.6063 -3.0192
v  0.8943 0.5166 -1.4140
v  0.4880 0.9508 -2.5336
v  0.9282 1.0875 -2.5706
v  1.5276 0.3118 2.3750
v  0.7058 0.3216 3.0482
v  1.5826 0.0274 1.7689
v  1.6108 0.2323 0.4606
v  1.5994 2.5453 -0.5825
v  1.5323 2.0554 -2.3964
v  1.1084 3.0547 0.4059
v  -1.1522 0.0431 0.8063
v  1.5296 1.8384 -2.5073
v  1.4269 2.0265 -2.6185
v  1.4092 1.4131 -2.4759
v  -0.2195 0.5396 2.9634
v  -0.9019 0.1919 1.8901
v  -0.3855 1.8565 2.8696
v  -0.2871 0.7535 2.9561
v  1.0884 1.9693 2.9712
v  0.9850 2.7873 1.9321
v  0.4882 2.3050 2.8073
v  1.3661 2.1713 2.5178
v  -1.5222 0.9519 -1.7824
v  -1.4324 0.4551 -1.2206
v  -1.5211 0.3221 0.0979
v  1.5242 1.9701 2.4553
v  1.3176 0.9709 3.0673
v  -0.7900 0.1901 -0.8418
v  0.1602 2.1773 2.8884
v  -1.4235 1.4331 1.3929
v  1.4659 0.6479 -1.1527
v  1.5483 0.8476 -1.2402
v  1.4081 0.4368 -0.8041
v  -1.5195 1.4221 0.2305
v  -1.2362 0.2862 1.3797
v  -1.0527 0.3448 1.8805
v  -1.4654 0.4108 0.9366
v  -1.0489 0.0951 1.3202
v  1.5446 0.7604 2.7790
v  1.4559 0.6489 3.0353
v  -1.2637 0.3537 -1.3797
v  1.0502 0.7526 -1.7828
v  0.2359 1.1275 -2.9255
v  1.2699 1.0519 -2.0695
v  1.5396 0.0420 1.4653
v  -1.6108 0.4897 -0.5070
v  -1.4128 1.4040 1.5669
v  -0.2123 2.7427 -2.4212
v  1.5468 1.0100 2.0829
v  -0.0255 1.0314 -2.9460
v  -0.9744 0.7153 -2.3003
v  0.1560 2.4550 -2.7014
v  0.9496 2.1422 -2.8177
# 100 vertices

vn -0.7982 -0.0507 0.6003
vn -0.7938 0.3763 0.4778
vn -0.9109 -0.2135 0.3532
vn 0.7409 -0.6504 -0.1672
vn 0.1421 -0.9814 -0.1288
vn -0.1420 -0.9894 -0.0300
vn -0.2659 0.8863 0.3791
vn -0.5034 0.8550 0.1249
vn -0.8318 0.5442 0.1097
vn -0.6614 -0.3922 -0.6393
vn -0.7788 -0.0175 -0.6270
vn -0.2836 -0.5161 -0.8082
vn 0.0741 0.9704 -0.2300
vn -0.0571 0.9959 -0.0695
vn 0.3534 0.8677 -0.3496
vn 1.0000 0.0060 0.0043
vn 0.9597 0.2684 0.0829
vn 0.9986 0.0252 0.0467
vn -0.9454 -0.2799 -0.1671
vn -0.9950 0.0843 0.0531
vn -0.9756 -0.0666 -0.2091
vn -0.6427 0.6960 -0.3202
vn 0.9474 0.3099 0.0797
vn -0.7866 -0.0042 0.6174
vn -0.1491 -0.5860 0.7965
vn -0.0974 -0.9689 0.2274
vn 0.0824 -0.9900 0.1144
vn -0.0474 0.0836 0.9954
vn -0.1067 0.0585 0.9926
vn 0.1893 -0.4686 0.8629
vn 0.1061 -0.9292 -0.3539
vn -0.1046 -0.8550 -0.5079
vn 0.9337 -0.2541 -0.2524
vn 0.9976 0.0483 -0.0487
vn 0.9995 -0.0091 -0.0304
vn -0.5698 0.2512 -0.7824
vn -0.5564 0.1556 -0.8162
vn -0.8248 0.4705 -0.3136
vn -0.9939 0.0773 0.0783
vn -0.9956 -0.0088 0.0935
vn -0.2097 -0.9599 -0.1859
vn 0.0966 -0.9562 -0.2764
vn 0.2054 0.9618 0.1808
vn -0.0697 0.5048 0.8604
vn -0.4565 0.3427 -0.8211
vn -0.0195 0.2849 -0.9584
vn -0.1130 -0.0371 -0.9929
vn 0.1927 -0.9201 -0.3411
vn 0.1968 -0.8874 -0.4170
vn 0.4062 -0.6615 -0.6304
vn 0.8001 -0.5214 0.2966
vn 0.0218 -0.6086 0.7932
vn 0.7254 -0.6768 0.1253
vn 0.8442 -0.5296 -0.0833
vn 0.8481 0.5189 -0.1071
vn 0.8232 0.5061 -0.2571
vn 0.2422 0.9655 0.0956
vn -0.5467 -0.8314 0.0996
vn 0.8656 -0.0774 -0.4948
vn 0.5971 0.3831 -0.7048
vn 0.6343 -0.4332 -0.6403
vn -0.4537 -0.3685 0.8114
vn -0.4269 -0.8231 0.3744
vn -0.5351 0.4684 0.7030
vn -0.4950 -0.0418 0.8679
vn 0.3520 0.4136 0.8397
vn 0.1259 0.9461 0.2984
vn 0.0938 0.7613 0.6416
vn 0.6575 0.6136 0.4373
vn -0.8637 -0.3504 -0.3622
vn -0.7134 -0.6620 -0.2298
vn -0.8616 -0.5073 0.0191
vn 0.9117 0.3030 0.2775
vn 0.3845 0.1424 0.9121
vn 0.0564 -0.9538 -0.2952
vn -0.3269 0.6108 0.7212
vn -0.8086 0.5757 0.1211
vn 0.6667 -0.6559 -0.3539
vn 0.9486 -0.2635 -0.1754
vn 0.4092 -0.8627 -0.2972
vn -0.9979 -0.0329 0.0564
vn -0.7312 -0.6246 0.2742
vn -0.7454 -0.4239 0.5145
vn -0.9234 -0.3595 0.1345
vn -0.4323 -0.8693 0.2397
vn 0.9786 -0.0346 0.2027
vn 0.6543 -0.2754 0.7043
vn -0.3926 -0.8587 -0.3294
vn 0.3965 -0.8167 -0.4193
vn 0.2910 -0.4256 -0.8568
vn 0.5378 -0.7286 -0.4241
vn 0.3421 -0.9333 -0.1093
vn -0.9183 -0.3952 -0.0246
vn -0.8589 0.3643 0.3601
vn -0.3611 0.8004 -0.4786
vn 0.9994 0.0179 0.0285
vn -0.1515 -0.4640 -0.8728
vn -0.4313 -0.6110 -0.6639
vn 0.0323 0.7421 -0.6695
vn 0.3917 0.6173 -0.6823
# 100 vertex normals

vt 0.0000 0.0000 0.0000
# 1 texture coords

o M_Stone_03_Low
g M_Stone_03_Low
usemtl M_Stone_03_Low_default
s 1
f 1/1/1 2/1/2 3/1/3 
f 4/1/4 5/1/5 6/1/6 
f 7/1/7 8/1/8 9/1/9 
f 10/1/10 11/1/11 12/1/12 
f 13/1/13 14/1/14 15/1/15 
f 16/1/16 17/1/17 18/1/18 
f 19/1/19 20/1/20 21/1/21 
f 8/1/8 22/1/22 9/1/9 
f 18/1/18 17/1/17 23/1/23 
f 24/1/24 2/1/2 1/1/1 
f 25/1/25 26/1/26 27/1/27 
f 28/1/28 29/1/29 30/1/30 
f 12/1/12 31/1/31 32/1/32 
f 33/1/33 34/1/34 35/1/35 
f 36/1/36 37/1/37 11/1/11 
f 38/1/38 9/1/9 22/1/22 
f 39/1/39 40/1/40 3/1/3 
f 41/1/41 42/1/42 6/1/6 
f 7/1/7 43/1/43 8/1/8 
f 28/1/28 44/1/44 29/1/29 
f 45/1/45 46/1/46 47/1/47 
f 48/1/48 49/1/49 50/1/50 
f 51/1/51 52/1/52 53/1/53 
f 18/1/18 53/1/53 54/1/54 
f 14/1/14 55/1/55 56/1/56 
f 57/1/57 23/1/23 17/1/17 
f 6/1/6 27/1/27 26/1/26 
f 58/1/58 41/1/41 6/1/6 
f 33/1/33 59/1/59 34/1/34 
f 60/1/60 61/1/61 47/1/47 
f 62/1/62 63/1/63 25/1/25 
f 25/1/25 64/1/64 65/1/65 
f 66/1/66 67/1/67 68/1/68 
f 43/1/43 69/1/69 57/1/57 
f 70/1/70 71/1/71 19/1/19 
f 58/1/58 72/1/72 41/1/41 
f 69/1/69 67/1/67 66/1/66 
f 73/1/73 66/1/66 74/1/74 
f 10/1/10 71/1/71 70/1/70 
f 75/1/75 32/1/32 42/1/42 
f 29/1/29 76/1/76 64/1/64 
f 7/1/7 77/1/77 64/1/64 
f 78/1/78 79/1/79 4/1/4 
f 6/1/6 80/1/80 4/1/4 
f 7/1/7 9/1/9 77/1/77 
f 81/1/81 40/1/40 39/1/39 
f 33/1/33 61/1/61 59/1/59 
f 78/1/78 61/1/61 33/1/33 
f 82/1/82 83/1/83 3/1/3 
f 72/1/72 58/1/58 84/1/84 
f 57/1/57 55/1/55 14/1/14 
f 14/1/14 22/1/22 8/1/8 
f 84/1/84 58/1/58 82/1/82 
f 85/1/85 58/1/58 6/1/6 
f 45/1/45 47/1/47 37/1/37 
f 49/1/49 31/1/31 12/1/12 
f 30/1/30 52/1/52 51/1/51 
f 86/1/86 73/1/73 87/1/87 
f 75/1/75 88/1/88 32/1/32 
f 72/1/72 88/1/88 41/1/41 
f 29/1/29 64/1/64 25/1/25 
f 25/1/25 27/1/27 52/1/52 
f 11/1/11 38/1/38 36/1/36 
f 21/1/21 20/1/20 38/1/38 
f 57/1/57 17/1/17 55/1/55 
f 16/1/16 55/1/55 17/1/17 
f 10/1/10 70/1/70 11/1/11 
f 11/1/11 21/1/21 38/1/38 
f 52/1/52 30/1/30 29/1/29 
f 29/1/29 25/1/25 52/1/52 
f 80/1/80 6/1/6 42/1/42 
f 80/1/80 48/1/48 89/1/89 
f 3/1/3 84/1/84 82/1/82 
f 40/1/40 84/1/84 3/1/3 
f 8/1/8 43/1/43 57/1/57 
f 57/1/57 14/1/14 8/1/8 
f 50/1/50 90/1/90 61/1/61 
f 78/1/78 91/1/91 61/1/61 
f 53/1/53 52/1/52 27/1/27 
f 5/1/5 4/1/4 92/1/92 
f 40/1/40 72/1/72 84/1/84 
f 40/1/40 20/1/20 93/1/93 
f 47/1/47 12/1/12 37/1/37 
f 37/1/37 12/1/12 11/1/11 
f 64/1/64 77/1/77 2/1/2 
f 39/1/39 3/1/3 94/1/94 
f 23/1/23 57/1/57 69/1/69 
f 73/1/73 69/1/69 66/1/66 
f 6/1/6 5/1/5 27/1/27 
f 5/1/5 53/1/53 27/1/27 
f 14/1/14 95/1/95 22/1/22 
f 22/1/22 36/1/36 38/1/38 
f 2/1/2 77/1/77 94/1/94 
f 2/1/2 94/1/94 3/1/3 
f 73/1/73 23/1/23 69/1/69 
f 96/1/96 23/1/23 73/1/73 
f 47/1/47 61/1/61 90/1/90 
f 47/1/47 97/1/97 12/1/12 
f 77/1/77 39/1/39 94/1/94 
f 9/1/9 39/1/39 77/1/77 
f 4/1/4 79/1/79 54/1/54 
f 4/1/4 54/1/54 92/1/92 
f 98/1/98 10/1/10 12/1/12 
f 98/1/98 88/1/88 10/1/10 
f 60/1/60 47/1/47 46/1/46 
f 99/1/99 100/1/100 46/1/46 
f 63/1/63 62/1/62 83/1/83 
f 3/1/3 83/1/83 1/1/1 
f 74/1/74 66/1/66 28/1/28 
f 66/1/66 44/1/44 28/1/28 
f 60/1/60 46/1/46 100/1/100 
f 15/1/15 100/1/100 99/1/99 
f 48/1/48 80/1/80 42/1/42 
f 49/1/49 48/1/48 31/1/31 
f 30/1/30 51/1/51 87/1/87 
f 74/1/74 28/1/28 30/1/30 
f 48/1/48 42/1/42 31/1/31 
f 32/1/32 31/1/31 42/1/42 
f 7/1/7 67/1/67 43/1/43 
f 43/1/43 67/1/67 69/1/69 
f 14/1/14 60/1/60 15/1/15 
f 15/1/15 60/1/60 100/1/100 
f 96/1/96 73/1/73 86/1/86 
f 87/1/87 51/1/51 86/1/86 
f 14/1/14 13/1/13 95/1/95 
f 13/1/13 15/1/15 99/1/99 
f 40/1/40 93/1/93 72/1/72 
f 93/1/93 71/1/71 72/1/72 
f 65/1/65 83/1/83 62/1/62 
f 25/1/25 65/1/65 62/1/62 
f 80/1/80 78/1/78 4/1/4 
f 80/1/80 89/1/89 78/1/78 
f 53/1/53 96/1/96 51/1/51 
f 96/1/96 86/1/86 51/1/51 
f 13/1/13 99/1/99 95/1/95 
f 36/1/36 45/1/45 37/1/37 
f 85/1/85 6/1/6 26/1/26 
f 25/1/25 63/1/63 26/1/26 
f 93/1/93 20/1/20 19/1/19 
f 93/1/93 19/1/19 71/1/71 
f 79/1/79 78/1/78 33/1/33 
f 33/1/33 35/1/35 79/1/79 
f 95/1/95 36/1/36 22/1/22 
f 95/1/95 45/1/45 36/1/36 
f 79/1/79 35/1/35 54/1/54 
f 18/1/18 54/1/54 16/1/16 
f 76/1/76 7/1/7 64/1/64 
f 66/1/66 68/1/68 44/1/44 
f 32/1/32 98/1/98 12/1/12 
f 88/1/88 98/1/98 32/1/32 
f 82/1/82 63/1/63 83/1/83 
f 85/1/85 26/1/26 63/1/63 
f 97/1/97 50/1/50 49/1/49 
f 97/1/97 49/1/49 12/1/12 
f 85/1/85 63/1/63 82/1/82 
f 82/1/82 58/1/58 85/1/85 
f 97/1/97 90/1/90 50/1/50 
f 97/1/97 47/1/47 90/1/90 
f 53/1/53 18/1/18 96/1/96 
f 18/1/18 23/1/23 96/1/96 
f 88/1/88 71/1/71 10/1/10 
f 71/1/71 88/1/88 72/1/72 
f 14/1/14 56/1/56 60/1/60 
f 59/1/59 61/1/61 60/1/60 
f 60/1/60 56/1/56 59/1/59 
f 34/1/34 59/1/59 56/1/56 
f 73/1/73 74/1/74 87/1/87 
f 30/1/30 87/1/87 74/1/74 
f 99/1/99 46/1/46 45/1/45 
f 99/1/99 45/1/45 95/1/95 
f 9/1/9 81/1/81 39/1/39 
f 9/1/9 38/1/38 20/1/20 
f 65/1/65 24/1/24 1/1/1 
f 65/1/65 1/1/1 83/1/83 
f 34/1/34 55/1/55 16/1/16 
f 34/1/34 56/1/56 55/1/55 
f 48/1/48 50/1/50 89/1/89 
f 78/1/78 89/1/89 91/1/91 
f 92/1/92 53/1/53 5/1/5 
f 92/1/92 54/1/54 53/1/53 
f 44/1/44 7/1/7 76/1/76 
f 44/1/44 76/1/76 29/1/29 
f 81/1/81 20/1/20 40/1/40 
f 9/1/9 20/1/20 81/1/81 
f 91/1/91 50/1/50 61/1/61 
f 89/1/89 50/1/50 91/1/91 
f 24/1/24 64/1/64 2/1/2 
f 64/1/64 24/1/24 65/1/65 
f 35/1/35 34/1/34 16/1/16 
f 54/1/54 35/1/35 16/1/16 
f 75/1/75 41/1/41 88/1/88 
f 75/1/75 42/1/42 41/1/41 
f 68/1/68 7/1/7 44/1/44 
f 67/1/67 7/1/7 68/1/68 
f 70/1/70 19/1/19 21/1/21 
f 11/1/11 70/1/70 21/1/21 
# 0 polygons - 196 triangles

