# 3ds Max Wavefront OBJ Exporter v0.97b - (c)2007 guruware
# File Created: 02.03.2021 00:06:35

mtllib M_Stone_07_Low.mtl

#
# object M_Stone_07_Low
#

v  -0.0616 0.7023 0.9924
v  0.0971 0.9176 -0.2957
v  -0.8599 0.8257 1.1439
v  1.9689 0.4292 -1.9372
v  1.0171 0.1263 -2.3957
v  0.7741 0.8662 -2.3284
v  -1.4941 0.5062 -1.0752
v  -1.4583 -0.0381 -1.1587
v  -2.0410 0.4474 -0.3651
v  -0.8944 -0.0659 -1.1351
v  0.6122 -0.0669 -0.3748
v  -0.3474 -0.2541 0.3036
v  1.4554 0.8341 -1.8670
v  0.7803 -0.0111 2.3141
v  -1.2931 -0.2024 1.1893
v  0.5511 -0.2502 0.5405
v  -1.6082 -0.1265 -0.6491
v  -1.8894 -0.0672 0.0848
v  -0.6451 0.7546 1.6835
v  2.0410 0.1682 -1.8931
v  1.9881 -0.1472 -1.3687
v  1.4572 -0.1777 -2.1065
v  1.9808 0.5942 -0.3968
v  0.4417 0.0393 -1.2832
v  -0.3093 -0.1004 -1.7782
v  0.7681 -0.1793 -2.4072
v  -0.5642 -0.0279 -1.9664
v  -0.6618 0.8614 -1.8900
v  -1.3690 0.4796 1.1962
v  -1.6880 0.5889 0.2382
v  -1.6918 -0.1642 0.4336
v  -0.7052 0.9837 0.0447
v  -1.7675 0.7920 -0.5076
v  0.7891 0.5429 2.4072
v  1.4940 0.6340 1.6236
v  1.5730 -0.0686 1.2739
v  -1.2379 0.8965 -0.8289
v  -0.4347 1.0321 -0.9187
v  1.4864 -0.0528 0.3619
v  1.9432 -0.0889 -0.4306
v  0.5032 0.6495 2.2587
v  0.5240 0.5793 1.3549
v  1.5660 0.6102 1.3736
v  1.4707 0.6004 0.7685
v  1.0715 0.5810 0.2035
v  1.9443 0.6592 -1.0673
v  1.5295 0.5822 0.3096
v  1.9307 0.6968 -1.7656
v  0.4240 0.6020 0.8941
v  1.3540 -0.1608 0.2344
# 50 vertices

vn 0.1925 0.9745 0.1157
vn 0.1956 0.9709 0.1382
vn -0.2117 0.9539 0.2127
vn 0.7254 0.2587 -0.6379
vn 0.2491 -0.0184 -0.9683
vn 0.0354 0.6726 -0.7392
vn -0.7180 0.3232 -0.6165
vn -0.6163 -0.5596 -0.5541
vn -0.9839 0.1520 -0.0942
vn 0.1632 -0.9811 0.1041
vn 0.0279 -0.9886 -0.1479
vn 0.0056 -0.9981 -0.0615
vn 0.2467 0.9555 -0.1615
vn 0.1625 -0.6058 0.7788
vn -0.5189 -0.6834 0.5134
vn 0.0550 -0.9983 -0.0195
vn -0.4872 -0.8447 -0.2215
vn -0.8509 -0.4924 0.1830
vn -0.3300 0.6650 0.6700
vn 0.8504 -0.2131 -0.4811
vn 0.6712 -0.7412 -0.0101
vn 0.3000 -0.8106 -0.5029
vn 0.7531 0.6027 0.2640
vn 0.0000 -0.9981 0.0623
vn -0.0542 -0.9985 -0.0078
vn -0.0540 -0.6747 -0.7361
vn -0.4322 -0.5588 -0.7078
vn -0.4366 0.6098 -0.6614
vn -0.7467 0.3501 0.5656
vn -0.7683 0.5272 0.3631
vn -0.6908 -0.6730 0.2641
vn -0.0414 0.9940 0.1014
vn -0.6085 0.7723 -0.1824
vn 0.1976 0.3702 0.9077
vn 0.6725 0.6314 0.3860
vn 0.7634 -0.6160 0.1946
vn -0.3616 0.9050 -0.2243
vn -0.0286 0.9991 -0.0299
vn 0.8595 -0.4849 0.1620
vn 0.7011 -0.6844 0.2001
vn -0.2189 0.7481 0.6265
vn 0.0651 0.9976 -0.0250
vn 0.8004 0.5975 0.0485
vn 0.6351 0.7698 -0.0639
vn 0.0900 0.9931 0.0757
vn 0.4823 0.8729 0.0736
vn 0.6276 0.7442 0.2286
vn 0.6852 0.6793 -0.2629
vn 0.1665 0.9829 0.0792
vn 0.2212 -0.9752 0.0110
# 50 vertex normals

vt 0.0000 0.0000 0.0000
# 1 texture coords

o M_Stone_07_Low
g M_Stone_07_Low
usemtl M_Stone_07_Low_default
s 1
f 1/1/1 2/1/2 3/1/3 
f 4/1/4 5/1/5 6/1/6 
f 7/1/7 8/1/8 9/1/9 
f 10/1/10 11/1/11 12/1/12 
f 2/1/2 1/1/1 13/1/13 
f 14/1/14 15/1/15 16/1/16 
f 17/1/17 18/1/18 9/1/9 
f 14/1/14 19/1/19 15/1/15 
f 20/1/20 21/1/21 22/1/22 
f 23/1/23 21/1/21 20/1/20 
f 22/1/22 24/1/24 25/1/25 
f 26/1/26 27/1/27 28/1/28 
f 29/1/29 30/1/30 31/1/31 
f 32/1/32 33/1/33 3/1/3 
f 19/1/19 14/1/14 34/1/34 
f 35/1/35 14/1/14 36/1/36 
f 28/1/28 37/1/37 38/1/38 
f 13/1/13 6/1/6 38/1/38 
f 24/1/24 11/1/11 10/1/10 
f 39/1/39 40/1/40 23/1/23 
f 6/1/6 28/1/28 38/1/38 
f 6/1/6 26/1/26 28/1/28 
f 12/1/12 16/1/16 15/1/15 
f 31/1/31 15/1/15 29/1/29 
f 34/1/34 14/1/14 35/1/35 
f 19/1/19 41/1/41 42/1/42 
f 41/1/41 35/1/35 42/1/42 
f 43/1/43 39/1/39 44/1/44 
f 40/1/40 24/1/24 22/1/22 
f 40/1/40 11/1/11 24/1/24 
f 45/1/45 46/1/46 13/1/13 
f 47/1/47 39/1/39 23/1/23 
f 23/1/23 20/1/20 48/1/48 
f 6/1/6 48/1/48 4/1/4 
f 19/1/19 29/1/29 15/1/15 
f 3/1/3 30/1/30 29/1/29 
f 25/1/25 24/1/24 10/1/10 
f 27/1/27 8/1/8 7/1/7 
f 33/1/33 30/1/30 3/1/3 
f 7/1/7 9/1/9 33/1/33 
f 23/1/23 40/1/40 21/1/21 
f 21/1/21 40/1/40 22/1/22 
f 13/1/13 49/1/49 45/1/45 
f 42/1/42 35/1/35 44/1/44 
f 7/1/7 28/1/28 27/1/27 
f 28/1/28 7/1/7 37/1/37 
f 46/1/46 48/1/48 13/1/13 
f 13/1/13 48/1/48 6/1/6 
f 1/1/1 19/1/19 42/1/42 
f 49/1/49 42/1/42 45/1/45 
f 16/1/16 36/1/36 14/1/14 
f 43/1/43 36/1/36 39/1/39 
f 12/1/12 11/1/11 16/1/16 
f 36/1/36 16/1/16 50/1/50 
f 37/1/37 32/1/32 38/1/38 
f 2/1/2 13/1/13 38/1/38 
f 16/1/16 11/1/11 50/1/50 
f 50/1/50 11/1/11 40/1/40 
f 32/1/32 37/1/37 33/1/33 
f 7/1/7 33/1/33 37/1/37 
f 45/1/45 47/1/47 23/1/23 
f 45/1/45 42/1/42 44/1/44 
f 17/1/17 12/1/12 31/1/31 
f 15/1/15 31/1/31 12/1/12 
f 20/1/20 22/1/22 5/1/5 
f 26/1/26 22/1/22 25/1/25 
f 9/1/9 18/1/18 30/1/30 
f 33/1/33 9/1/9 30/1/30 
f 44/1/44 39/1/39 47/1/47 
f 45/1/45 44/1/44 47/1/47 
f 22/1/22 26/1/26 5/1/5 
f 5/1/5 26/1/26 6/1/6 
f 32/1/32 3/1/3 2/1/2 
f 38/1/38 32/1/32 2/1/2 
f 35/1/35 36/1/36 43/1/43 
f 44/1/44 35/1/35 43/1/43 
f 9/1/9 8/1/8 17/1/17 
f 8/1/8 25/1/25 17/1/17 
f 4/1/4 20/1/20 5/1/5 
f 20/1/20 4/1/4 48/1/48 
f 3/1/3 29/1/29 19/1/19 
f 1/1/1 3/1/3 19/1/19 
f 17/1/17 10/1/10 12/1/12 
f 17/1/17 25/1/25 10/1/10 
f 45/1/45 23/1/23 46/1/46 
f 23/1/23 48/1/48 46/1/46 
f 19/1/19 34/1/34 41/1/41 
f 41/1/41 34/1/34 35/1/35 
f 18/1/18 17/1/17 31/1/31 
f 18/1/18 31/1/31 30/1/30 
f 39/1/39 50/1/50 40/1/40 
f 36/1/36 50/1/50 39/1/39 
f 1/1/1 42/1/42 49/1/49 
f 1/1/1 49/1/49 13/1/13 
f 26/1/26 25/1/25 27/1/27 
f 27/1/27 25/1/25 8/1/8 
# 0 polygons - 96 triangles

