# 3ds Max Wavefront OBJ Exporter v0.97b - (c)2007 guruware
# File Created: 02.03.2021 00:05:52

mtllib M_Stone_05_Low.mtl

#
# object M_Stone_05_Low
#

v  -0.5605 1.0445 -0.1852
v  -1.0458 0.8816 0.4638
v  -0.6996 0.8225 1.2790
v  -0.9850 -0.0135 0.7717
v  -0.6357 -0.0086 0.0002
v  0.3730 -0.0455 0.5389
v  0.7065 1.5133 0.3683
v  1.3261 1.3502 0.1894
v  0.4461 1.3031 -1.0620
v  0.6735 0.5869 0.0369
v  0.3705 0.7852 1.0156
v  -0.1052 0.5557 -0.2229
v  -0.5871 2.1265 0.0940
v  -0.7555 1.9877 1.0356
v  0.0972 1.8595 0.7575
v  -1.1220 1.6940 1.1945
v  -1.1598 1.2746 1.1411
v  -1.0119 1.6334 1.8355
v  -1.2564 2.0181 -0.2200
v  -0.5071 1.9524 0.0783
v  -1.2112 1.9893 0.4019
v  -0.4575 2.0381 -0.6165
v  0.2279 2.1385 -0.4007
v  -0.9548 1.2133 1.3259
v  0.2957 1.1725 0.8510
v  -0.3865 1.2682 2.1828
v  -0.2794 1.1490 0.5205
v  -0.9324 1.2532 -0.4448
v  0.2365 1.3375 -0.3322
v  0.1366 0.9335 -0.1929
v  0.2965 0.7052 0.7200
v  0.9139 0.8777 -1.1189
v  -0.2612 0.0631 -1.4732
v  -0.3546 0.1681 -0.8885
v  -0.8731 0.0819 -0.8454
v  0.7234 2.0006 -1.4114
v  -0.0416 1.4337 -1.9486
v  -0.1166 1.7959 -1.8236
v  -0.5665 1.3291 -1.2230
v  -1.1959 1.2780 -0.5944
v  -1.3628 1.5172 -0.4511
v  -0.6472 0.7803 -1.4798
v  -0.5651 0.1428 -1.4803
v  -1.3427 0.5390 -0.7681
v  -0.0162 0.6301 -2.2441
v  1.7257 0.3146 -1.5038
v  0.0522 0.2551 -2.3359
v  1.1062 1.8283 1.3965
v  0.4292 1.5961 2.1796
v  1.0466 1.3023 1.3207
v  1.4122 1.7267 -1.1979
v  1.4428 1.4691 -1.2011
v  1.6539 0.0950 -0.6930
v  1.3285 0.0296 -1.5887
v  1.6430 0.7148 0.5564
v  1.6950 0.3985 0.5437
v  1.6774 0.6713 -0.1430
v  -0.5575 1.9084 -1.2795
v  -1.2279 1.7381 -0.5638
v  -1.0634 2.0288 -0.3260
v  -0.3212 0.0835 2.2409
v  0.6635 0.1435 1.9631
v  0.6035 0.6378 0.9429
v  0.8166 1.3322 1.8043
v  1.0309 0.7206 1.1466
v  1.3299 1.0770 0.5701
v  0.7012 0.5882 -0.7104
v  -0.6460 0.6086 2.3359
v  0.5602 0.4429 2.2449
v  -1.0352 0.4696 1.8568
v  -0.9847 0.1740 1.9974
v  0.9883 1.9946 -1.1769
v  1.4329 1.8051 0.3437
v  1.3755 1.9000 -0.9685
v  -0.9466 1.1712 0.2799
v  -0.5571 1.0861 1.7373
v  -0.5535 1.2885 1.5357
v  0.1495 1.3814 1.8109
v  0.7529 0.9833 2.0961
v  -1.2071 0.1048 -0.8899
v  -1.2213 0.6027 0.9133
v  -1.4411 0.0431 0.4431
v  -1.1359 0.0723 1.3054
v  -0.8390 0.7006 -0.8155
v  -0.9213 0.6881 -0.0511
v  -1.0217 0.9731 -0.0680
v  1.2682 0.6403 -0.2893
v  0.2305 0.6911 -1.8185
v  0.5836 0.7104 -1.4953
v  -0.9597 1.3464 1.9516
v  0.4175 1.7481 2.1833
v  -0.3156 1.0092 -0.9965
v  -1.0464 0.9354 -0.5943
v  0.9576 0.9017 -1.7078
v  1.4451 1.6554 0.6647
v  1.3864 1.2860 0.4740
v  1.4104 1.2310 -0.7989
v  1.2684 1.2954 -0.2876
v  -0.0058 1.3680 -0.8292
v  0.2068 1.1177 -1.9038
v  -0.6184 1.1064 -1.6490
v  -0.3550 1.1389 -0.2500
v  1.2448 0.7012 1.4730
v  1.1136 0.1261 1.4861
v  1.4316 0.2705 1.0283
v  -0.0310 0.7421 2.0452
v  0.5573 0.6381 2.2398
v  -0.0602 1.3859 1.3728
v  0.1515 1.3589 0.0779
v  -0.0103 1.9711 -1.6506
v  -0.3917 2.1052 -0.7085
v  -0.5430 2.0230 -1.1512
v  -0.6718 1.7246 2.2624
v  0.2972 1.7816 1.0877
v  -0.5513 1.8794 2.0034
v  0.3020 1.8416 1.9908
v  1.4809 1.0642 0.0471
v  0.9399 1.1348 -0.7096
v  1.2850 0.6793 0.6605
v  -0.1592 0.6723 -1.6905
v  -0.6487 0.7211 -1.3197
v  1.1065 1.4037 0.4524
v  0.5304 1.3228 1.9224
v  1.6521 0.7000 -0.6641
v  1.6533 0.6011 -1.5218
v  0.3093 1.2061 -1.7333
v  1.1721 2.4994 0.5657
v  1.2020 2.0511 0.4635
v  1.5467 2.2033 -0.1576
v  -0.7450 2.0483 -0.7411
v  -1.2608 2.4078 -0.5246
v  -0.1435 2.6515 -0.8942
v  0.9066 1.2055 0.5128
v  0.4287 0.0224 -2.1068
v  -0.1607 2.7421 0.0703
v  0.2090 2.4658 0.7611
v  1.1566 2.6760 -0.4225
v  -1.1770 2.4581 0.2272
v  -0.5514 1.2734 -0.9183
v  0.1540 1.2654 -1.2016
v  1.3925 1.9916 -0.1685
v  0.5005 2.6547 -0.9791
v  -0.1200 2.7830 -0.4021
v  -0.9345 1.2200 -0.7814
v  0.2670 0.1874 -1.1189
v  0.5518 0.0677 -1.5311
v  1.4460 2.6084 -0.1951
v  -0.9035 2.0361 1.3526
v  0.2155 1.9473 0.7080
v  -0.0639 2.0862 1.5118
v  -1.4303 1.9552 -0.1512
v  -1.4409 1.7906 0.2801
v  1.0435 0.0128 0.4459
v  0.4541 0.1838 -0.7605
v  1.5782 0.0955 0.4466
v  -0.5809 0.6096 0.0240
v  -1.1818 2.3626 1.2878
v  -0.2774 2.4283 1.6547
v  0.4944 2.4489 -1.1532
v  0.5609 2.1707 -1.1754
v  -0.1023 2.0860 -0.8863
v  -0.9965 2.6759 -0.4528
v  -0.5782 2.7659 -0.0814
v  -0.9255 2.6109 0.7135
v  -0.3845 1.2205 -1.4983
v  -1.4492 0.6648 0.2734
v  -1.4951 0.8460 -0.3510
v  0.5404 2.5353 1.3688
v  0.4336 2.0678 1.3416
v  1.0176 2.2451 0.9812
v  -0.3489 2.5376 1.4601
v  0.4218 0.6182 2.0267
v  -0.2759 0.6199 1.7407
v  0.6958 0.6439 1.4449
v  0.7113 0.8069 2.1178
v  -1.6295 1.6678 -0.0417
v  -1.5125 1.2609 0.3324
v  1.0020 0.6713 0.7704
v  -1.3638 1.2184 0.5783
v  0.7457 1.7621 0.5070
v  -0.5291 0.7502 2.0613
v  1.0961 1.2196 -1.3000
v  1.5684 0.8119 -1.3160
v  1.0175 0.6434 0.1970
v  -1.5953 0.0591 0.1806
v  -1.7257 0.5417 -0.2254
v  -0.8210 0.6777 0.6401
v  0.8823 2.0515 0.9739
v  -1.3095 2.0899 0.8623
v  0.1586 1.2465 -1.6688
v  -0.5124 0.9258 -1.4399
v  0.0686 0.8601 -2.0204
v  -0.6415 0.6239 1.3269
v  -0.5969 0.8599 1.7181
v  1.0219 2.4991 0.9560
v  0.7675 1.9902 -0.9311
v  0.2645 2.0158 -0.8066
v  0.5777 1.0001 -1.5658
v  -0.9929 2.5522 1.2343
v  -1.3111 2.3394 0.8969
# 200 vertices

vn -0.0410 0.9974 0.0589
vn -0.3633 0.9119 0.1912
vn -0.2058 0.9649 0.1630
vn -0.0986 -0.9939 0.0491
vn -0.0065 -0.9957 -0.0923
vn 0.0512 -0.9983 -0.0260
vn 0.0340 0.9987 -0.0370
vn 0.6573 0.7536 -0.0094
vn 0.1989 0.9587 -0.2033
vn 0.0302 -0.9963 0.0809
vn -0.0541 -0.9976 -0.0440
vn -0.0484 -0.9982 0.0348
vn -0.0302 0.9957 0.0872
vn -0.1990 0.9642 0.1751
vn 0.2018 0.9703 0.1338
vn -0.8351 0.4852 0.2592
vn -0.8267 -0.4756 0.3007
vn -0.8427 0.4144 0.3437
vn -0.7482 -0.6455 -0.1537
vn 0.0282 -0.9974 -0.0669
vn -0.6940 -0.7193 -0.0306
vn 0.0494 -0.9937 -0.1005
vn 0.0081 -0.9970 0.0767
vn -0.2213 -0.9665 0.1301
vn 0.0557 -0.9967 0.0597
vn -0.0538 -0.7253 0.6863
vn 0.0073 -0.9989 -0.0470
vn -0.0044 -0.9970 -0.0775
vn 0.0199 -0.9933 -0.1137
vn 0.2119 0.9669 0.1425
vn 0.1916 0.9723 0.1337
vn 0.1504 0.9839 0.0968
vn -0.0872 -0.9961 -0.0106
vn 0.1144 -0.9933 0.0140
vn 0.0080 -0.9963 -0.0854
vn 0.2692 0.7872 -0.5549
vn -0.2296 -0.2620 -0.9374
vn -0.3156 0.4279 -0.8469
vn -0.5798 -0.6302 -0.5164
vn -0.5503 -0.6959 -0.4614
vn -0.8198 -0.0586 -0.5697
vn -0.7112 0.3569 -0.6056
vn -0.5711 -0.6364 -0.5186
vn -0.7416 0.2456 -0.6243
vn -0.2769 0.3776 -0.8836
vn 0.8519 -0.2385 -0.4662
vn -0.2155 -0.2969 -0.9303
vn 0.6519 0.6434 0.4013
vn 0.4419 -0.2344 0.8659
vn 0.5994 -0.6972 0.3933
vn 0.7935 0.3419 -0.5035
vn 0.8388 -0.1996 -0.5066
vn 0.6898 -0.7240 0.0014
vn 0.3369 -0.8593 -0.3847
vn 0.6359 0.7601 0.1339
vn 0.9663 -0.1250 0.2252
vn 0.7123 0.7018 -0.0065
vn -0.6934 0.3598 -0.6243
vn -0.7080 0.3534 -0.6114
vn -0.3401 0.9162 -0.2118
vn -0.0494 -0.7298 0.6819
vn 0.3848 -0.7777 0.4971
vn 0.0487 0.9988 -0.0020
vn 0.5824 0.6538 0.4831
vn 0.7143 -0.6297 0.3055
vn 0.9096 0.2488 0.3328
vn 0.1132 -0.9886 -0.0994
vn -0.3801 0.4084 0.8299
vn 0.4583 -0.2148 0.8624
vn -0.8477 0.4131 0.3329
vn -0.6833 -0.5209 0.5117
vn 0.2953 0.9356 -0.1934
vn 0.6772 0.7346 0.0414
vn 0.6739 0.7331 -0.0918
vn -0.7294 0.6720 0.1277
vn -0.6519 0.2764 0.7061
vn -0.5875 0.7573 0.2851
vn -0.1372 0.8003 0.5838
vn 0.6233 0.1141 0.7736
vn -0.5582 -0.6636 -0.4981
vn -0.8130 0.4927 0.3104
vn -0.7055 -0.6438 0.2963
vn -0.7121 -0.6604 0.2384
vn -0.6871 -0.6978 -0.2025
vn -0.6858 -0.7277 0.0028
vn -0.9994 -0.0262 0.0209
vn 0.6959 -0.6547 -0.2950
vn 0.1982 -0.6404 -0.7420
vn 0.6539 -0.5919 -0.4712
vn -0.6801 -0.5315 0.5050
vn 0.3657 0.4936 0.7891
vn -0.0394 0.9956 -0.0851
vn -0.3696 0.8992 -0.2343
vn 0.2780 0.8193 -0.5015
vn 0.9612 0.1107 0.2526
vn 0.7036 -0.7032 0.1019
vn 0.6377 -0.7703 -0.0009
vn -0.1491 -0.9888 0.0077
vn 0.0388 -0.9927 0.1146
vn 0.2178 0.3980 -0.8912
vn -0.6460 0.3051 -0.6997
vn -0.1150 0.9930 -0.0255
vn 0.6322 0.6426 0.4330
vn 0.5626 -0.7031 0.4349
vn 0.8436 -0.3251 0.4274
vn 0.0502 0.9737 0.2224
vn 0.3933 0.5471 0.7389
vn -0.1759 0.9844 0.0042
vn -0.2860 0.9538 -0.0918
vn -0.0442 0.8534 -0.5193
vn -0.0467 0.9958 -0.0787
vn -0.3802 0.8578 -0.3458
vn -0.3859 0.3770 0.8420
vn 0.0932 0.9955 0.0179
vn -0.1754 0.9464 0.2712
vn 0.0875 0.9766 0.1967
vn 0.9781 0.1268 -0.1651
vn 0.7398 0.4796 -0.4719
vn 0.6951 -0.6621 0.2799
vn -0.2587 -0.7603 -0.5958
vn -0.6045 -0.7168 -0.3476
vn 0.4773 0.8613 0.1746
vn 0.4174 -0.7587 0.5001
vn 0.7398 0.6673 0.0854
vn 0.7447 0.3600 -0.5619
vn 0.1675 -0.7933 -0.5853
vn 0.6489 0.6826 0.3362
vn 0.6247 -0.7254 0.2890
vn 0.9783 -0.1568 -0.1353
vn -0.2761 -0.6362 -0.7204
vn -0.8335 0.2030 -0.5139
vn -0.2365 0.6199 -0.7482
vn 0.0942 -0.9954 -0.0169
vn 0.1696 -0.7887 -0.5909
vn 0.0777 0.9761 0.2032
vn 0.0560 0.9945 0.0888
vn 0.4173 0.8531 -0.3131
vn -0.8672 0.4970 0.0313
vn -0.0011 -0.9998 -0.0208
vn -0.0082 -0.9863 0.1650
vn 0.5019 -0.8591 -0.1004
vn 0.1916 0.8162 -0.5451
vn -0.0059 0.9964 -0.0849
vn -0.7285 0.6663 -0.1594
vn -0.0067 -0.9900 0.1410
vn -0.0403 -0.9890 0.1421
vn 0.7259 0.6734 -0.1401
vn -0.3285 -0.7212 0.6099
vn 0.0550 -0.9983 0.0197
vn 0.1168 -0.6992 0.7054
vn -0.6217 0.7561 -0.2045
vn -0.7787 0.5139 0.3599
vn 0.0882 -0.9961 -0.0022
vn -0.0179 -0.9975 -0.0678
vn 0.6203 -0.7721 0.1381
vn -0.1146 -0.9923 0.0461
vn -0.7474 0.1919 0.6360
vn -0.0356 0.2896 0.9565
vn 0.1439 0.3097 -0.9399
vn 0.1886 -0.3033 -0.9340
vn -0.2371 -0.6144 -0.7526
vn -0.4475 0.8382 -0.3117
vn -0.1133 0.9922 0.0515
vn -0.2787 0.9557 0.0945
vn -0.1600 0.9675 -0.1956
vn -0.7803 0.5124 0.3587
vn -0.6021 0.7726 -0.2013
vn 0.3707 0.6553 0.6582
vn 0.3162 -0.6798 0.6617
vn 0.7813 -0.2000 0.5912
vn -0.0236 0.9547 0.2965
vn -0.0241 -0.7126 0.7012
vn -0.2481 -0.8619 0.4422
vn 0.1089 -0.9935 -0.0323
vn 0.3925 -0.2981 0.8701
vn -0.9872 0.1116 -0.1140
vn -0.7973 -0.5698 0.1991
vn 0.0073 -0.9959 0.0897
vn -0.6769 -0.6920 0.2507
vn 0.0634 0.9961 0.0619
vn -0.2092 0.9413 0.2650
vn 0.3265 -0.8259 -0.4598
vn 0.5644 0.8152 -0.1298
vn 0.0697 0.9949 0.0733
vn -0.7666 -0.6163 0.1804
vn -0.9853 0.1361 -0.1029
vn -0.6626 -0.7259 0.1844
vn 0.4371 -0.7936 0.4233
vn -0.8406 -0.5272 0.1241
vn 0.1495 0.9334 -0.3262
vn -0.3563 0.8678 -0.3464
vn -0.0781 0.8477 -0.5247
vn -0.5538 -0.8196 0.1470
vn -0.7437 -0.2005 0.6377
vn 0.6574 0.6225 0.4247
vn 0.3776 -0.7681 -0.5171
vn -0.0906 -0.9953 -0.0356
vn 0.7709 0.3026 -0.5605
vn -0.3655 0.8534 0.3716
vn -0.9190 0.3873 0.0729
# 200 vertex normals

vt 0.0000 0.0000 0.0000
# 1 texture coords

o M_Stone_05_Low
g M_Stone_05_Low
usemtl M_Stone_05_Low_default
s 1
f 1/1/1 2/1/2 3/1/3 
f 4/1/4 5/1/5 6/1/6 
f 7/1/7 8/1/8 9/1/9 
f 10/1/10 11/1/11 12/1/12 
f 13/1/13 14/1/14 15/1/15 
f 16/1/16 17/1/17 18/1/18 
f 19/1/19 20/1/20 21/1/21 
f 22/1/22 23/1/23 20/1/20 
f 24/1/24 25/1/25 26/1/26 
f 27/1/27 28/1/28 29/1/29 
f 30/1/30 31/1/31 32/1/32 
f 33/1/33 34/1/34 35/1/35 
f 36/1/36 37/1/37 38/1/38 
f 39/1/39 40/1/40 41/1/41 
f 42/1/42 43/1/43 44/1/44 
f 45/1/45 46/1/46 47/1/47 
f 48/1/48 49/1/49 50/1/50 
f 51/1/51 52/1/52 37/1/37 
f 46/1/46 53/1/53 54/1/54 
f 55/1/55 56/1/56 57/1/57 
f 58/1/58 39/1/39 59/1/59 
f 13/1/13 60/1/60 14/1/14 
f 61/1/61 6/1/6 62/1/62 
f 63/1/63 55/1/55 57/1/57 
f 64/1/64 65/1/65 66/1/66 
f 10/1/10 12/1/12 67/1/67 
f 68/1/68 61/1/61 69/1/69 
f 70/1/70 71/1/71 68/1/68 
f 72/1/72 13/1/13 15/1/15 
f 73/1/73 52/1/52 74/1/74 
f 75/1/75 76/1/76 77/1/77 
f 78/1/78 76/1/76 79/1/79 
f 44/1/44 43/1/43 80/1/80 
f 81/1/81 82/1/82 83/1/83 
f 84/1/84 85/1/85 86/1/86 
f 87/1/87 88/1/88 89/1/89 
f 90/1/90 24/1/24 26/1/26 
f 91/1/91 49/1/49 48/1/48 
f 92/1/92 93/1/93 1/1/1 
f 1/1/1 94/1/94 92/1/92 
f 95/1/95 96/1/96 52/1/52 
f 97/1/97 98/1/98 99/1/99 
f 100/1/100 88/1/88 101/1/101 
f 102/1/102 75/1/75 77/1/77 
f 103/1/103 104/1/104 105/1/105 
f 106/1/106 107/1/107 103/1/103 
f 108/1/108 7/1/7 109/1/109 
f 79/1/79 64/1/64 78/1/78 
f 36/1/36 110/1/110 111/1/111 
f 111/1/111 112/1/112 60/1/60 
f 69/1/69 61/1/61 62/1/62 
f 107/1/107 104/1/104 103/1/103 
f 91/1/91 113/1/113 49/1/49 
f 114/1/114 115/1/115 116/1/116 
f 117/1/117 87/1/87 118/1/118 
f 117/1/117 119/1/119 87/1/87 
f 67/1/67 12/1/12 120/1/120 
f 101/1/101 120/1/120 121/1/121 
f 115/1/115 113/1/113 91/1/91 
f 16/1/16 18/1/18 14/1/14 
f 7/1/7 64/1/64 122/1/122 
f 7/1/7 78/1/78 64/1/64 
f 113/1/113 26/1/26 49/1/49 
f 26/1/26 25/1/25 123/1/123 
f 124/1/124 53/1/53 46/1/46 
f 94/1/94 125/1/125 45/1/45 
f 37/1/37 126/1/126 39/1/39 
f 38/1/38 37/1/37 39/1/39 
f 127/1/127 128/1/128 129/1/129 
f 130/1/130 131/1/131 132/1/132 
f 133/1/133 29/1/29 98/1/98 
f 123/1/123 25/1/25 50/1/50 
f 33/1/33 35/1/35 43/1/43 
f 46/1/46 134/1/134 47/1/47 
f 135/1/135 136/1/136 137/1/137 
f 131/1/131 19/1/19 138/1/138 
f 139/1/139 99/1/99 28/1/28 
f 97/1/97 99/1/99 140/1/140 
f 106/1/106 103/1/103 63/1/63 
f 30/1/30 3/1/3 31/1/31 
f 129/1/129 128/1/128 141/1/141 
f 137/1/137 142/1/142 143/1/143 
f 144/1/144 84/1/84 86/1/86 
f 102/1/102 144/1/144 75/1/75 
f 5/1/5 34/1/34 6/1/6 
f 53/1/53 145/1/145 146/1/146 
f 136/1/136 127/1/127 147/1/147 
f 148/1/148 149/1/149 150/1/150 
f 151/1/151 152/1/152 14/1/14 
f 112/1/112 59/1/59 60/1/60 
f 53/1/53 153/1/153 154/1/154 
f 153/1/153 155/1/155 104/1/104 
f 120/1/120 12/1/12 121/1/121 
f 84/1/84 156/1/156 85/1/85 
f 138/1/138 19/1/19 21/1/21 
f 157/1/157 148/1/148 158/1/158 
f 42/1/42 44/1/44 93/1/93 
f 2/1/2 81/1/81 3/1/3 
f 159/1/159 129/1/129 160/1/160 
f 161/1/161 130/1/130 132/1/132 
f 8/1/8 117/1/117 118/1/118 
f 122/1/122 64/1/64 66/1/66 
f 143/1/143 132/1/132 162/1/162 
f 163/1/163 162/1/162 164/1/164 
f 7/1/7 9/1/9 109/1/109 
f 9/1/9 165/1/165 102/1/102 
f 166/1/166 82/1/82 81/1/81 
f 167/1/167 166/1/166 81/1/81 
f 155/1/155 153/1/153 53/1/53 
f 57/1/57 56/1/56 53/1/53 
f 168/1/168 169/1/169 170/1/170 
f 171/1/171 158/1/158 168/1/168 
f 172/1/172 173/1/173 174/1/174 
f 175/1/175 65/1/65 64/1/64 
f 176/1/176 177/1/177 152/1/152 
f 151/1/151 176/1/176 152/1/152 
f 101/1/101 84/1/84 144/1/144 
f 102/1/102 165/1/165 144/1/144 
f 50/1/50 133/1/133 96/1/96 
f 95/1/95 50/1/50 96/1/96 
f 147/1/147 127/1/127 129/1/129 
f 147/1/147 129/1/129 159/1/159 
f 178/1/178 11/1/11 10/1/10 
f 66/1/66 65/1/65 119/1/119 
f 108/1/108 109/1/109 102/1/102 
f 109/1/109 9/1/9 102/1/102 
f 40/1/40 27/1/27 179/1/179 
f 40/1/40 177/1/177 176/1/176 
f 116/1/116 48/1/48 114/1/114 
f 180/1/180 73/1/73 74/1/74 
f 179/1/179 27/1/27 24/1/24 
f 152/1/152 179/1/179 17/1/17 
f 130/1/130 20/1/20 19/1/19 
f 131/1/131 130/1/130 19/1/19 
f 3/1/3 70/1/70 181/1/181 
f 3/1/3 106/1/106 63/1/63 
f 37/1/37 52/1/52 126/1/126 
f 182/1/182 140/1/140 126/1/126 
f 18/1/18 115/1/115 14/1/14 
f 15/1/15 14/1/14 115/1/115 
f 124/1/124 125/1/125 183/1/183 
f 184/1/184 124/1/124 32/1/32 
f 185/1/185 5/1/5 4/1/4 
f 186/1/186 80/1/80 185/1/185 
f 90/1/90 26/1/26 113/1/113 
f 18/1/18 17/1/17 90/1/90 
f 148/1/148 150/1/150 158/1/158 
f 168/1/168 158/1/158 169/1/169 
f 187/1/187 156/1/156 11/1/11 
f 75/1/75 187/1/187 76/1/76 
f 52/1/52 96/1/96 97/1/97 
f 52/1/52 182/1/182 126/1/126 
f 128/1/128 149/1/149 23/1/23 
f 169/1/169 149/1/149 188/1/188 
f 36/1/36 51/1/51 37/1/37 
f 72/1/72 180/1/180 74/1/74 
f 18/1/18 90/1/90 113/1/113 
f 115/1/115 18/1/18 113/1/113 
f 70/1/70 83/1/83 71/1/71 
f 61/1/61 4/1/4 6/1/6 
f 162/1/162 132/1/132 131/1/131 
f 162/1/162 131/1/131 138/1/138 
f 39/1/39 126/1/126 139/1/139 
f 39/1/39 139/1/139 40/1/40 
f 21/1/21 149/1/149 148/1/148 
f 189/1/189 148/1/148 157/1/157 
f 8/1/8 118/1/118 9/1/9 
f 9/1/9 190/1/190 165/1/165 
f 191/1/191 42/1/42 93/1/93 
f 94/1/94 45/1/45 192/1/192 
f 187/1/187 11/1/11 193/1/193 
f 173/1/173 11/1/11 174/1/174 
f 71/1/71 83/1/83 61/1/61 
f 71/1/71 61/1/61 68/1/68 
f 187/1/187 193/1/193 194/1/194 
f 194/1/194 173/1/173 172/1/172 
f 133/1/133 98/1/98 96/1/96 
f 96/1/96 98/1/98 97/1/97 
f 195/1/195 168/1/168 170/1/170 
f 136/1/136 168/1/168 127/1/127 
f 165/1/165 101/1/101 144/1/144 
f 190/1/190 101/1/101 165/1/165 
f 87/1/87 89/1/89 118/1/118 
f 89/1/89 88/1/88 100/1/100 
f 72/1/72 111/1/111 13/1/13 
f 111/1/111 60/1/60 13/1/13 
f 191/1/191 45/1/45 42/1/42 
f 45/1/45 43/1/43 42/1/42 
f 3/1/3 181/1/181 106/1/106 
f 68/1/68 107/1/107 106/1/106 
f 108/1/108 78/1/78 7/1/7 
f 77/1/77 76/1/76 78/1/78 
f 141/1/141 196/1/196 129/1/129 
f 141/1/141 128/1/128 23/1/23 
f 171/1/171 168/1/168 136/1/136 
f 135/1/135 164/1/164 136/1/136 
f 160/1/160 161/1/161 159/1/159 
f 196/1/196 141/1/141 197/1/197 
f 167/1/167 44/1/44 186/1/186 
f 44/1/44 80/1/80 186/1/186 
f 172/1/172 65/1/65 175/1/175 
f 79/1/79 194/1/194 172/1/172 
f 63/1/63 103/1/103 55/1/55 
f 103/1/103 56/1/56 55/1/55 
f 198/1/198 89/1/89 100/1/100 
f 190/1/190 9/1/9 198/1/198 
f 38/1/38 39/1/39 58/1/58 
f 110/1/110 112/1/112 111/1/111 
f 133/1/133 27/1/27 29/1/29 
f 27/1/27 25/1/25 24/1/24 
f 197/1/197 141/1/141 23/1/23 
f 197/1/197 23/1/23 22/1/22 
f 104/1/104 155/1/155 105/1/105 
f 56/1/56 155/1/155 53/1/53 
f 93/1/93 44/1/44 167/1/167 
f 1/1/1 93/1/93 2/1/2 
f 86/1/86 187/1/187 75/1/75 
f 144/1/144 86/1/86 75/1/75 
f 45/1/45 47/1/47 43/1/43 
f 47/1/47 134/1/134 43/1/43 
f 30/1/30 1/1/1 3/1/3 
f 30/1/30 32/1/32 1/1/1 
f 136/1/136 164/1/164 171/1/171 
f 199/1/199 157/1/157 158/1/158 
f 167/1/167 81/1/81 2/1/2 
f 93/1/93 167/1/167 2/1/2 
f 118/1/118 89/1/89 198/1/198 
f 9/1/9 118/1/118 198/1/198 
f 125/1/125 46/1/46 45/1/45 
f 124/1/124 46/1/46 125/1/125 
f 180/1/180 48/1/48 73/1/73 
f 48/1/48 50/1/50 95/1/95 
f 188/1/188 149/1/149 128/1/128 
f 170/1/170 128/1/128 195/1/195 
f 81/1/81 83/1/83 70/1/70 
f 81/1/81 70/1/70 3/1/3 
f 87/1/87 67/1/67 88/1/88 
f 87/1/87 10/1/10 67/1/67 
f 162/1/162 138/1/138 164/1/164 
f 164/1/164 200/1/200 199/1/199 
f 41/1/41 40/1/40 176/1/176 
f 41/1/41 176/1/176 151/1/151 
f 122/1/122 66/1/66 8/1/8 
f 7/1/7 122/1/122 8/1/8 
f 69/1/69 62/1/62 104/1/104 
f 62/1/62 6/1/6 104/1/104 
f 54/1/54 53/1/53 146/1/146 
f 46/1/46 54/1/54 134/1/134 
f 88/1/88 67/1/67 120/1/120 
f 101/1/101 88/1/88 120/1/120 
f 124/1/124 183/1/183 32/1/32 
f 183/1/183 125/1/125 94/1/94 
f 138/1/138 21/1/21 200/1/200 
f 138/1/138 200/1/200 164/1/164 
f 60/1/60 59/1/59 151/1/151 
f 60/1/60 151/1/151 14/1/14 
f 32/1/32 183/1/183 94/1/94 
f 32/1/32 94/1/94 1/1/1 
f 139/1/139 140/1/140 99/1/99 
f 126/1/126 140/1/140 139/1/139 
f 137/1/137 136/1/136 147/1/147 
f 147/1/147 159/1/159 137/1/137 
f 72/1/72 74/1/74 51/1/51 
f 52/1/52 51/1/51 74/1/74 
f 49/1/49 123/1/123 50/1/50 
f 49/1/49 26/1/26 123/1/123 
f 134/1/134 33/1/33 43/1/43 
f 134/1/134 54/1/54 146/1/146 
f 107/1/107 69/1/69 104/1/104 
f 107/1/107 68/1/68 69/1/69 
f 193/1/193 173/1/173 194/1/194 
f 193/1/193 11/1/11 173/1/173 
f 190/1/190 100/1/100 101/1/101 
f 190/1/190 198/1/198 100/1/100 
f 200/1/200 189/1/189 157/1/157 
f 199/1/199 200/1/200 157/1/157 
f 159/1/159 161/1/161 132/1/132 
f 143/1/143 142/1/142 132/1/132 
f 43/1/43 35/1/35 80/1/80 
f 185/1/185 80/1/80 5/1/5 
f 182/1/182 97/1/97 140/1/140 
f 52/1/52 97/1/97 182/1/182 
f 57/1/57 53/1/53 124/1/124 
f 184/1/184 57/1/57 124/1/124 
f 72/1/72 36/1/36 111/1/111 
f 72/1/72 51/1/51 36/1/36 
f 39/1/39 41/1/41 59/1/59 
f 59/1/59 41/1/41 151/1/151 
f 3/1/3 63/1/63 31/1/31 
f 32/1/32 31/1/31 184/1/184 
f 160/1/160 196/1/196 161/1/161 
f 129/1/129 196/1/196 160/1/160 
f 17/1/17 179/1/179 24/1/24 
f 17/1/17 24/1/24 90/1/90 
f 104/1/104 6/1/6 153/1/153 
f 6/1/6 34/1/34 153/1/153 
f 178/1/178 10/1/10 119/1/119 
f 119/1/119 10/1/10 87/1/87 
f 36/1/36 38/1/38 110/1/110 
f 110/1/110 38/1/38 112/1/112 
f 94/1/94 192/1/192 92/1/92 
f 192/1/192 45/1/45 191/1/191 
f 82/1/82 4/1/4 83/1/83 
f 83/1/83 4/1/4 61/1/61 
f 73/1/73 95/1/95 52/1/52 
f 48/1/48 95/1/95 73/1/73 
f 189/1/189 21/1/21 148/1/148 
f 200/1/200 21/1/21 189/1/189 
f 34/1/34 5/1/5 35/1/35 
f 35/1/35 5/1/5 80/1/80 
f 23/1/23 149/1/149 20/1/20 
f 20/1/20 149/1/149 21/1/21 
f 164/1/164 199/1/199 171/1/171 
f 199/1/199 158/1/158 171/1/171 
f 99/1/99 29/1/29 28/1/28 
f 98/1/98 29/1/29 99/1/99 
f 116/1/116 91/1/91 48/1/48 
f 115/1/115 91/1/91 116/1/116 
f 85/1/85 156/1/156 187/1/187 
f 86/1/86 85/1/85 187/1/187 
f 186/1/186 185/1/185 166/1/166 
f 167/1/167 186/1/186 166/1/166 
f 137/1/137 159/1/159 142/1/142 
f 142/1/142 159/1/159 132/1/132 
f 66/1/66 117/1/117 8/1/8 
f 66/1/66 119/1/119 117/1/117 
f 146/1/146 145/1/145 33/1/33 
f 134/1/134 146/1/146 33/1/33 
f 143/1/143 162/1/162 163/1/163 
f 137/1/137 143/1/143 135/1/135 
f 108/1/108 77/1/77 78/1/78 
f 102/1/102 77/1/77 108/1/108 
f 196/1/196 197/1/197 161/1/161 
f 161/1/161 197/1/197 22/1/22 
f 50/1/50 25/1/25 133/1/133 
f 25/1/25 27/1/27 133/1/133 
f 17/1/17 16/1/16 152/1/152 
f 14/1/14 152/1/152 16/1/16 
f 154/1/154 153/1/153 34/1/34 
f 145/1/145 34/1/34 33/1/33 
f 15/1/15 115/1/115 114/1/114 
f 114/1/114 48/1/48 180/1/180 
f 168/1/168 195/1/195 127/1/127 
f 195/1/195 128/1/128 127/1/127 
f 130/1/130 22/1/22 20/1/20 
f 161/1/161 22/1/22 130/1/130 
f 40/1/40 179/1/179 177/1/177 
f 177/1/177 179/1/179 152/1/152 
f 76/1/76 194/1/194 79/1/79 
f 76/1/76 187/1/187 194/1/194 
f 185/1/185 4/1/4 82/1/82 
f 166/1/166 185/1/185 82/1/82 
f 192/1/192 191/1/191 92/1/92 
f 191/1/191 93/1/93 92/1/92 
f 156/1/156 12/1/12 11/1/11 
f 84/1/84 12/1/12 156/1/156 
f 79/1/79 175/1/175 64/1/64 
f 79/1/79 172/1/172 175/1/175 
f 63/1/63 57/1/57 184/1/184 
f 31/1/31 63/1/63 184/1/184 
f 112/1/112 58/1/58 59/1/59 
f 112/1/112 38/1/38 58/1/58 
f 135/1/135 163/1/163 164/1/164 
f 143/1/143 163/1/163 135/1/135 
f 154/1/154 34/1/34 145/1/145 
f 53/1/53 154/1/154 145/1/145 
f 101/1/101 121/1/121 84/1/84 
f 121/1/121 12/1/12 84/1/84 
f 158/1/158 150/1/150 169/1/169 
f 150/1/150 149/1/149 169/1/169 
f 181/1/181 70/1/70 68/1/68 
f 181/1/181 68/1/68 106/1/106 
f 172/1/172 174/1/174 65/1/65 
f 174/1/174 11/1/11 178/1/178 
f 40/1/40 139/1/139 28/1/28 
f 28/1/28 27/1/27 40/1/40 
f 103/1/103 105/1/105 56/1/56 
f 105/1/105 155/1/155 56/1/56 
f 174/1/174 178/1/178 65/1/65 
f 65/1/65 178/1/178 119/1/119 
f 170/1/170 188/1/188 128/1/128 
f 169/1/169 188/1/188 170/1/170 
f 114/1/114 180/1/180 15/1/15 
f 15/1/15 180/1/180 72/1/72 
# 0 polygons - 384 triangles

