# 3ds Max Wavefront OBJ Exporter v0.97b - (c)2007 guruware
# File Created: 02.03.2021 00:04:20

mtllib S_Stone_02_Low.mtl

#
# object S_Stone_02_Low
#

v  -0.0002 0.4355 0.1559
v  0.0956 0.2634 0.2388
v  0.0233 0.5069 0.0330
v  0.0593 -0.0820 0.2449
v  0.0078 -0.2930 0.2493
v  0.1707 -0.1233 0.2403
v  0.2257 -0.1927 0.0761
v  0.2415 -0.2590 -0.0179
v  0.3384 -0.0707 -0.0072
v  -0.0619 -0.3079 -0.2582
v  -0.1445 -0.4201 -0.1999
v  -0.2117 -0.3780 -0.2371
v  -0.1277 0.4328 0.0115
v  -0.0478 0.4891 -0.0699
v  -0.1989 0.4279 -0.1010
v  -0.3080 -0.0803 0.2612
v  -0.3092 -0.2975 0.1887
v  -0.1971 -0.2892 0.2676
v  0.1118 0.1414 -0.3067
v  0.1785 -0.0303 -0.3251
v  -0.0627 -0.0164 -0.3109
v  0.3348 0.2206 0.0415
v  0.3348 0.2163 -0.1330
v  0.2599 0.4011 -0.0832
v  -0.2640 0.3221 -0.1234
v  -0.3567 0.0984 0.0523
v  -0.3271 0.1816 0.2425
v  -0.1161 0.2790 -0.2589
v  -0.3057 0.1781 -0.1631
v  -0.3349 -0.0306 -0.1713
v  -0.3835 -0.0673 0.0467
v  -0.2441 -0.3940 -0.1864
v  -0.2317 -0.4101 -0.0892
v  -0.3582 -0.3930 -0.0332
v  0.0844 -0.3399 0.1283
v  0.1613 -0.3658 -0.0185
v  -0.3016 -0.4467 0.0213
v  -0.1626 -0.5131 0.0083
v  -0.2826 -0.4008 0.1485
v  0.3625 -0.0081 -0.1020
v  0.2498 -0.1440 -0.1342
v  0.1767 0.2437 -0.2866
v  0.3070 0.0086 -0.2053
v  -0.0254 0.2535 0.2697
v  -0.2477 0.3325 0.0098
v  -0.2285 0.3331 0.1867
v  0.0014 -0.4733 -0.0668
v  -0.1499 -0.5005 -0.1403
v  0.0556 -0.3235 -0.2257
v  -0.0728 -0.4427 0.1393
v  -0.0922 -0.5091 -0.0181
v  0.0418 -0.4638 -0.0027
v  0.1636 0.3826 -0.2378
v  0.0411 0.5136 -0.0851
v  0.0958 0.4269 -0.2266
v  -0.0139 0.4424 -0.2117
v  -0.1408 0.2513 0.2763
v  -0.1795 -0.0509 0.3251
v  0.2125 0.4560 -0.0767
v  0.1574 0.4548 -0.1703
v  0.1292 0.4086 -0.0045
v  0.2034 0.2903 0.0298
v  -0.0432 -0.0892 0.2659
v  0.1099 -0.3485 -0.1477
v  -0.0212 -0.1480 -0.3123
v  -0.2207 -0.2974 -0.2885
v  -0.0380 0.4846 -0.1450
v  -0.1772 0.0126 -0.3065
v  -0.2355 0.2028 -0.1998
v  -0.1281 0.3985 0.1722
v  0.0962 0.1196 0.3003
v  0.2076 0.1518 0.2305
v  -0.3630 0.0765 0.2464
v  -0.3671 -0.1698 0.1733
v  -0.3381 -0.3236 -0.1895
v  -0.3845 -0.2991 0.1196
v  0.3026 0.1653 0.1755
v  0.3705 0.1502 -0.0442
v  -0.2514 0.0393 -0.2316
v  0.2468 0.0109 0.2656
v  0.3302 -0.0033 0.0487
v  0.3845 0.0594 -0.0841
v  0.2933 0.2140 0.0878
v  0.2530 0.2985 0.0052
v  -0.2007 -0.2256 -0.3114
v  -0.1956 0.1298 0.3109
v  0.0455 0.3277 -0.2574
v  0.0509 0.2288 0.2730
v  -0.0642 0.1055 0.3102
v  -0.0084 0.5150 0.0076
v  -0.0811 0.4674 0.0899
v  0.2477 -0.0810 0.1942
v  0.1899 -0.1031 -0.2808
v  -0.1706 -0.4435 0.1353
v  -0.2017 -0.1398 -0.3154
v  -0.1593 -0.5150 -0.0664
v  0.3491 0.0753 -0.1558
v  0.1730 -0.1831 -0.2478
v  0.1769 -0.1790 0.2151
v  -0.2607 -0.1828 -0.2402
# 100 vertices

vn 0.2476 0.7170 0.6517
vn 0.4651 0.5412 0.7005
vn 0.2965 0.8654 0.4039
vn 0.0962 -0.1408 0.9853
vn 0.2806 -0.4284 0.8589
vn 0.2009 -0.2434 0.9489
vn 0.7777 -0.4920 0.3912
vn 0.8231 -0.5677 0.0175
vn 0.8991 -0.3641 0.2429
vn 0.1640 -0.4453 -0.8802
vn 0.1289 -0.5770 -0.8065
vn -0.2262 -0.6147 -0.7556
vn -0.5870 0.7932 0.1619
vn -0.4278 0.9031 -0.0368
vn -0.6350 0.7436 -0.2093
vn -0.5619 -0.1682 0.8100
vn -0.5876 -0.3312 0.7382
vn -0.1807 -0.3911 0.9024
vn -0.0194 0.1558 -0.9876
vn 0.3716 -0.1270 -0.9197
vn -0.0475 0.1131 -0.9925
vn 0.8052 0.4908 0.3327
vn 0.8612 0.3145 -0.3994
vn 0.8141 0.5798 0.0342
vn -0.7981 0.4668 -0.3809
vn -0.9660 0.2491 -0.0699
vn -0.7330 0.4204 0.5348
vn -0.3351 0.3296 -0.8826
vn -0.8102 0.2675 -0.5216
vn -0.8544 0.0870 -0.5124
vn -0.9965 0.0575 -0.0611
vn -0.5294 -0.7524 -0.3919
vn -0.5346 -0.7960 -0.2840
vn -0.8049 -0.5683 -0.1709
vn 0.5894 -0.6368 0.4971
vn 0.7455 -0.6656 0.0349
vn -0.5821 -0.8129 0.0190
vn -0.1434 -0.9629 0.2287
vn -0.4699 -0.6682 0.5767
vn 0.8937 -0.3523 -0.2777
vn 0.7558 -0.4962 -0.4272
vn 0.3638 0.2485 -0.8977
vn 0.7618 -0.1654 -0.6264
vn 0.0807 0.4226 0.9027
vn -0.7649 0.6329 0.1204
vn -0.5717 0.6958 0.4347
vn 0.4233 -0.8514 -0.3098
vn -0.1812 -0.8684 -0.4615
vn 0.3612 -0.5585 -0.7468
vn 0.2078 -0.7797 0.5907
vn 0.2235 -0.9705 0.0906
vn 0.5146 -0.8460 0.1396
vn 0.4204 0.4521 -0.7867
vn 0.0828 0.9795 -0.1837
vn 0.0808 0.6126 -0.7863
vn -0.1704 0.6393 -0.7498
vn -0.1200 0.4348 0.8925
vn -0.0498 -0.1246 0.9909
vn 0.6143 0.7645 0.1955
vn 0.4130 0.7791 -0.4716
vn 0.5785 0.4624 0.6719
vn 0.4584 0.6376 0.6192
vn 0.2409 -0.1454 0.9596
vn 0.6172 -0.6405 -0.4570
vn 0.1095 -0.2518 -0.9616
vn -0.2795 -0.3495 -0.8943
vn -0.2336 0.8820 -0.4094
vn -0.3524 0.1644 -0.9213
vn -0.5568 0.2910 -0.7780
vn -0.3588 0.7533 0.5512
vn 0.2148 0.1190 0.9694
vn 0.4597 0.4974 0.7357
vn -0.8284 0.1272 0.5455
vn -0.8808 -0.1045 0.4618
vn -0.7997 -0.3111 -0.5135
vn -0.9064 -0.2727 0.3227
vn 0.6761 0.4628 0.5733
vn 0.9723 0.2248 0.0646
vn -0.6527 0.1429 -0.7440
vn 0.5800 -0.1194 0.8059
vn 0.9074 -0.2128 0.3624
vn 0.9944 -0.0521 -0.0923
vn 0.3338 0.8008 0.4973
vn 0.3046 0.6229 0.7206
vn -0.3065 -0.1391 -0.9417
vn -0.1885 0.1973 0.9620
vn -0.0513 0.2913 -0.9553
vn 0.1836 0.4074 0.8946
vn 0.0962 0.0483 0.9942
vn -0.1947 0.9738 0.1174
vn -0.4258 0.8496 0.3112
vn 0.8252 -0.4000 0.3989
vn 0.5534 -0.4231 -0.7175
vn -0.1249 -0.7877 0.6032
vn -0.4432 0.0177 -0.8962
vn -0.2769 -0.9406 -0.1964
vn 0.8019 0.0583 -0.5945
vn 0.6239 -0.4632 -0.6295
vn 0.6212 -0.4920 0.6100
vn -0.7028 0.0675 -0.7082
# 100 vertex normals

vt 0.0000 0.0000 0.0000
# 1 texture coords

o S_Stone_02_Low
g S_Stone_02_Low
usemtl S_Stone_02_Low_default
s 1
f 1/1/1 2/1/2 3/1/3 
f 4/1/4 5/1/5 6/1/6 
f 7/1/7 8/1/8 9/1/9 
f 10/1/10 11/1/11 12/1/12 
f 13/1/13 14/1/14 15/1/15 
f 16/1/16 17/1/17 18/1/18 
f 19/1/19 20/1/20 21/1/21 
f 22/1/22 23/1/23 24/1/24 
f 25/1/25 26/1/26 27/1/27 
f 19/1/19 21/1/21 28/1/28 
f 29/1/29 30/1/30 31/1/31 
f 32/1/32 33/1/33 34/1/34 
f 35/1/35 36/1/36 7/1/7 
f 37/1/37 38/1/38 39/1/39 
f 40/1/40 8/1/8 41/1/41 
f 42/1/42 43/1/43 20/1/20 
f 1/1/1 44/1/44 2/1/2 
f 45/1/45 27/1/27 46/1/46 
f 47/1/47 48/1/48 49/1/49 
f 50/1/50 51/1/51 52/1/52 
f 24/1/24 23/1/23 53/1/53 
f 54/1/54 55/1/55 56/1/56 
f 46/1/46 27/1/27 57/1/57 
f 16/1/16 18/1/18 58/1/58 
f 54/1/54 59/1/59 60/1/60 
f 61/1/61 62/1/62 59/1/59 
f 35/1/35 50/1/50 52/1/52 
f 18/1/18 5/1/5 63/1/63 
f 41/1/41 36/1/36 64/1/64 
f 65/1/65 10/1/10 66/1/66 
f 56/1/56 15/1/15 67/1/67 
f 28/1/28 68/1/68 69/1/69 
f 46/1/46 57/1/57 70/1/70 
f 45/1/45 46/1/46 70/1/70 
f 17/1/17 39/1/39 18/1/18 
f 18/1/18 50/1/50 5/1/5 
f 2/1/2 62/1/62 3/1/3 
f 2/1/2 71/1/71 72/1/72 
f 73/1/73 31/1/31 74/1/74 
f 31/1/31 75/1/75 76/1/76 
f 22/1/22 77/1/77 78/1/78 
f 2/1/2 72/1/72 62/1/62 
f 68/1/68 79/1/79 69/1/69 
f 75/1/75 32/1/32 34/1/34 
f 71/1/71 80/1/80 72/1/72 
f 80/1/80 81/1/81 77/1/77 
f 25/1/25 29/1/29 26/1/26 
f 25/1/25 28/1/28 69/1/69 
f 9/1/9 8/1/8 40/1/40 
f 77/1/77 81/1/81 82/1/82 
f 75/1/75 34/1/34 76/1/76 
f 76/1/76 37/1/37 39/1/39 
f 62/1/62 83/1/83 84/1/84 
f 62/1/62 72/1/72 83/1/83 
f 85/1/85 65/1/65 66/1/66 
f 85/1/85 66/1/66 75/1/75 
f 73/1/73 58/1/58 86/1/86 
f 58/1/58 18/1/18 63/1/63 
f 53/1/53 23/1/23 42/1/42 
f 55/1/55 87/1/87 56/1/56 
f 88/1/88 71/1/71 2/1/2 
f 86/1/86 58/1/58 89/1/89 
f 87/1/87 28/1/28 56/1/56 
f 56/1/56 28/1/28 15/1/15 
f 35/1/35 52/1/52 36/1/36 
f 64/1/64 36/1/36 47/1/47 
f 90/1/90 91/1/91 3/1/3 
f 3/1/3 59/1/59 54/1/54 
f 80/1/80 92/1/92 81/1/81 
f 80/1/80 4/1/4 6/1/6 
f 66/1/66 12/1/12 75/1/75 
f 66/1/66 10/1/10 12/1/12 
f 58/1/58 63/1/63 89/1/89 
f 89/1/89 4/1/4 80/1/80 
f 93/1/93 10/1/10 65/1/65 
f 43/1/43 93/1/93 20/1/20 
f 15/1/15 28/1/28 25/1/25 
f 15/1/15 45/1/45 13/1/13 
f 18/1/18 94/1/94 50/1/50 
f 94/1/94 38/1/38 50/1/50 
f 72/1/72 80/1/80 77/1/77 
f 83/1/83 72/1/72 77/1/77 
f 20/1/20 95/1/95 21/1/21 
f 68/1/68 95/1/95 79/1/79 
f 73/1/73 16/1/16 58/1/58 
f 73/1/73 74/1/74 16/1/16 
f 33/1/33 96/1/96 37/1/37 
f 32/1/32 48/1/48 33/1/33 
f 9/1/9 40/1/40 82/1/82 
f 23/1/23 43/1/43 42/1/42 
f 27/1/27 86/1/86 57/1/57 
f 86/1/86 89/1/89 57/1/57 
f 48/1/48 96/1/96 33/1/33 
f 48/1/48 47/1/47 51/1/51 
f 22/1/22 78/1/78 23/1/23 
f 82/1/82 97/1/97 23/1/23 
f 26/1/26 31/1/31 73/1/73 
f 29/1/29 31/1/31 26/1/26 
f 98/1/98 64/1/64 49/1/49 
f 64/1/64 47/1/47 49/1/49 
f 62/1/62 84/1/84 59/1/59 
f 59/1/59 24/1/24 60/1/60 
f 89/1/89 80/1/80 71/1/71 
f 88/1/88 89/1/89 71/1/71 
f 15/1/15 25/1/25 45/1/45 
f 45/1/45 25/1/25 27/1/27 
f 40/1/40 93/1/93 43/1/43 
f 82/1/82 40/1/40 97/1/97 
f 75/1/75 12/1/12 32/1/32 
f 12/1/12 48/1/48 32/1/32 
f 91/1/91 1/1/1 3/1/3 
f 70/1/70 57/1/57 1/1/1 
f 92/1/92 7/1/7 81/1/81 
f 99/1/99 35/1/35 7/1/7 
f 42/1/42 20/1/20 19/1/19 
f 87/1/87 19/1/19 28/1/28 
f 14/1/14 13/1/13 91/1/91 
f 13/1/13 45/1/45 70/1/70 
f 8/1/8 36/1/36 41/1/41 
f 7/1/7 36/1/36 8/1/8 
f 87/1/87 42/1/42 19/1/19 
f 53/1/53 42/1/42 87/1/87 
f 29/1/29 79/1/79 30/1/30 
f 30/1/30 75/1/75 31/1/31 
f 55/1/55 53/1/53 87/1/87 
f 60/1/60 24/1/24 53/1/53 
f 100/1/100 75/1/75 30/1/30 
f 100/1/100 85/1/85 75/1/75 
f 36/1/36 52/1/52 47/1/47 
f 47/1/47 52/1/52 51/1/51 
f 14/1/14 91/1/91 90/1/90 
f 67/1/67 54/1/54 56/1/56 
f 97/1/97 43/1/43 23/1/23 
f 97/1/97 40/1/40 43/1/43 
f 74/1/74 17/1/17 16/1/16 
f 17/1/17 76/1/76 39/1/39 
f 60/1/60 53/1/53 55/1/55 
f 54/1/54 60/1/60 55/1/55 
f 81/1/81 7/1/7 9/1/9 
f 81/1/81 9/1/9 82/1/82 
f 20/1/20 93/1/93 65/1/65 
f 20/1/20 65/1/65 95/1/95 
f 84/1/84 22/1/22 24/1/24 
f 59/1/59 84/1/84 24/1/24 
f 91/1/91 70/1/70 1/1/1 
f 13/1/13 70/1/70 91/1/91 
f 74/1/74 76/1/76 17/1/17 
f 76/1/76 74/1/74 31/1/31 
f 41/1/41 64/1/64 98/1/98 
f 40/1/40 41/1/41 93/1/93 
f 63/1/63 5/1/5 4/1/4 
f 89/1/89 63/1/63 4/1/4 
f 79/1/79 100/1/100 30/1/30 
f 79/1/79 95/1/95 100/1/100 
f 3/1/3 54/1/54 90/1/90 
f 90/1/90 54/1/54 67/1/67 
f 37/1/37 96/1/96 38/1/38 
f 48/1/48 51/1/51 96/1/96 
f 57/1/57 89/1/89 88/1/88 
f 57/1/57 44/1/44 1/1/1 
f 84/1/84 83/1/83 22/1/22 
f 83/1/83 77/1/77 22/1/22 
f 99/1/99 92/1/92 80/1/80 
f 92/1/92 99/1/99 7/1/7 
f 98/1/98 49/1/49 93/1/93 
f 41/1/41 98/1/98 93/1/93 
f 69/1/69 29/1/29 25/1/25 
f 69/1/69 79/1/79 29/1/29 
f 14/1/14 67/1/67 15/1/15 
f 14/1/14 90/1/90 67/1/67 
f 38/1/38 51/1/51 50/1/50 
f 38/1/38 96/1/96 51/1/51 
f 2/1/2 44/1/44 88/1/88 
f 44/1/44 57/1/57 88/1/88 
f 34/1/34 37/1/37 76/1/76 
f 33/1/33 37/1/37 34/1/34 
f 5/1/5 50/1/50 35/1/35 
f 5/1/5 35/1/35 99/1/99 
f 10/1/10 49/1/49 11/1/11 
f 93/1/93 49/1/49 10/1/10 
f 28/1/28 21/1/21 68/1/68 
f 21/1/21 95/1/95 68/1/68 
f 86/1/86 27/1/27 73/1/73 
f 26/1/26 73/1/73 27/1/27 
f 78/1/78 77/1/77 82/1/82 
f 78/1/78 82/1/82 23/1/23 
f 6/1/6 5/1/5 99/1/99 
f 6/1/6 99/1/99 80/1/80 
f 39/1/39 38/1/38 94/1/94 
f 18/1/18 39/1/39 94/1/94 
f 3/1/3 62/1/62 61/1/61 
f 3/1/3 61/1/61 59/1/59 
f 11/1/11 49/1/49 48/1/48 
f 11/1/11 48/1/48 12/1/12 
f 95/1/95 65/1/65 85/1/85 
f 95/1/95 85/1/85 100/1/100 
# 0 polygons - 196 triangles

