# 3ds Max Wavefront OBJ Exporter v0.97b - (c)2007 guruware
# File Created: 01.03.2021 09:34:40

mtllib Vase_04.mtl

#
# object Vase_04
#

v  0.1657 0.0000 0.0957
v  0.0957 0.0000 0.1657
v  -0.0000 0.0000 0.1914
v  -0.0957 0.0000 0.1657
v  -0.1657 0.0000 0.0957
v  -0.1914 0.0000 -0.0000
v  -0.1657 0.0000 -0.0957
v  -0.0957 0.0000 -0.1657
v  -0.0000 0.0000 -0.1914
v  0.0957 0.0000 -0.1657
v  0.1657 0.0000 -0.0957
v  0.1914 0.0000 -0.0000
v  0.2468 0.2951 -0.1425
v  0.2468 0.4427 -0.1425
v  0.2850 0.4427 0.0000
v  0.2850 0.2951 -0.0000
v  0.1425 0.2951 -0.2468
v  0.1425 0.4427 -0.2468
v  -0.0000 0.2951 -0.2850
v  -0.0000 0.4427 -0.2850
v  -0.1425 0.2951 -0.2468
v  -0.1425 0.4427 -0.2468
v  -0.2468 0.2951 -0.1425
v  -0.2468 0.4427 -0.1425
v  -0.2850 0.2951 -0.0000
v  -0.2850 0.4427 -0.0000
v  -0.2468 0.2951 0.1425
v  -0.2468 0.4427 0.1425
v  -0.1425 0.2951 0.2468
v  -0.1425 0.4427 0.2468
v  -0.0000 0.2951 0.2850
v  -0.0000 0.4427 0.2850
v  0.1425 0.2951 0.2468
v  0.1425 0.4427 0.2468
v  0.2468 0.2951 0.1425
v  0.2468 0.4427 0.1425
v  0.1308 0.8012 0.0755
v  0.1510 0.8012 -0.0000
v  0.1308 0.8012 -0.0755
v  0.0755 0.8012 -0.1308
v  -0.0000 0.8012 -0.1510
v  -0.0755 0.8012 -0.1308
v  -0.1308 0.8012 -0.0755
v  -0.1510 0.8012 -0.0000
v  -0.1308 0.8012 0.0755
v  -0.0755 0.8012 0.1308
v  -0.0000 0.8012 0.1510
v  0.0755 0.8012 0.1308
v  0.2250 0.5903 -0.1299
v  0.1657 0.7379 -0.0957
v  0.1914 0.7379 -0.0000
v  0.2599 0.5903 0.0000
v  0.2599 0.1476 0.0000
v  0.2250 0.1476 -0.1299
v  0.1299 0.5903 -0.2250
v  0.0957 0.7379 -0.1657
v  0.1299 0.1476 -0.2250
v  -0.0000 0.5903 -0.2599
v  -0.0000 0.7379 -0.1914
v  -0.0000 0.1476 -0.2599
v  -0.1299 0.5903 -0.2250
v  -0.0957 0.7379 -0.1657
v  -0.1299 0.1476 -0.2250
v  -0.2250 0.5903 -0.1299
v  -0.1657 0.7379 -0.0957
v  -0.2250 0.1476 -0.1299
v  -0.2599 0.5903 -0.0000
v  -0.1914 0.7379 -0.0000
v  -0.2599 0.1476 -0.0000
v  -0.2250 0.5903 0.1299
v  -0.1657 0.7379 0.0957
v  -0.2250 0.1476 0.1299
v  -0.1299 0.5903 0.2250
v  -0.0957 0.7379 0.1657
v  -0.1299 0.1476 0.2250
v  -0.0000 0.5903 0.2599
v  -0.0000 0.7379 0.1914
v  -0.0000 0.1476 0.2599
v  0.1299 0.5903 0.2250
v  0.0957 0.7379 0.1657
v  0.1299 0.1476 0.2250
v  0.2250 0.5903 0.1299
v  0.1657 0.7379 0.0957
v  0.2250 0.1476 0.1299
v  0.1657 0.8467 -0.0957
v  0.1657 0.9555 -0.0957
v  0.1914 0.9555 -0.0000
v  0.1914 0.8467 -0.0000
v  0.0957 0.8467 -0.1657
v  0.0957 0.9555 -0.1657
v  -0.0000 0.8467 -0.1914
v  -0.0000 0.9555 -0.1914
v  -0.0957 0.8467 -0.1657
v  -0.0957 0.9555 -0.1657
v  -0.1657 0.8467 -0.0957
v  -0.1657 0.9555 -0.0957
v  -0.1914 0.8467 -0.0000
v  -0.1914 0.9555 -0.0000
v  -0.1657 0.8467 0.0957
v  -0.1657 0.9555 0.0957
v  -0.0957 0.8467 0.1657
v  -0.0957 0.9555 0.1657
v  -0.0000 0.8467 0.1914
v  -0.0000 0.9555 0.1914
v  0.0957 0.8467 0.1657
v  0.0957 0.9555 0.1657
v  0.1657 0.8467 0.0957
v  0.1657 0.9555 0.0957
v  0.1657 1.0644 -0.0957
v  0.1914 1.0644 -0.0000
v  0.0957 1.0644 -0.1657
v  -0.0000 1.0644 -0.1914
v  -0.0957 1.0644 -0.1657
v  -0.1657 1.0644 -0.0957
v  -0.1914 1.0644 -0.0000
v  -0.1657 1.0644 0.0957
v  -0.0957 1.0644 0.1657
v  -0.0000 1.0644 0.1914
v  0.0957 1.0644 0.1657
v  0.1657 1.0644 0.0957
v  0.1308 1.0644 -0.0755
v  0.1510 1.0644 -0.0000
v  0.0755 1.0644 -0.1308
v  -0.0000 1.0644 -0.1510
v  -0.0755 1.0644 -0.1308
v  -0.1308 1.0644 -0.0755
v  -0.1510 1.0644 -0.0000
v  -0.1308 1.0644 0.0755
v  -0.0755 1.0644 0.1308
v  -0.0000 1.0644 0.1510
v  0.0755 1.0644 0.1308
v  0.1308 1.0644 0.0755
# 132 vertices

vn 0.5159 -0.8032 0.2979
vn 0.2979 -0.8032 0.5159
vn -0.0000 -0.8032 0.5957
vn -0.2979 -0.8032 0.5159
vn -0.5159 -0.8032 0.2979
vn -0.5957 -0.8032 -0.0000
vn -0.5159 -0.8032 -0.2979
vn -0.2979 -0.8032 -0.5159
vn 0.0000 -0.8032 -0.5957
vn 0.2979 -0.8032 -0.5159
vn 0.5159 -0.8032 -0.2979
vn 0.5957 -0.8032 0.0000
vn 0.8630 -0.0831 -0.4983
vn 0.8630 0.0831 -0.4983
vn 0.9965 0.0831 -0.0000
vn 0.9965 -0.0831 0.0000
vn 0.4983 -0.0831 -0.8630
vn 0.4983 0.0831 -0.8630
vn -0.0000 -0.0831 -0.9965
vn 0.0000 0.0831 -0.9965
vn -0.4983 -0.0831 -0.8630
vn -0.4983 0.0831 -0.8630
vn -0.8630 -0.0831 -0.4983
vn -0.8630 0.0831 -0.4983
vn -0.9965 -0.0831 0.0000
vn -0.9965 0.0831 -0.0000
vn -0.8630 -0.0831 0.4983
vn -0.8630 0.0831 0.4983
vn -0.4983 -0.0831 0.8630
vn -0.4983 0.0831 0.8630
vn -0.0000 -0.0831 0.9965
vn -0.0000 0.0831 0.9965
vn 0.4983 -0.0831 0.8630
vn 0.4983 0.0831 0.8630
vn 0.8630 -0.0831 0.4983
vn 0.8630 0.0831 0.4983
vn -0.6557 0.6533 -0.3786
vn -0.7571 0.6533 0.0000
vn -0.6557 0.6533 0.3785
vn -0.3785 0.6533 0.6557
vn 0.0000 0.6532 0.7572
vn 0.3785 0.6533 0.6557
vn 0.6557 0.6533 0.3785
vn 0.7572 0.6532 0.0000
vn 0.6557 0.6532 -0.3786
vn 0.3786 0.6532 -0.6557
vn 0.0000 0.6532 -0.7572
vn -0.3786 0.6532 -0.6557
vn 0.8285 0.2911 -0.4783
vn 0.8441 0.2235 -0.4874
vn 0.9747 0.2235 -0.0000
vn 0.9567 0.2911 0.0000
vn 0.9567 -0.2911 0.0000
vn 0.8285 -0.2911 -0.4783
vn 0.4783 0.2911 -0.8285
vn 0.4874 0.2235 -0.8441
vn 0.4783 -0.2911 -0.8285
vn -0.0000 0.2911 -0.9567
vn 0.0000 0.2235 -0.9747
vn -0.0000 -0.2911 -0.9567
vn -0.4783 0.2911 -0.8285
vn -0.4873 0.2235 -0.8441
vn -0.4783 -0.2911 -0.8285
vn -0.8285 0.2911 -0.4783
vn -0.8441 0.2235 -0.4874
vn -0.8285 -0.2911 -0.4783
vn -0.9567 0.2911 -0.0000
vn -0.9747 0.2235 0.0000
vn -0.9567 -0.2911 -0.0000
vn -0.8285 0.2911 0.4783
vn -0.8441 0.2235 0.4874
vn -0.8285 -0.2911 0.4783
vn -0.4783 0.2911 0.8285
vn -0.4874 0.2235 0.8441
vn -0.4783 -0.2911 0.8285
vn -0.0000 0.2911 0.9567
vn 0.0000 0.2235 0.9747
vn -0.0000 -0.2911 0.9567
vn 0.4783 0.2911 0.8285
vn 0.4873 0.2235 0.8441
vn 0.4783 -0.2911 0.8285
vn 0.8285 0.2911 0.4783
vn 0.8441 0.2235 0.4874
vn 0.8285 -0.2911 0.4783
vn 0.8660 0.0000 -0.5000
vn 1.0000 0.0000 -0.0000
vn 0.5000 0.0000 -0.8660
vn 0.0000 -0.0000 -1.0000
vn -0.5000 0.0000 -0.8660
vn -0.8660 0.0000 -0.5000
vn -1.0000 0.0000 0.0000
vn -0.8660 0.0000 0.5000
vn -0.5000 0.0000 0.8660
vn 0.0000 0.0000 1.0000
vn 0.5000 0.0000 0.8660
vn 0.8660 0.0000 0.5000
vn 0.7571 0.6533 -0.0000
vn -0.3785 0.6533 -0.6557
vn -0.6557 0.6533 -0.3785
vn -0.6557 0.6532 0.3786
vn -0.3786 0.6533 0.6557
vn 0.0000 0.6533 0.7571
vn -0.5523 0.7703 0.3188
vn -0.6377 0.7703 0.0000
vn -0.3188 0.7703 0.5523
vn 0.0000 0.7703 0.6377
vn 0.3188 0.7703 0.5523
vn 0.5523 0.7703 0.3188
vn 0.6377 0.7703 0.0000
vn 0.5523 0.7703 -0.3189
vn 0.3189 0.7703 -0.5523
vn 0.0000 0.7703 -0.6377
vn -0.3189 0.7703 -0.5523
vn -0.5522 0.7703 -0.3189
# 114 vertex normals

vt 0.4450 0.0000 0.2679
vt 0.2440 0.0000 -0.2680
vt 0.1116 0.0000 -0.7321
vt 0.0833 0.0000 -1.0000
vt 0.1667 0.0000 -1.0000
vt 0.3393 0.0000 -0.7321
vt 0.5550 0.0000 -0.2679
vt 0.7560 0.0000 0.2679
vt 0.8884 0.0000 0.7321
vt 0.9167 0.0000 1.0000
vt 0.8333 0.0000 1.0000
vt 0.7500 0.0000 1.0000
vt 0.8333 0.4000 1.0000
vt 0.8333 0.6000 1.0000
vt 0.7500 0.6000 1.0000
vt 0.7500 0.4000 1.0000
vt 0.9167 0.4000 1.0000
vt 0.9167 0.6000 1.0000
vt 0.0000 0.4000 1.0000
vt 0.0000 0.6000 1.0000
vt -0.0833 0.6000 1.0000
vt -0.0833 0.4000 1.0000
vt 0.0833 0.4000 1.0000
vt 0.0833 0.6000 1.0000
vt 0.1667 0.4000 1.0000
vt 0.1667 0.6000 1.0000
vt 0.2500 0.4000 1.0000
vt 0.2500 0.6000 1.0000
vt 0.3333 0.4000 1.0000
vt 0.3333 0.6000 1.0000
vt 0.4167 0.4000 1.0000
vt 0.4167 0.6000 1.0000
vt 0.5000 0.4000 1.0000
vt 0.5000 0.6000 1.0000
vt 0.5833 0.4000 1.0000
vt 0.5833 0.6000 1.0000
vt 0.6667 0.4000 1.0000
vt 0.6667 0.6000 1.0000
vt 0.6667 1.0000 1.0000
vt 0.7500 1.0000 1.0000
vt 0.8333 1.0000 1.0000
vt 0.9167 1.0000 1.0000
vt 0.8884 1.0000 0.7321
vt 0.7560 1.0000 0.2679
vt 0.5550 1.0000 -0.2679
vt 0.3393 1.0000 -0.7321
vt 0.1667 1.0000 -1.0000
vt 0.0833 1.0000 -1.0000
vt 0.1116 1.0000 -0.7321
vt 0.2440 1.0000 -0.2679
vt 0.8333 0.8000 1.0000
vt 0.7500 0.8000 1.0000
vt 0.7500 0.2000 1.0000
vt 0.8333 0.2000 1.0000
vt 0.9167 0.8000 1.0000
vt 0.9167 0.2000 1.0000
vt 0.0000 0.8000 1.0000
vt 0.0000 1.0000 1.0000
vt -0.0833 1.0000 1.0000
vt -0.0833 0.8000 1.0000
vt -0.0833 0.2000 1.0000
vt -0.0833 0.0000 1.0000
vt 0.0000 0.0000 1.0000
vt 0.0000 0.2000 1.0000
vt 0.0833 0.8000 1.0000
vt 0.0833 1.0000 1.0000
vt 0.0833 0.0000 1.0000
vt 0.0833 0.2000 1.0000
vt 0.1667 0.8000 1.0000
vt 0.1667 1.0000 1.0000
vt 0.1667 0.0000 1.0000
vt 0.1667 0.2000 1.0000
vt 0.2500 0.8000 1.0000
vt 0.2500 1.0000 1.0000
vt 0.2500 0.0000 1.0000
vt 0.2500 0.2000 1.0000
vt 0.3333 0.8000 1.0000
vt 0.3333 1.0000 1.0000
vt 0.3333 0.0000 1.0000
vt 0.3333 0.2000 1.0000
vt 0.4167 0.8000 1.0000
vt 0.4167 1.0000 1.0000
vt 0.4167 0.0000 1.0000
vt 0.4167 0.2000 1.0000
vt 0.5000 0.8000 1.0000
vt 0.5000 1.0000 1.0000
vt 0.5000 0.0000 1.0000
vt 0.5000 0.2000 1.0000
vt 0.5833 0.8000 1.0000
vt 0.5833 1.0000 1.0000
vt 0.5833 0.0000 1.0000
vt 0.5833 0.2000 1.0000
vt 0.6667 0.8000 1.0000
vt 0.6667 0.0000 1.0000
vt 0.6667 0.2000 1.0000
# 95 texture coords

o Vase_04
g Vase_04
usemtl wire_085028177
s 1
f 1/1/1 2/2/2 3/3/3 4/4/4 5/5/5 6/6/6 7/7/7 8/8/8 9/9/9 10/10/10 11/11/11 12/12/12 
s 8
f 13/13/13 14/14/14 15/15/15 16/16/16 
f 17/17/17 18/18/18 14/14/14 13/13/13 
f 19/19/19 20/20/20 18/21/18 17/22/17 
f 21/23/21 22/24/22 20/20/20 19/19/19 
f 23/25/23 24/26/24 22/24/22 21/23/21 
f 25/27/25 26/28/26 24/26/24 23/25/23 
f 27/29/27 28/30/28 26/28/26 25/27/25 
f 29/31/29 30/32/30 28/30/28 27/29/27 
f 31/33/31 32/34/32 30/32/30 29/31/29 
f 33/35/33 34/36/34 32/34/32 31/33/31 
f 35/37/35 36/38/36 34/36/34 33/35/33 
f 16/16/16 15/15/15 36/38/36 35/37/35 
s 1
f 37/39/37 38/40/38 39/41/39 40/42/40 41/43/41 42/44/42 43/45/43 44/46/44 45/47/45 46/48/46 47/49/47 48/50/48 
s 8
f 49/51/49 50/41/50 51/40/51 52/52/52 
f 14/14/14 49/51/49 52/52/52 15/15/15 
f 53/53/53 12/12/12 11/11/11 54/54/54 
f 16/16/16 53/53/53 54/54/54 13/13/13 
f 55/55/55 56/42/56 50/41/50 49/51/49 
f 18/18/18 55/55/55 49/51/49 14/14/14 
f 54/54/54 11/11/11 10/10/10 57/56/57 
f 13/13/13 54/54/54 57/56/57 17/17/17 
f 58/57/58 59/58/59 56/59/56 55/60/55 
f 20/20/20 58/57/58 55/60/55 18/21/18 
f 57/61/57 10/62/10 9/63/9 60/64/60 
f 17/22/17 57/61/57 60/64/60 19/19/19 
f 61/65/61 62/66/62 59/58/59 58/57/58 
f 22/24/22 61/65/61 58/57/58 20/20/20 
f 60/64/60 9/63/9 8/67/8 63/68/63 
f 19/19/19 60/64/60 63/68/63 21/23/21 
f 64/69/64 65/70/65 62/66/62 61/65/61 
f 24/26/24 64/69/64 61/65/61 22/24/22 
f 63/68/63 8/67/8 7/71/7 66/72/66 
f 21/23/21 63/68/63 66/72/66 23/25/23 
f 67/73/67 68/74/68 65/70/65 64/69/64 
f 26/28/26 67/73/67 64/69/64 24/26/24 
f 66/72/66 7/71/7 6/75/6 69/76/69 
f 23/25/23 66/72/66 69/76/69 25/27/25 
f 70/77/70 71/78/71 68/74/68 67/73/67 
f 28/30/28 70/77/70 67/73/67 26/28/26 
f 69/76/69 6/75/6 5/79/5 72/80/72 
f 25/27/25 69/76/69 72/80/72 27/29/27 
f 73/81/73 74/82/74 71/78/71 70/77/70 
f 30/32/30 73/81/73 70/77/70 28/30/28 
f 72/80/72 5/79/5 4/83/4 75/84/75 
f 27/29/27 72/80/72 75/84/75 29/31/29 
f 76/85/76 77/86/77 74/82/74 73/81/73 
f 32/34/32 76/85/76 73/81/73 30/32/30 
f 75/84/75 4/83/4 3/87/3 78/88/78 
f 29/31/29 75/84/75 78/88/78 31/33/31 
f 79/89/79 80/90/80 77/86/77 76/85/76 
f 34/36/34 79/89/79 76/85/76 32/34/32 
f 78/88/78 3/87/3 2/91/2 81/92/81 
f 31/33/31 78/88/78 81/92/81 33/35/33 
f 82/93/82 83/39/83 80/90/80 79/89/79 
f 36/38/36 82/93/82 79/89/79 34/36/34 
f 81/92/81 2/91/2 1/94/1 84/95/84 
f 33/35/33 81/92/81 84/95/84 35/37/35 
f 52/52/52 51/40/51 83/39/83 82/93/82 
f 15/15/15 52/52/52 82/93/82 36/38/36 
f 84/95/84 1/94/1 12/12/12 53/53/53 
f 35/37/35 84/95/84 53/53/53 16/16/16 
s off
f 85/41/85 86/41/85 87/40/86 88/40/86 
f 89/42/87 90/42/87 86/41/85 85/41/85 
f 91/43/88 92/43/88 90/42/87 89/42/87 
f 93/44/89 94/44/89 92/43/88 91/43/88 
f 95/45/90 96/45/90 94/44/89 93/44/89 
f 97/46/91 98/46/91 96/45/90 95/45/90 
f 99/47/92 100/47/92 98/46/91 97/46/91 
f 101/48/93 102/48/93 100/47/92 99/47/92 
f 103/49/94 104/49/94 102/48/93 101/48/93 
f 105/50/95 106/50/95 104/49/94 103/49/94 
f 107/39/96 108/39/96 106/50/95 105/50/95 
f 88/40/86 87/40/86 108/39/96 107/39/96 
f 86/41/85 109/41/45 110/40/97 87/40/86 
f 88/40/86 51/40/51 50/41/50 85/41/85 
f 90/42/87 111/42/46 109/41/45 86/41/85 
f 85/41/85 50/41/50 56/42/56 89/42/87 
f 92/43/88 112/43/47 111/42/46 90/42/87 
f 89/42/87 56/42/56 59/43/59 91/43/88 
f 94/44/89 113/44/98 112/43/47 92/43/88 
f 91/43/88 59/43/59 62/44/62 93/44/89 
f 96/45/90 114/45/99 113/44/98 94/44/89 
f 93/44/89 62/44/62 65/45/65 95/45/90 
f 98/46/91 115/46/38 114/45/99 96/45/90 
f 95/45/90 65/45/65 68/46/68 97/46/91 
f 100/47/92 116/47/100 115/46/38 98/46/91 
f 97/46/91 68/46/68 71/47/71 99/47/92 
f 102/48/93 117/48/101 116/47/100 100/47/92 
f 99/47/92 71/47/71 74/48/74 101/48/93 
f 104/49/94 118/49/102 117/48/101 102/48/93 
f 101/48/93 74/48/74 77/49/77 103/49/94 
f 106/50/95 119/50/42 118/49/102 104/49/94 
f 103/49/94 77/49/77 80/50/80 105/50/95 
f 108/39/96 120/39/43 119/50/42 106/50/95 
f 105/50/95 80/50/80 83/39/83 107/39/96 
f 87/40/86 110/40/97 120/39/43 108/39/96 
f 107/39/96 83/39/83 51/40/51 88/40/86 
f 110/40/97 109/41/45 121/41/103 122/40/104 
f 109/41/45 111/42/46 123/42/105 121/41/103 
f 111/42/46 112/43/47 124/43/106 123/42/105 
f 112/43/47 113/44/98 125/44/107 124/43/106 
f 113/44/98 114/45/99 126/45/108 125/44/107 
f 114/45/99 115/46/38 127/46/109 126/45/108 
f 115/46/38 116/47/100 128/47/110 127/46/109 
f 116/47/100 117/48/101 129/48/111 128/47/110 
f 117/48/101 118/49/102 130/49/112 129/48/111 
f 118/49/102 119/50/42 131/50/113 130/49/112 
f 119/50/42 120/39/43 132/39/114 131/50/113 
f 120/39/43 110/40/97 122/40/104 132/39/114 
f 122/40/104 121/41/103 39/41/39 38/40/38 
f 121/41/103 123/42/105 40/42/40 39/41/39 
f 123/42/105 124/43/106 41/43/41 40/42/40 
f 124/43/106 125/44/107 42/44/42 41/43/41 
f 125/44/107 126/45/108 43/45/43 42/44/42 
f 126/45/108 127/46/109 44/46/44 43/45/43 
f 127/46/109 128/47/110 45/47/45 44/46/44 
f 128/47/110 129/48/111 46/48/46 45/47/45 
f 129/48/111 130/49/112 47/49/47 46/48/46 
f 130/49/112 131/50/113 48/50/48 47/49/47 
f 131/50/113 132/39/114 37/39/37 48/50/48 
f 132/39/114 122/40/104 38/40/38 37/39/37 
# 122 polygons

