# 3ds Max Wavefront OBJ Exporter v0.97b - (c)2007 guruware
# File Created: 27.02.2021 09:58:21

mtllib Vase_04.mtl

#
# object Vase_04
#

v  16.5719 0.0000 9.5678
v  9.5678 0.0000 16.5719
v  -0.0000 0.0000 19.1355
v  -9.5678 0.0000 16.5719
v  -16.5719 0.0000 9.5678
v  -19.1355 0.0000 -0.0000
v  -16.5719 0.0000 -9.5678
v  -9.5678 0.0000 -16.5719
v  -0.0000 0.0000 -19.1355
v  9.5678 0.0000 -16.5719
v  16.5719 0.0000 -9.5678
v  19.1355 0.0000 -0.0000
v  24.6815 29.5143 -14.2498
v  24.6815 44.2714 -14.2498
v  28.4997 44.2714 0.0000
v  28.4997 29.5143 -0.0000
v  14.2498 29.5143 -24.6815
v  14.2498 44.2714 -24.6815
v  -0.0000 29.5143 -28.4997
v  -0.0000 44.2714 -28.4997
v  -14.2498 29.5143 -24.6815
v  -14.2498 44.2714 -24.6815
v  -24.6815 29.5143 -14.2499
v  -24.6815 44.2714 -14.2498
v  -28.4997 29.5143 -0.0000
v  -28.4997 44.2714 -0.0000
v  -24.6815 29.5143 14.2498
v  -24.6815 44.2714 14.2498
v  -14.2499 29.5143 24.6815
v  -14.2499 44.2714 24.6814
v  -0.0000 29.5143 28.4997
v  -0.0000 44.2714 28.4997
v  14.2498 29.5143 24.6815
v  14.2498 44.2714 24.6815
v  24.6814 29.5143 14.2499
v  24.6814 44.2714 14.2499
v  13.0799 80.1239 7.5517
v  15.1034 80.1239 -0.0000
v  13.0799 80.1239 -7.5517
v  7.5517 80.1239 -13.0799
v  -0.0000 80.1239 -15.1034
v  -7.5517 80.1239 -13.0799
v  -13.0799 80.1239 -7.5517
v  -15.1034 80.1239 -0.0000
v  -13.0799 80.1239 7.5517
v  -7.5517 80.1239 13.0799
v  -0.0000 80.1239 15.1034
v  7.5517 80.1239 13.0799
v  22.5042 59.0285 -12.9928
v  16.5719 73.7856 -9.5678
v  19.1355 73.7856 -0.0000
v  25.9856 59.0285 0.0000
v  25.9856 14.7571 0.0000
v  22.5042 14.7571 -12.9928
v  12.9928 59.0285 -22.5042
v  9.5678 73.7856 -16.5719
v  12.9928 14.7571 -22.5042
v  -0.0000 59.0285 -25.9856
v  -0.0000 73.7856 -19.1355
v  -0.0000 14.7571 -25.9856
v  -12.9928 59.0285 -22.5042
v  -9.5678 73.7856 -16.5719
v  -12.9928 14.7571 -22.5042
v  -22.5042 59.0285 -12.9928
v  -16.5719 73.7856 -9.5678
v  -22.5042 14.7571 -12.9928
v  -25.9856 59.0285 -0.0000
v  -19.1355 73.7856 -0.0000
v  -25.9856 14.7571 -0.0000
v  -22.5042 59.0285 12.9928
v  -16.5719 73.7856 9.5678
v  -22.5042 14.7571 12.9928
v  -12.9928 59.0285 22.5042
v  -9.5678 73.7856 16.5719
v  -12.9928 14.7571 22.5042
v  -0.0000 59.0285 25.9856
v  -0.0000 73.7856 19.1355
v  -0.0000 14.7571 25.9856
v  12.9928 59.0285 22.5042
v  9.5678 73.7856 16.5719
v  12.9928 14.7571 22.5042
v  22.5042 59.0285 12.9928
v  16.5719 73.7856 9.5678
v  22.5042 14.7571 12.9928
v  16.5719 84.6692 -9.5678
v  16.5719 95.5527 -9.5678
v  19.1355 95.5527 -0.0000
v  19.1355 84.6692 -0.0000
v  9.5678 84.6692 -16.5719
v  9.5678 95.5527 -16.5719
v  -0.0000 84.6692 -19.1355
v  -0.0000 95.5527 -19.1355
v  -9.5678 84.6692 -16.5719
v  -9.5678 95.5527 -16.5719
v  -16.5719 84.6692 -9.5678
v  -16.5719 95.5527 -9.5678
v  -19.1355 84.6692 -0.0000
v  -19.1355 95.5527 -0.0000
v  -16.5719 84.6692 9.5678
v  -16.5719 95.5527 9.5678
v  -9.5678 84.6692 16.5719
v  -9.5678 95.5527 16.5719
v  -0.0000 84.6692 19.1355
v  -0.0000 95.5527 19.1355
v  9.5678 84.6692 16.5719
v  9.5678 95.5527 16.5719
v  16.5719 84.6692 9.5678
v  16.5719 95.5527 9.5678
v  16.5719 106.4363 -9.5678
v  19.1355 106.4363 -0.0000
v  9.5678 106.4363 -16.5719
v  -0.0000 106.4363 -19.1355
v  -9.5678 106.4363 -16.5719
v  -16.5719 106.4363 -9.5678
v  -19.1355 106.4363 -0.0000
v  -16.5719 106.4363 9.5678
v  -9.5678 106.4363 16.5719
v  -0.0000 106.4363 19.1355
v  9.5678 106.4363 16.5719
v  16.5719 106.4363 9.5678
v  13.0799 106.4363 -7.5517
v  15.1034 106.4363 -0.0000
v  7.5517 106.4363 -13.0799
v  -0.0000 106.4363 -15.1034
v  -7.5517 106.4363 -13.0799
v  -13.0799 106.4363 -7.5517
v  -15.1034 106.4363 -0.0000
v  -13.0799 106.4363 7.5517
v  -7.5517 106.4363 13.0799
v  -0.0000 106.4363 15.1034
v  7.5517 106.4363 13.0799
v  13.0799 106.4363 7.5517
# 132 vertices

vn 0.5159 -0.8032 0.2979
vn 0.2979 -0.8032 0.5159
vn -0.0000 -0.8032 0.5957
vn -0.2979 -0.8032 0.5159
vn -0.5159 -0.8032 0.2979
vn -0.5957 -0.8032 -0.0000
vn -0.5159 -0.8032 -0.2979
vn -0.2979 -0.8032 -0.5159
vn 0.0000 -0.8032 -0.5957
vn 0.2979 -0.8032 -0.5159
vn 0.5159 -0.8032 -0.2979
vn 0.5957 -0.8032 0.0000
vn 0.8630 -0.0831 -0.4983
vn 0.8630 0.0831 -0.4983
vn 0.9965 0.0831 -0.0000
vn 0.9965 -0.0831 0.0000
vn 0.4983 -0.0831 -0.8630
vn 0.4983 0.0831 -0.8630
vn -0.0000 -0.0831 -0.9965
vn -0.0000 0.0831 -0.9965
vn -0.4983 -0.0831 -0.8630
vn -0.4983 0.0831 -0.8630
vn -0.8630 -0.0831 -0.4983
vn -0.8630 0.0831 -0.4983
vn -0.9965 -0.0831 0.0000
vn -0.9965 0.0831 -0.0000
vn -0.8630 -0.0831 0.4983
vn -0.8630 0.0831 0.4983
vn -0.4983 -0.0831 0.8630
vn -0.4983 0.0831 0.8630
vn -0.0000 -0.0831 0.9965
vn -0.0000 0.0831 0.9965
vn 0.4983 -0.0831 0.8630
vn 0.4983 0.0831 0.8630
vn 0.8630 -0.0831 0.4983
vn 0.8630 0.0831 0.4983
vn -0.6557 0.6533 -0.3785
vn -0.7571 0.6533 0.0000
vn -0.6557 0.6533 0.3785
vn -0.3785 0.6533 0.6557
vn 0.0000 0.6532 0.7572
vn 0.3785 0.6533 0.6557
vn 0.6557 0.6533 0.3785
vn 0.7572 0.6532 0.0000
vn 0.6557 0.6532 -0.3786
vn 0.3786 0.6532 -0.6557
vn 0.0000 0.6533 -0.7571
vn -0.3785 0.6533 -0.6557
vn 0.8285 0.2911 -0.4783
vn 0.8441 0.2235 -0.4874
vn 0.9747 0.2235 0.0000
vn 0.9567 0.2911 0.0000
vn 0.9567 -0.2911 0.0000
vn 0.8285 -0.2911 -0.4783
vn 0.4783 0.2911 -0.8285
vn 0.4874 0.2235 -0.8441
vn 0.4783 -0.2911 -0.8285
vn -0.0000 0.2911 -0.9567
vn 0.0000 0.2235 -0.9747
vn -0.0000 -0.2911 -0.9567
vn -0.4783 0.2911 -0.8285
vn -0.4874 0.2235 -0.8441
vn -0.4783 -0.2911 -0.8285
vn -0.8285 0.2911 -0.4783
vn -0.8441 0.2235 -0.4873
vn -0.8285 -0.2911 -0.4783
vn -0.9567 0.2911 -0.0000
vn -0.9747 0.2235 -0.0000
vn -0.9567 -0.2911 -0.0000
vn -0.8285 0.2911 0.4783
vn -0.8441 0.2235 0.4874
vn -0.8285 -0.2911 0.4783
vn -0.4783 0.2911 0.8285
vn -0.4874 0.2235 0.8441
vn -0.4783 -0.2911 0.8285
vn -0.0000 0.2911 0.9567
vn -0.0000 0.2235 0.9747
vn -0.0000 -0.2911 0.9567
vn 0.4783 0.2911 0.8285
vn 0.4873 0.2235 0.8441
vn 0.4783 -0.2911 0.8285
vn 0.8285 0.2911 0.4783
vn 0.8441 0.2235 0.4873
vn 0.8285 -0.2911 0.4783
vn 0.8660 0.0000 -0.5000
vn 1.0000 0.0000 0.0000
vn 0.5000 0.0000 -0.8660
vn -0.0000 0.0000 -1.0000
vn 0.0000 -0.0000 -1.0000
vn -0.5000 0.0000 -0.8660
vn -0.8660 0.0000 -0.5000
vn -1.0000 0.0000 -0.0000
vn -0.8660 0.0000 0.5000
vn -0.5000 0.0000 0.8660
vn -0.0000 0.0000 1.0000
vn 0.5000 0.0000 0.8660
vn 0.8660 0.0000 0.5000
vn 0.6557 0.6533 -0.3786
vn 0.7571 0.6533 0.0000
vn 0.3786 0.6533 -0.6557
vn -0.7572 0.6532 -0.0000
vn -0.6557 0.6532 0.3786
vn -0.3786 0.6532 0.6557
vn -0.0000 0.6532 0.7572
vn -0.5523 0.7703 0.3188
vn -0.6377 0.7703 0.0000
vn -0.3188 0.7703 0.5523
vn 0.0000 0.7703 0.6377
vn 0.3188 0.7703 0.5523
vn 0.5523 0.7703 0.3188
vn 0.6377 0.7703 0.0000
vn 0.5523 0.7703 -0.3189
vn 0.3189 0.7703 -0.5523
vn 0.0000 0.7703 -0.6377
vn -0.3188 0.7703 -0.5522
vn -0.5522 0.7703 -0.3188
# 116 vertex normals

vt 0.4450 0.0000 0.2679
vt 0.2440 0.0000 -0.2680
vt 0.1116 0.0000 -0.7321
vt 0.0833 0.0000 -1.0000
vt 0.1667 0.0000 -1.0000
vt 0.3393 0.0000 -0.7321
vt 0.5550 0.0000 -0.2679
vt 0.7560 0.0000 0.2679
vt 0.8884 0.0000 0.7321
vt 0.9167 0.0000 1.0000
vt 0.8333 0.0000 1.0000
vt 0.7500 0.0000 1.0000
vt 0.8333 0.4000 1.0000
vt 0.8333 0.6000 1.0000
vt 0.7500 0.6000 1.0000
vt 0.7500 0.4000 1.0000
vt 0.9167 0.4000 1.0000
vt 0.9167 0.6000 1.0000
vt 0.0000 0.4000 1.0000
vt 0.0000 0.6000 1.0000
vt -0.0833 0.6000 1.0000
vt -0.0833 0.4000 1.0000
vt 0.0833 0.4000 1.0000
vt 0.0833 0.6000 1.0000
vt 0.1667 0.4000 1.0000
vt 0.1667 0.6000 1.0000
vt 0.2500 0.4000 1.0000
vt 0.2500 0.6000 1.0000
vt 0.3333 0.4000 1.0000
vt 0.3333 0.6000 1.0000
vt 0.4167 0.4000 1.0000
vt 0.4167 0.6000 1.0000
vt 0.5000 0.4000 1.0000
vt 0.5000 0.6000 1.0000
vt 0.5833 0.4000 1.0000
vt 0.5833 0.6000 1.0000
vt 0.6667 0.4000 1.0000
vt 0.6667 0.6000 1.0000
vt 0.6667 1.0000 1.0000
vt 0.7500 1.0000 1.0000
vt 0.8333 1.0000 1.0000
vt 0.9167 1.0000 1.0000
vt 0.8884 1.0000 0.7321
vt 0.7560 1.0000 0.2679
vt 0.5550 1.0000 -0.2679
vt 0.3393 1.0000 -0.7321
vt 0.1667 1.0000 -1.0000
vt 0.0833 1.0000 -1.0000
vt 0.1116 1.0000 -0.7321
vt 0.2440 1.0000 -0.2679
vt 0.8333 0.8000 1.0000
vt 0.7500 0.8000 1.0000
vt 0.7500 0.2000 1.0000
vt 0.8333 0.2000 1.0000
vt 0.9167 0.8000 1.0000
vt 0.9167 0.2000 1.0000
vt 0.0000 0.8000 1.0000
vt 0.0000 1.0000 1.0000
vt -0.0833 1.0000 1.0000
vt -0.0833 0.8000 1.0000
vt -0.0833 0.2000 1.0000
vt -0.0833 0.0000 1.0000
vt 0.0000 0.0000 1.0000
vt 0.0000 0.2000 1.0000
vt 0.0833 0.8000 1.0000
vt 0.0833 1.0000 1.0000
vt 0.0833 0.0000 1.0000
vt 0.0833 0.2000 1.0000
vt 0.1667 0.8000 1.0000
vt 0.1667 1.0000 1.0000
vt 0.1667 0.0000 1.0000
vt 0.1667 0.2000 1.0000
vt 0.2500 0.8000 1.0000
vt 0.2500 1.0000 1.0000
vt 0.2500 0.0000 1.0000
vt 0.2500 0.2000 1.0000
vt 0.3333 0.8000 1.0000
vt 0.3333 1.0000 1.0000
vt 0.3333 0.0000 1.0000
vt 0.3333 0.2000 1.0000
vt 0.4167 0.8000 1.0000
vt 0.4167 1.0000 1.0000
vt 0.4167 0.0000 1.0000
vt 0.4167 0.2000 1.0000
vt 0.5000 0.8000 1.0000
vt 0.5000 1.0000 1.0000
vt 0.5000 0.0000 1.0000
vt 0.5000 0.2000 1.0000
vt 0.5833 0.8000 1.0000
vt 0.5833 1.0000 1.0000
vt 0.5833 0.0000 1.0000
vt 0.5833 0.2000 1.0000
vt 0.6667 0.8000 1.0000
vt 0.6667 0.0000 1.0000
vt 0.6667 0.2000 1.0000
# 95 texture coords

o Vase_04
g Vase_04
usemtl wire_085028177
s 1
f 1/1/1 2/2/2 3/3/3 4/4/4 5/5/5 6/6/6 7/7/7 8/8/8 9/9/9 10/10/10 11/11/11 12/12/12 
s 8
f 13/13/13 14/14/14 15/15/15 16/16/16 
f 17/17/17 18/18/18 14/14/14 13/13/13 
f 19/19/19 20/20/20 18/21/18 17/22/17 
f 21/23/21 22/24/22 20/20/20 19/19/19 
f 23/25/23 24/26/24 22/24/22 21/23/21 
f 25/27/25 26/28/26 24/26/24 23/25/23 
f 27/29/27 28/30/28 26/28/26 25/27/25 
f 29/31/29 30/32/30 28/30/28 27/29/27 
f 31/33/31 32/34/32 30/32/30 29/31/29 
f 33/35/33 34/36/34 32/34/32 31/33/31 
f 35/37/35 36/38/36 34/36/34 33/35/33 
f 16/16/16 15/15/15 36/38/36 35/37/35 
s 1
f 37/39/37 38/40/38 39/41/39 40/42/40 41/43/41 42/44/42 43/45/43 44/46/44 45/47/45 46/48/46 47/49/47 48/50/48 
s 8
f 49/51/49 50/41/50 51/40/51 52/52/52 
f 14/14/14 49/51/49 52/52/52 15/15/15 
f 53/53/53 12/12/12 11/11/11 54/54/54 
f 16/16/16 53/53/53 54/54/54 13/13/13 
f 55/55/55 56/42/56 50/41/50 49/51/49 
f 18/18/18 55/55/55 49/51/49 14/14/14 
f 54/54/54 11/11/11 10/10/10 57/56/57 
f 13/13/13 54/54/54 57/56/57 17/17/17 
f 58/57/58 59/58/59 56/59/56 55/60/55 
f 20/20/20 58/57/58 55/60/55 18/21/18 
f 57/61/57 10/62/10 9/63/9 60/64/60 
f 17/22/17 57/61/57 60/64/60 19/19/19 
f 61/65/61 62/66/62 59/58/59 58/57/58 
f 22/24/22 61/65/61 58/57/58 20/20/20 
f 60/64/60 9/63/9 8/67/8 63/68/63 
f 19/19/19 60/64/60 63/68/63 21/23/21 
f 64/69/64 65/70/65 62/66/62 61/65/61 
f 24/26/24 64/69/64 61/65/61 22/24/22 
f 63/68/63 8/67/8 7/71/7 66/72/66 
f 21/23/21 63/68/63 66/72/66 23/25/23 
f 67/73/67 68/74/68 65/70/65 64/69/64 
f 26/28/26 67/73/67 64/69/64 24/26/24 
f 66/72/66 7/71/7 6/75/6 69/76/69 
f 23/25/23 66/72/66 69/76/69 25/27/25 
f 70/77/70 71/78/71 68/74/68 67/73/67 
f 28/30/28 70/77/70 67/73/67 26/28/26 
f 69/76/69 6/75/6 5/79/5 72/80/72 
f 25/27/25 69/76/69 72/80/72 27/29/27 
f 73/81/73 74/82/74 71/78/71 70/77/70 
f 30/32/30 73/81/73 70/77/70 28/30/28 
f 72/80/72 5/79/5 4/83/4 75/84/75 
f 27/29/27 72/80/72 75/84/75 29/31/29 
f 76/85/76 77/86/77 74/82/74 73/81/73 
f 32/34/32 76/85/76 73/81/73 30/32/30 
f 75/84/75 4/83/4 3/87/3 78/88/78 
f 29/31/29 75/84/75 78/88/78 31/33/31 
f 79/89/79 80/90/80 77/86/77 76/85/76 
f 34/36/34 79/89/79 76/85/76 32/34/32 
f 78/88/78 3/87/3 2/91/2 81/92/81 
f 31/33/31 78/88/78 81/92/81 33/35/33 
f 82/93/82 83/39/83 80/90/80 79/89/79 
f 36/38/36 82/93/82 79/89/79 34/36/34 
f 81/92/81 2/91/2 1/94/1 84/95/84 
f 33/35/33 81/92/81 84/95/84 35/37/35 
f 52/52/52 51/40/51 83/39/83 82/93/82 
f 15/15/15 52/52/52 82/93/82 36/38/36 
f 84/95/84 1/94/1 12/12/12 53/53/53 
f 35/37/35 84/95/84 53/53/53 16/16/16 
s off
f 85/41/85 86/41/85 87/40/86 88/40/86 
f 89/42/87 90/42/87 86/41/85 85/41/85 
f 91/43/88 92/43/89 90/42/87 89/42/87 
f 93/44/90 94/44/90 92/43/89 91/43/88 
f 95/45/91 96/45/91 94/44/90 93/44/90 
f 97/46/92 98/46/92 96/45/91 95/45/91 
f 99/47/93 100/47/93 98/46/92 97/46/92 
f 101/48/94 102/48/94 100/47/93 99/47/93 
f 103/49/95 104/49/95 102/48/94 101/48/94 
f 105/50/96 106/50/96 104/49/95 103/49/95 
f 107/39/97 108/39/97 106/50/96 105/50/96 
f 88/40/86 87/40/86 108/39/97 107/39/97 
f 86/41/85 109/41/98 110/40/99 87/40/86 
f 88/40/86 51/40/51 50/41/50 85/41/85 
f 90/42/87 111/42/100 109/41/98 86/41/85 
f 85/41/85 50/41/50 56/42/56 89/42/87 
f 92/43/89 112/43/47 111/42/100 90/42/87 
f 89/42/87 56/42/56 59/43/59 91/43/88 
f 94/44/90 113/44/48 112/43/47 92/43/89 
f 91/43/88 59/43/59 62/44/62 93/44/90 
f 96/45/91 114/45/37 113/44/48 94/44/90 
f 93/44/90 62/44/62 65/45/65 95/45/91 
f 98/46/92 115/46/101 114/45/37 96/45/91 
f 95/45/91 65/45/65 68/46/68 97/46/92 
f 100/47/93 116/47/102 115/46/101 98/46/92 
f 97/46/92 68/46/68 71/47/71 99/47/93 
f 102/48/94 117/48/103 116/47/102 100/47/93 
f 99/47/93 71/47/71 74/48/74 101/48/94 
f 104/49/95 118/49/104 117/48/103 102/48/94 
f 101/48/94 74/48/74 77/49/77 103/49/95 
f 106/50/96 119/50/42 118/49/104 104/49/95 
f 103/49/95 77/49/77 80/50/80 105/50/96 
f 108/39/97 120/39/43 119/50/42 106/50/96 
f 105/50/96 80/50/80 83/39/83 107/39/97 
f 87/40/86 110/40/99 120/39/43 108/39/97 
f 107/39/97 83/39/83 51/40/51 88/40/86 
f 110/40/99 109/41/98 121/41/105 122/40/106 
f 109/41/98 111/42/100 123/42/107 121/41/105 
f 111/42/100 112/43/47 124/43/108 123/42/107 
f 112/43/47 113/44/48 125/44/109 124/43/108 
f 113/44/48 114/45/37 126/45/110 125/44/109 
f 114/45/37 115/46/101 127/46/111 126/45/110 
f 115/46/101 116/47/102 128/47/112 127/46/111 
f 116/47/102 117/48/103 129/48/113 128/47/112 
f 117/48/103 118/49/104 130/49/114 129/48/113 
f 118/49/104 119/50/42 131/50/115 130/49/114 
f 119/50/42 120/39/43 132/39/116 131/50/115 
f 120/39/43 110/40/99 122/40/106 132/39/116 
f 122/40/106 121/41/105 39/41/39 38/40/38 
f 121/41/105 123/42/107 40/42/40 39/41/39 
f 123/42/107 124/43/108 41/43/41 40/42/40 
f 124/43/108 125/44/109 42/44/42 41/43/41 
f 125/44/109 126/45/110 43/45/43 42/44/42 
f 126/45/110 127/46/111 44/46/44 43/45/43 
f 127/46/111 128/47/112 45/47/45 44/46/44 
f 128/47/112 129/48/113 46/48/46 45/47/45 
f 129/48/113 130/49/114 47/49/47 46/48/46 
f 130/49/114 131/50/115 48/50/48 47/49/47 
f 131/50/115 132/39/116 37/39/37 48/50/48 
f 132/39/116 122/40/106 38/40/38 37/39/37 
# 122 polygons

