# 3ds Max Wavefront OBJ Exporter v0.97b - (c)2007 guruware
# File Created: 01.03.2021 09:34:24

mtllib Vase_03.mtl

#
# object Vase_03
#

v  0.2376 0.0000 0.1372
v  0.1372 0.0000 0.2376
v  -0.0000 0.0000 0.2744
v  -0.1372 0.0000 0.2376
v  -0.2376 0.0000 0.1372
v  -0.2744 0.0000 -0.0000
v  -0.2376 0.0000 -0.1372
v  -0.1372 0.0000 -0.2376
v  -0.0000 0.0000 -0.2744
v  0.1372 0.0000 -0.2376
v  0.2376 0.0000 -0.1372
v  0.2744 0.0000 -0.0000
v  0.2376 0.0381 -0.1372
v  0.2744 0.0381 -0.0000
v  0.1372 0.0381 -0.2376
v  -0.0000 0.0381 -0.2744
v  -0.1372 0.0381 -0.2376
v  -0.2376 0.0381 -0.1372
v  -0.2744 0.0381 -0.0000
v  -0.2376 0.0381 0.1372
v  -0.1372 0.0381 0.2376
v  -0.0000 0.0381 0.2744
v  0.1372 0.0381 0.2376
v  0.2376 0.0381 0.1372
v  0.1532 0.8527 0.0885
v  0.1769 0.8527 -0.0000
v  0.1532 0.8527 -0.0885
v  0.0885 0.8527 -0.1532
v  -0.0000 0.8527 -0.1769
v  -0.0885 0.8527 -0.1532
v  -0.1532 0.8527 -0.0885
v  -0.1769 0.8527 -0.0000
v  -0.1532 0.8527 0.0885
v  -0.0885 0.8527 0.1532
v  -0.0000 0.8527 0.1769
v  0.0885 0.8527 0.1532
v  0.1893 0.0381 -0.1093
v  0.2186 0.0381 -0.0000
v  0.1093 0.0381 -0.1893
v  -0.0000 0.0381 -0.2186
v  -0.1093 0.0381 -0.1893
v  -0.1893 0.0381 -0.1093
v  -0.2186 0.0381 -0.0000
v  -0.1893 0.0381 0.1093
v  -0.1093 0.0381 0.1893
v  -0.0000 0.0381 0.2186
v  0.1093 0.0381 0.1893
v  0.1893 0.0381 0.1093
v  0.0940 0.1419 -0.0543
v  0.1085 0.1419 -0.0000
v  0.0543 0.1419 -0.0940
v  -0.0000 0.1419 -0.1085
v  -0.0543 0.1419 -0.0940
v  -0.0940 0.1419 -0.0543
v  -0.1085 0.1419 -0.0000
v  -0.0940 0.1419 0.0543
v  -0.0543 0.1419 0.0940
v  -0.0000 0.1419 0.1085
v  0.0543 0.1419 0.0940
v  0.0940 0.1419 0.0543
v  0.1185 0.2457 -0.0684
v  0.1185 0.2951 -0.0684
v  0.1368 0.2951 -0.0000
v  0.1368 0.2457 -0.0000
v  0.0684 0.2457 -0.1185
v  0.0684 0.2951 -0.1185
v  -0.0000 0.2457 -0.1368
v  -0.0000 0.2951 -0.1368
v  -0.0684 0.2457 -0.1185
v  -0.0684 0.2951 -0.1185
v  -0.1185 0.2457 -0.0684
v  -0.1185 0.2951 -0.0684
v  -0.1368 0.2457 -0.0000
v  -0.1368 0.2951 -0.0000
v  -0.1185 0.2457 0.0684
v  -0.1185 0.2951 0.0684
v  -0.0684 0.2457 0.1185
v  -0.0684 0.2951 0.1185
v  -0.0000 0.2457 0.1368
v  -0.0000 0.2951 0.1368
v  0.0684 0.2457 0.1185
v  0.0684 0.2951 0.1185
v  0.1185 0.2457 0.0684
v  0.1185 0.2951 0.0684
v  0.0940 0.3989 -0.0543
v  0.1085 0.3989 -0.0000
v  0.0543 0.3989 -0.0940
v  -0.0000 0.3989 -0.1085
v  -0.0543 0.3989 -0.0940
v  -0.0940 0.3989 -0.0543
v  -0.1085 0.3989 -0.0000
v  -0.0940 0.3989 0.0543
v  -0.0543 0.3989 0.0940
v  -0.0000 0.3989 0.1085
v  0.0543 0.3989 0.0940
v  0.0940 0.3989 0.0543
v  0.1576 0.4610 -0.0910
v  0.2247 0.6026 -0.1297
v  0.2595 0.6026 -0.0000
v  0.1820 0.4610 -0.0000
v  0.0910 0.4610 -0.1576
v  0.1297 0.6026 -0.2247
v  -0.0000 0.4610 -0.1820
v  -0.0000 0.6026 -0.2595
v  -0.0910 0.4610 -0.1576
v  -0.1297 0.6026 -0.2247
v  -0.1576 0.4610 -0.0910
v  -0.2247 0.6026 -0.1297
v  -0.1820 0.4610 -0.0000
v  -0.2595 0.6026 -0.0000
v  -0.1576 0.4610 0.0910
v  -0.2247 0.6026 0.1297
v  -0.0910 0.4610 0.1576
v  -0.1297 0.6026 0.2247
v  -0.0000 0.4610 0.1820
v  -0.0000 0.6026 0.2595
v  0.0910 0.4610 0.1576
v  0.1297 0.6026 0.2247
v  0.1576 0.4610 0.0910
v  0.2247 0.6026 0.1297
v  0.2445 0.7518 -0.1412
v  0.2285 0.8695 -0.1319
v  0.2639 0.8695 -0.0000
v  0.2823 0.7518 -0.0000
v  0.1412 0.7518 -0.2445
v  0.1319 0.8695 -0.2285
v  -0.0000 0.7518 -0.2823
v  -0.0000 0.8695 -0.2639
v  -0.1412 0.7518 -0.2445
v  -0.1319 0.8695 -0.2285
v  -0.2445 0.7518 -0.1412
v  -0.2285 0.8695 -0.1319
v  -0.2823 0.7518 -0.0000
v  -0.2639 0.8695 -0.0000
v  -0.2445 0.7518 0.1412
v  -0.2285 0.8695 0.1319
v  -0.1412 0.7518 0.2445
v  -0.1319 0.8695 0.2285
v  -0.0000 0.7518 0.2823
v  -0.0000 0.8695 0.2639
v  0.1412 0.7518 0.2445
v  0.1319 0.8695 0.2285
v  0.2445 0.7518 0.1412
v  0.2285 0.8695 0.1319
v  0.1915 0.8695 -0.1106
v  0.2212 0.8695 -0.0000
v  0.1106 0.8695 -0.1915
v  -0.0000 0.8695 -0.2212
v  -0.1106 0.8695 -0.1915
v  -0.1915 0.8695 -0.1106
v  -0.2212 0.8695 -0.0000
v  -0.1915 0.8695 0.1106
v  -0.1106 0.8695 0.1915
v  -0.0000 0.8695 0.2212
v  0.1106 0.8695 0.1915
v  0.1915 0.8695 0.1106
v  0.2119 0.9457 -0.1224
v  0.2447 0.9457 -0.0000
v  0.1224 0.9457 -0.2119
v  -0.0000 0.9457 -0.2447
v  -0.1224 0.9457 -0.2119
v  -0.2119 0.9457 -0.1224
v  -0.2447 0.9457 -0.0000
v  -0.2119 0.9457 0.1224
v  -0.1224 0.9457 0.2119
v  -0.0000 0.9457 0.2447
v  0.1224 0.9457 0.2119
v  0.2119 0.9457 0.1224
v  0.1915 1.0220 -0.1106
v  0.2212 1.0220 -0.0000
v  0.1106 1.0220 -0.1915
v  -0.0000 1.0220 -0.2212
v  -0.1106 1.0220 -0.1915
v  -0.1915 1.0220 -0.1106
v  -0.2212 1.0220 -0.0000
v  -0.1915 1.0220 0.1106
v  -0.1106 1.0220 0.1915
v  -0.0000 1.0220 0.2212
v  0.1106 1.0220 0.1915
v  0.1915 1.0220 0.1106
v  0.1532 1.0220 -0.0885
v  0.1769 1.0220 -0.0000
v  0.0885 1.0220 -0.1532
v  -0.0000 1.0220 -0.1769
v  -0.0885 1.0220 -0.1532
v  -0.1532 1.0220 -0.0885
v  -0.1769 1.0220 -0.0000
v  -0.1532 1.0220 0.0885
v  -0.0885 1.0220 0.1532
v  -0.0000 1.0220 0.1769
v  0.0885 1.0220 0.1532
v  0.1532 1.0220 0.0885
# 192 vertices

vn 0.6557 -0.6532 0.3786
vn 0.3786 -0.6532 0.6557
vn 0.0000 -0.6533 0.7571
vn -0.3786 -0.6533 0.6557
vn -0.6557 -0.6532 0.3786
vn -0.7572 -0.6532 -0.0000
vn -0.6557 -0.6533 -0.3785
vn -0.3785 -0.6533 -0.6557
vn -0.0000 -0.6532 -0.7572
vn 0.3786 -0.6532 -0.6557
vn 0.6557 -0.6532 -0.3786
vn 0.7572 -0.6532 0.0000
vn 0.6557 0.6532 -0.3786
vn 0.7572 0.6532 0.0000
vn 0.3786 0.6532 -0.6557
vn -0.0000 0.6532 -0.7572
vn -0.3785 0.6533 -0.6557
vn -0.6557 0.6533 -0.3785
vn -0.7572 0.6532 -0.0000
vn -0.6557 0.6532 0.3786
vn -0.3786 0.6533 0.6557
vn 0.0000 0.6533 0.7571
vn 0.3786 0.6532 0.6557
vn 0.6557 0.6532 0.3786
vn -0.6557 0.6533 -0.3786
vn -0.7571 0.6533 0.0000
vn -0.3786 0.6532 0.6557
vn 0.0000 0.6532 0.7572
vn 0.0000 0.6533 -0.7571
vn -0.3786 0.6533 -0.6557
vn 0.2717 0.9495 -0.1569
vn 0.3138 0.9495 0.0000
vn 0.1569 0.9495 -0.2717
vn -0.0000 0.9495 -0.3138
vn -0.1569 0.9495 -0.2717
vn -0.2717 0.9495 -0.1569
vn -0.3138 0.9495 -0.0000
vn -0.2717 0.9495 0.1569
vn -0.1569 0.9495 0.2717
vn -0.0000 0.9495 0.3138
vn 0.1569 0.9495 0.2717
vn 0.2717 0.9495 0.1569
vn 0.8273 0.2956 -0.4777
vn 0.9553 0.2956 0.0000
vn 0.4777 0.2956 -0.8273
vn -0.0000 0.2956 -0.9553
vn -0.4777 0.2956 -0.8273
vn -0.8273 0.2956 -0.4777
vn -0.9553 0.2956 -0.0000
vn -0.8273 0.2956 0.4777
vn -0.4777 0.2956 0.8273
vn -0.0000 0.2956 0.9553
vn 0.4777 0.2956 0.8273
vn 0.8273 0.2956 0.4777
vn 0.8586 -0.1302 -0.4958
vn 0.8586 0.1302 -0.4958
vn 0.9915 0.1302 -0.0000
vn 0.9915 -0.1302 0.0000
vn 0.4958 -0.1302 -0.8586
vn 0.4958 0.1302 -0.8586
vn -0.0000 -0.1302 -0.9915
vn -0.0000 0.1302 -0.9915
vn -0.4957 -0.1302 -0.8587
vn -0.4957 0.1302 -0.8587
vn -0.8587 -0.1302 -0.4957
vn -0.8587 0.1302 -0.4957
vn -0.9915 -0.1302 -0.0000
vn -0.9915 0.1302 -0.0000
vn -0.8587 -0.1302 0.4957
vn -0.8587 0.1302 0.4957
vn -0.4957 -0.1302 0.8587
vn -0.4957 0.1302 0.8587
vn -0.0000 -0.1302 0.9915
vn -0.0000 0.1302 0.9915
vn 0.4957 -0.1302 0.8587
vn 0.4957 0.1302 0.8587
vn 0.8587 -0.1302 0.4957
vn 0.8587 0.1302 0.4957
vn 0.8190 -0.3251 -0.4728
vn 0.9457 -0.3251 0.0000
vn 0.4728 -0.3251 -0.8190
vn -0.0000 -0.3251 -0.9457
vn -0.4728 -0.3251 -0.8190
vn -0.8190 -0.3251 -0.4728
vn -0.9457 -0.3251 -0.0000
vn -0.8190 -0.3251 0.4728
vn -0.4728 -0.3251 0.8190
vn -0.0000 -0.3251 0.9457
vn 0.4728 -0.3251 0.8190
vn 0.8190 -0.3251 0.4728
vn 0.6809 -0.6180 -0.3931
vn 0.8227 -0.3123 -0.4750
vn 0.9500 -0.3123 0.0000
vn 0.7862 -0.6180 0.0000
vn 0.3931 -0.6180 -0.6809
vn 0.4750 -0.3123 -0.8227
vn 0.0000 -0.6180 -0.7862
vn -0.0000 -0.3123 -0.9500
vn -0.3931 -0.6180 -0.6809
vn -0.4750 -0.3123 -0.8227
vn -0.6809 -0.6180 -0.3931
vn -0.8227 -0.3123 -0.4750
vn -0.7862 -0.6180 -0.0000
vn -0.9500 -0.3123 0.0000
vn -0.6809 -0.6180 0.3931
vn -0.8227 -0.3123 0.4750
vn -0.3931 -0.6180 0.6809
vn -0.4750 -0.3123 0.8227
vn -0.0000 -0.6180 0.7862
vn -0.0000 -0.3123 0.9500
vn 0.3931 -0.6180 0.6809
vn 0.4750 -0.3123 0.8227
vn 0.6809 -0.6180 0.3931
vn 0.8227 -0.3123 0.4750
vn 0.8660 0.0017 -0.5000
vn 0.6100 0.7099 -0.3522
vn 0.7043 0.7099 0.0000
vn 1.0000 0.0017 0.0000
vn 0.5000 0.0017 -0.8660
vn 0.3522 0.7099 -0.6100
vn -0.0000 0.0017 -1.0000
vn -0.0000 0.7099 -0.7043
vn -0.5000 0.0017 -0.8660
vn -0.3522 0.7099 -0.6100
vn -0.8660 0.0017 -0.5000
vn -0.6100 0.7099 -0.3522
vn -1.0000 0.0017 -0.0000
vn -0.7043 0.7099 -0.0000
vn -0.8660 0.0017 0.5000
vn -0.6100 0.7099 0.3522
vn -0.5000 0.0017 0.8660
vn -0.3522 0.7099 0.6100
vn -0.0000 0.0017 1.0000
vn -0.0000 0.7099 0.7043
vn 0.5000 0.0017 0.8660
vn 0.3522 0.7099 0.6100
vn 0.8660 0.0017 0.5000
vn 0.6100 0.7099 0.3522
vn 0.6459 0.6662 -0.3729
vn 0.7458 0.6662 0.0000
vn 0.3729 0.6662 -0.6459
vn -0.0000 0.6662 -0.7458
vn -0.3729 0.6662 -0.6459
vn -0.6459 0.6662 -0.3729
vn -0.7458 0.6662 -0.0000
vn -0.6459 0.6662 0.3729
vn -0.3729 0.6662 0.6459
vn -0.0000 0.6662 0.7458
vn 0.3729 0.6662 0.6459
vn 0.6459 0.6662 0.3729
vn 0.8660 0.0000 -0.5000
vn 1.0000 0.0000 -0.0000
vn 0.5000 0.0000 -0.8660
vn -0.0000 0.0000 -1.0000
vn -0.5000 0.0000 -0.8660
vn -0.8660 0.0000 -0.5000
vn -1.0000 0.0000 -0.0000
vn -0.8660 0.0000 0.5000
vn -0.5000 0.0000 0.8660
vn -0.0000 0.0000 1.0000
vn 0.5000 0.0000 0.8660
vn 0.8660 0.0000 0.5000
vn 0.5635 0.7594 -0.3253
vn 0.6507 0.7594 0.0000
vn 0.3253 0.7594 -0.5635
vn -0.0000 0.7594 -0.6507
vn -0.3253 0.7594 -0.5635
vn -0.5635 0.7594 -0.3253
vn -0.6507 0.7594 -0.0000
vn -0.5635 0.7594 0.3253
vn -0.3253 0.7594 0.5635
vn -0.0000 0.7594 0.6507
vn 0.3253 0.7594 0.5635
vn 0.5635 0.7594 0.3253
vn -0.5523 0.7703 0.3189
vn -0.6377 0.7703 0.0000
vn -0.3189 0.7703 0.5523
vn 0.0000 0.7703 0.6377
vn 0.3189 0.7703 0.5523
vn 0.5523 0.7703 0.3189
vn 0.6377 0.7703 0.0000
vn 0.5523 0.7703 -0.3189
vn 0.3189 0.7703 -0.5523
vn 0.0000 0.7703 -0.6377
vn -0.3189 0.7703 -0.5522
vn -0.5522 0.7703 -0.3189
# 186 vertex normals

vt 0.4450 0.0000 0.2679
vt 0.2440 0.0000 -0.2680
vt 0.1116 0.0000 -0.7321
vt 0.0833 0.0000 -1.0000
vt 0.1667 0.0000 -1.0000
vt 0.3393 0.0000 -0.7321
vt 0.5550 0.0000 -0.2679
vt 0.7560 0.0000 0.2679
vt 0.8884 0.0000 0.7321
vt 0.9167 0.0000 1.0000
vt 0.8333 0.0000 1.0000
vt 0.7500 0.0000 1.0000
vt 0.8333 1.0000 1.0000
vt 0.7500 1.0000 1.0000
vt 0.9167 1.0000 1.0000
vt -0.0833 0.0000 1.0000
vt 0.0000 0.0000 1.0000
vt 0.0000 1.0000 1.0000
vt -0.0833 1.0000 1.0000
vt 0.0833 0.0000 1.0000
vt 0.0833 1.0000 1.0000
vt 0.1667 0.0000 1.0000
vt 0.1667 1.0000 1.0000
vt 0.2500 0.0000 1.0000
vt 0.2500 1.0000 1.0000
vt 0.3333 0.0000 1.0000
vt 0.3333 1.0000 1.0000
vt 0.4167 0.0000 1.0000
vt 0.4167 1.0000 1.0000
vt 0.5000 0.0000 1.0000
vt 0.5000 1.0000 1.0000
vt 0.5833 0.0000 1.0000
vt 0.5833 1.0000 1.0000
vt 0.6667 0.0000 1.0000
vt 0.6667 1.0000 1.0000
vt 0.8884 1.0000 0.7321
vt 0.7560 1.0000 0.2679
vt 0.5550 1.0000 -0.2679
vt 0.3393 1.0000 -0.7321
vt 0.1667 1.0000 -1.0000
vt 0.0833 1.0000 -1.0000
vt 0.1116 1.0000 -0.7321
vt 0.2440 1.0000 -0.2679
# 43 texture coords

o Vase_03
g Vase_03
usemtl wire_154185229
s 1
f 1/1/1 2/2/2 3/3/3 4/4/4 5/5/5 6/6/6 7/7/7 8/8/8 9/9/9 10/10/10 11/11/11 12/12/12 
s 8
f 12/12/12 11/11/11 13/13/13 14/14/14 
f 11/11/11 10/10/10 15/15/15 13/13/13 
f 10/16/10 9/17/9 16/18/16 15/19/15 
f 9/17/9 8/20/8 17/21/17 16/18/16 
f 8/20/8 7/22/7 18/23/18 17/21/17 
f 7/22/7 6/24/6 19/25/19 18/23/18 
f 6/24/6 5/26/5 20/27/20 19/25/19 
f 5/26/5 4/28/4 21/29/21 20/27/20 
f 4/28/4 3/30/3 22/31/22 21/29/21 
f 3/30/3 2/32/2 23/33/23 22/31/22 
f 2/32/2 1/34/1 24/35/24 23/33/23 
f 1/34/1 12/12/12 14/14/14 24/35/24 
s 1
f 25/35/25 26/14/26 27/13/20 28/15/27 29/36/28 30/37/23 31/38/24 32/39/14 33/40/13 34/41/15 35/42/29 36/43/30 
s off
f 14/14/14 13/13/13 37/13/31 38/14/32 
f 13/13/13 15/15/15 39/15/33 37/13/31 
f 15/15/15 16/36/16 40/36/34 39/15/33 
f 16/36/16 17/37/17 41/37/35 40/36/34 
f 17/37/17 18/38/18 42/38/36 41/37/35 
f 18/38/18 19/39/19 43/39/37 42/38/36 
f 19/39/19 20/40/20 44/40/38 43/39/37 
f 20/40/20 21/41/21 45/41/39 44/40/38 
f 21/41/21 22/42/22 46/42/40 45/41/39 
f 22/42/22 23/43/23 47/43/41 46/42/40 
f 23/43/23 24/35/24 48/35/42 47/43/41 
f 24/35/24 14/14/14 38/14/32 48/35/42 
f 38/14/32 37/13/31 49/13/43 50/14/44 
f 37/13/31 39/15/33 51/15/45 49/13/43 
f 39/15/33 40/36/34 52/36/46 51/15/45 
f 40/36/34 41/37/35 53/37/47 52/36/46 
f 41/37/35 42/38/36 54/38/48 53/37/47 
f 42/38/36 43/39/37 55/39/49 54/38/48 
f 43/39/37 44/40/38 56/40/50 55/39/49 
f 44/40/38 45/41/39 57/41/51 56/40/50 
f 45/41/39 46/42/40 58/42/52 57/41/51 
f 46/42/40 47/43/41 59/43/53 58/42/52 
f 47/43/41 48/35/42 60/35/54 59/43/53 
f 48/35/42 38/14/32 50/14/44 60/35/54 
f 61/13/55 62/13/56 63/14/57 64/14/58 
f 65/15/59 66/15/60 62/13/56 61/13/55 
f 67/36/61 68/36/62 66/15/60 65/15/59 
f 69/37/63 70/37/64 68/36/62 67/36/61 
f 71/38/65 72/38/66 70/37/64 69/37/63 
f 73/39/67 74/39/68 72/38/66 71/38/65 
f 75/40/69 76/40/70 74/39/68 73/39/67 
f 77/41/71 78/41/72 76/40/70 75/40/69 
f 79/42/73 80/42/74 78/41/72 77/41/71 
f 81/43/75 82/43/76 80/42/74 79/42/73 
f 83/35/77 84/35/78 82/43/76 81/43/75 
f 64/14/58 63/14/57 84/35/78 83/35/77 
f 62/13/56 85/13/79 86/14/80 63/14/57 
f 64/14/58 50/14/44 49/13/43 61/13/55 
f 66/15/60 87/15/81 85/13/79 62/13/56 
f 61/13/55 49/13/43 51/15/45 65/15/59 
f 68/36/62 88/36/82 87/15/81 66/15/60 
f 65/15/59 51/15/45 52/36/46 67/36/61 
f 70/37/64 89/37/83 88/36/82 68/36/62 
f 67/36/61 52/36/46 53/37/47 69/37/63 
f 72/38/66 90/38/84 89/37/83 70/37/64 
f 69/37/63 53/37/47 54/38/48 71/38/65 
f 74/39/68 91/39/85 90/38/84 72/38/66 
f 71/38/65 54/38/48 55/39/49 73/39/67 
f 76/40/70 92/40/86 91/39/85 74/39/68 
f 73/39/67 55/39/49 56/40/50 75/40/69 
f 78/41/72 93/41/87 92/40/86 76/40/70 
f 75/40/69 56/40/50 57/41/51 77/41/71 
f 80/42/74 94/42/88 93/41/87 78/41/72 
f 77/41/71 57/41/51 58/42/52 79/42/73 
f 82/43/76 95/43/89 94/42/88 80/42/74 
f 79/42/73 58/42/52 59/43/53 81/43/75 
f 84/35/78 96/35/90 95/43/89 82/43/76 
f 81/43/75 59/43/53 60/35/54 83/35/77 
f 63/14/57 86/14/80 96/35/90 84/35/78 
f 83/35/77 60/35/54 50/14/44 64/14/58 
f 97/13/91 98/13/92 99/14/93 100/14/94 
f 101/15/95 102/15/96 98/13/92 97/13/91 
f 103/36/97 104/36/98 102/15/96 101/15/95 
f 105/37/99 106/37/100 104/36/98 103/36/97 
f 107/38/101 108/38/102 106/37/100 105/37/99 
f 109/39/103 110/39/104 108/38/102 107/38/101 
f 111/40/105 112/40/106 110/39/104 109/39/103 
f 113/41/107 114/41/108 112/40/106 111/40/105 
f 115/42/109 116/42/110 114/41/108 113/41/107 
f 117/43/111 118/43/112 116/42/110 115/42/109 
f 119/35/113 120/35/114 118/43/112 117/43/111 
f 100/14/94 99/14/93 120/35/114 119/35/113 
f 121/13/115 122/13/116 123/14/117 124/14/118 
f 98/13/92 121/13/115 124/14/118 99/14/93 
f 100/14/94 86/14/80 85/13/79 97/13/91 
f 125/15/119 126/15/120 122/13/116 121/13/115 
f 102/15/96 125/15/119 121/13/115 98/13/92 
f 97/13/91 85/13/79 87/15/81 101/15/95 
f 127/36/121 128/36/122 126/15/120 125/15/119 
f 104/36/98 127/36/121 125/15/119 102/15/96 
f 101/15/95 87/15/81 88/36/82 103/36/97 
f 129/37/123 130/37/124 128/36/122 127/36/121 
f 106/37/100 129/37/123 127/36/121 104/36/98 
f 103/36/97 88/36/82 89/37/83 105/37/99 
f 131/38/125 132/38/126 130/37/124 129/37/123 
f 108/38/102 131/38/125 129/37/123 106/37/100 
f 105/37/99 89/37/83 90/38/84 107/38/101 
f 133/39/127 134/39/128 132/38/126 131/38/125 
f 110/39/104 133/39/127 131/38/125 108/38/102 
f 107/38/101 90/38/84 91/39/85 109/39/103 
f 135/40/129 136/40/130 134/39/128 133/39/127 
f 112/40/106 135/40/129 133/39/127 110/39/104 
f 109/39/103 91/39/85 92/40/86 111/40/105 
f 137/41/131 138/41/132 136/40/130 135/40/129 
f 114/41/108 137/41/131 135/40/129 112/40/106 
f 111/40/105 92/40/86 93/41/87 113/41/107 
f 139/42/133 140/42/134 138/41/132 137/41/131 
f 116/42/110 139/42/133 137/41/131 114/41/108 
f 113/41/107 93/41/87 94/42/88 115/42/109 
f 141/43/135 142/43/136 140/42/134 139/42/133 
f 118/43/112 141/43/135 139/42/133 116/42/110 
f 115/42/109 94/42/88 95/43/89 117/43/111 
f 143/35/137 144/35/138 142/43/136 141/43/135 
f 120/35/114 143/35/137 141/43/135 118/43/112 
f 117/43/111 95/43/89 96/35/90 119/35/113 
f 124/14/118 123/14/117 144/35/138 143/35/137 
f 99/14/93 124/14/118 143/35/137 120/35/114 
f 119/35/113 96/35/90 86/14/80 100/14/94 
f 123/14/117 122/13/116 145/13/139 146/14/140 
f 122/13/116 126/15/120 147/15/141 145/13/139 
f 126/15/120 128/36/122 148/36/142 147/15/141 
f 128/36/122 130/37/124 149/37/143 148/36/142 
f 130/37/124 132/38/126 150/38/144 149/37/143 
f 132/38/126 134/39/128 151/39/145 150/38/144 
f 134/39/128 136/40/130 152/40/146 151/39/145 
f 136/40/130 138/41/132 153/41/147 152/40/146 
f 138/41/132 140/42/134 154/42/148 153/41/147 
f 140/42/134 142/43/136 155/43/149 154/42/148 
f 142/43/136 144/35/138 156/35/150 155/43/149 
f 144/35/138 123/14/117 146/14/140 156/35/150 
f 146/14/140 145/13/139 157/13/151 158/14/152 
f 145/13/139 147/15/141 159/15/153 157/13/151 
f 147/15/141 148/36/142 160/36/154 159/15/153 
f 148/36/142 149/37/143 161/37/155 160/36/154 
f 149/37/143 150/38/144 162/38/156 161/37/155 
f 150/38/144 151/39/145 163/39/157 162/38/156 
f 151/39/145 152/40/146 164/40/158 163/39/157 
f 152/40/146 153/41/147 165/41/159 164/40/158 
f 153/41/147 154/42/148 166/42/160 165/41/159 
f 154/42/148 155/43/149 167/43/161 166/42/160 
f 155/43/149 156/35/150 168/35/162 167/43/161 
f 156/35/150 146/14/140 158/14/152 168/35/162 
f 157/13/151 169/13/163 170/14/164 158/14/152 
f 159/15/153 171/15/165 169/13/163 157/13/151 
f 160/36/154 172/36/166 171/15/165 159/15/153 
f 161/37/155 173/37/167 172/36/166 160/36/154 
f 162/38/156 174/38/168 173/37/167 161/37/155 
f 163/39/157 175/39/169 174/38/168 162/38/156 
f 164/40/158 176/40/170 175/39/169 163/39/157 
f 165/41/159 177/41/171 176/40/170 164/40/158 
f 166/42/160 178/42/172 177/41/171 165/41/159 
f 167/43/161 179/43/173 178/42/172 166/42/160 
f 168/35/162 180/35/174 179/43/173 167/43/161 
f 158/14/152 170/14/164 180/35/174 168/35/162 
f 170/14/164 169/13/163 181/13/175 182/14/176 
f 169/13/163 171/15/165 183/15/177 181/13/175 
f 171/15/165 172/36/166 184/36/178 183/15/177 
f 172/36/166 173/37/167 185/37/179 184/36/178 
f 173/37/167 174/38/168 186/38/180 185/37/179 
f 174/38/168 175/39/169 187/39/181 186/38/180 
f 175/39/169 176/40/170 188/40/182 187/39/181 
f 176/40/170 177/41/171 189/41/183 188/40/182 
f 177/41/171 178/42/172 190/42/184 189/41/183 
f 178/42/172 179/43/173 191/43/185 190/42/184 
f 179/43/173 180/35/174 192/35/186 191/43/185 
f 180/35/174 170/14/164 182/14/176 192/35/186 
f 182/14/176 181/13/175 27/13/20 26/14/26 
f 181/13/175 183/15/177 28/15/27 27/13/20 
f 183/15/177 184/36/178 29/36/28 28/15/27 
f 184/36/178 185/37/179 30/37/23 29/36/28 
f 185/37/179 186/38/180 31/38/24 30/37/23 
f 186/38/180 187/39/181 32/39/14 31/38/24 
f 187/39/181 188/40/182 33/40/13 32/39/14 
f 188/40/182 189/41/183 34/41/15 33/40/13 
f 189/41/183 190/42/184 35/42/29 34/41/15 
f 190/42/184 191/43/185 36/43/30 35/42/29 
f 191/43/185 192/35/186 25/35/25 36/43/30 
f 192/35/186 182/14/176 26/14/26 25/35/25 
# 182 polygons

