# 3ds Max Wavefront OBJ Exporter v0.97b - (c)2007 guruware
# File Created: 01.03.2021 09:33:35

mtllib Vase_01.mtl

#
# object Vase_01
#

v  0.1321 0.0000 0.0762
v  0.0762 0.0000 0.1321
v  -0.0000 0.0000 0.1525
v  -0.0762 0.0000 0.1321
v  -0.1321 0.0000 0.0762
v  -0.1525 0.0000 -0.0000
v  -0.1321 0.0000 -0.0762
v  -0.0762 0.0000 -0.1321
v  -0.0000 0.0000 -0.1525
v  0.0762 0.0000 -0.1321
v  0.1321 0.0000 -0.0762
v  0.1525 0.0000 -0.0000
v  0.2177 0.0812 -0.1257
v  0.2670 0.2393 -0.1561
v  0.3083 0.2393 -0.0000
v  0.2513 0.0812 0.0000
v  0.1257 0.0812 -0.2177
v  0.1542 0.2393 -0.2704
v  -0.0000 0.0812 -0.2513
v  0.0000 0.2393 -0.3122
v  -0.1257 0.0812 -0.2177
v  -0.1542 0.2393 -0.2704
v  -0.2177 0.0812 -0.1257
v  -0.2670 0.2393 -0.1561
v  -0.2513 0.0812 -0.0000
v  -0.3083 0.2393 -0.0000
v  -0.2177 0.0812 0.1257
v  -0.2670 0.2393 0.1561
v  -0.1257 0.0812 0.2177
v  -0.1542 0.2393 0.2704
v  -0.0000 0.0812 0.2513
v  0.0000 0.2393 0.3122
v  0.1257 0.0812 0.2177
v  0.1542 0.2393 0.2704
v  0.2177 0.0812 0.1257
v  0.2670 0.2393 0.1561
v  0.2022 0.2294 0.1168
v  0.2335 0.2294 -0.0000
v  0.2022 0.2294 -0.1168
v  0.1168 0.2294 -0.2022
v  -0.0000 0.2294 -0.2335
v  -0.1168 0.2294 -0.2022
v  -0.2022 0.2294 -0.1168
v  -0.2335 0.2294 -0.0000
v  -0.2022 0.2294 0.1168
v  -0.1168 0.2294 0.2022
v  -0.0000 0.2294 0.2335
v  0.1168 0.2294 0.2022
v  0.2363 0.5327 -0.1364
v  0.2642 0.6680 -0.1525
v  0.3051 0.6680 -0.0000
v  0.2728 0.5327 0.0000
v  0.2826 0.3974 -0.1632
v  0.3263 0.3974 -0.0000
v  0.1364 0.5327 -0.2363
v  0.1525 0.6680 -0.2642
v  0.1632 0.3974 -0.2826
v  -0.0000 0.5327 -0.2728
v  0.0000 0.6680 -0.3051
v  0.0000 0.3974 -0.3263
v  -0.1364 0.5327 -0.2363
v  -0.1525 0.6680 -0.2642
v  -0.1632 0.3974 -0.2826
v  -0.2363 0.5327 -0.1364
v  -0.2642 0.6680 -0.1525
v  -0.2826 0.3974 -0.1632
v  -0.2728 0.5327 -0.0000
v  -0.3051 0.6680 -0.0000
v  -0.3263 0.3974 -0.0000
v  -0.2363 0.5327 0.1364
v  -0.2642 0.6680 0.1525
v  -0.2826 0.3974 0.1632
v  -0.1364 0.5327 0.2363
v  -0.1525 0.6680 0.2642
v  -0.1632 0.3974 0.2826
v  -0.0000 0.5327 0.2728
v  -0.0000 0.6680 0.3051
v  -0.0000 0.3974 0.3263
v  0.1364 0.5327 0.2363
v  0.1525 0.6680 0.2642
v  0.1632 0.3974 0.2826
v  0.2363 0.5327 0.1364
v  0.2642 0.6680 0.1525
v  0.2826 0.3974 0.1632
v  0.2899 0.8034 -0.1674
v  0.3825 0.9387 -0.2208
v  0.4417 0.9387 -0.0000
v  0.3348 0.8034 -0.0000
v  0.1674 0.8034 -0.2899
v  0.2208 0.9387 -0.3825
v  0.0000 0.8034 -0.3348
v  -0.0000 0.9387 -0.4417
v  -0.1674 0.8034 -0.2899
v  -0.2208 0.9387 -0.3825
v  -0.2899 0.8034 -0.1674
v  -0.3825 0.9387 -0.2208
v  -0.3348 0.8034 -0.0000
v  -0.4417 0.9387 -0.0000
v  -0.2899 0.8034 0.1674
v  -0.3825 0.9387 0.2208
v  -0.1674 0.8034 0.2899
v  -0.2208 0.9387 0.3825
v  -0.0000 0.8034 0.3348
v  -0.0000 0.9387 0.4417
v  0.1674 0.8034 0.2899
v  0.2208 0.9387 0.3825
v  0.2899 0.8034 0.1674
v  0.3825 0.9387 0.2208
v  0.2727 0.9387 -0.1574
v  0.3149 0.9387 -0.0000
v  0.1574 0.9387 -0.2727
v  -0.0000 0.9387 -0.3149
v  -0.1574 0.9387 -0.2727
v  -0.2727 0.9387 -0.1574
v  -0.3149 0.9387 -0.0000
v  -0.2727 0.9387 0.1574
v  -0.1574 0.9387 0.2727
v  -0.0000 0.9387 0.3149
v  0.1574 0.9387 0.2727
v  0.2727 0.9387 0.1574
# 120 vertices

vn 0.3334 -0.9229 0.1925
vn 0.1925 -0.9229 0.3334
vn -0.0000 -0.9229 0.3850
vn -0.1925 -0.9229 0.3334
vn -0.3334 -0.9229 0.1925
vn -0.3850 -0.9229 -0.0000
vn -0.3334 -0.9229 -0.1925
vn -0.1925 -0.9229 -0.3334
vn -0.0000 -0.9229 -0.3850
vn 0.1925 -0.9229 -0.3334
vn 0.3334 -0.9229 -0.1925
vn 0.3850 -0.9229 0.0000
vn 0.7185 -0.5591 -0.4137
vn 0.8457 -0.2231 -0.4849
vn 0.9747 -0.2236 0.0000
vn 0.8307 -0.5568 0.0000
vn 0.4138 -0.5639 -0.7147
vn 0.4900 -0.2220 -0.8430
vn -0.0000 -0.5662 -0.8243
vn 0.0000 -0.2214 -0.9752
vn -0.4138 -0.5639 -0.7147
vn -0.4900 -0.2220 -0.8430
vn -0.7185 -0.5591 -0.4137
vn -0.8457 -0.2231 -0.4849
vn -0.8307 -0.5568 -0.0000
vn -0.9747 -0.2236 -0.0000
vn -0.7185 -0.5591 0.4137
vn -0.8457 -0.2231 0.4849
vn -0.4138 -0.5639 0.7147
vn -0.4900 -0.2220 0.8430
vn -0.0000 -0.5662 0.8243
vn -0.0000 -0.2214 0.9752
vn 0.4138 -0.5639 0.7148
vn 0.4900 -0.2220 0.8430
vn 0.7185 -0.5591 0.4137
vn 0.8457 -0.2231 0.4849
vn -0.6227 0.6950 -0.3595
vn -0.7190 0.6950 -0.0000
vn -0.6227 0.6950 0.3595
vn -0.3595 0.6950 0.6227
vn 0.0000 0.6950 0.7190
vn 0.3595 0.6950 0.6227
vn 0.6227 0.6950 0.3595
vn 0.7190 0.6950 0.0000
vn 0.6227 0.6950 -0.3595
vn 0.3595 0.6950 -0.6227
vn 0.0000 0.6950 -0.7190
vn -0.3595 0.6950 -0.6227
vn 0.8636 0.0751 -0.4986
vn 0.8442 -0.2228 -0.4874
vn 0.9749 -0.2228 0.0000
vn 0.9972 0.0751 0.0000
vn 0.8592 0.1292 -0.4950
vn 0.9920 0.1263 0.0000
vn 0.4986 0.0751 -0.8636
vn 0.4874 -0.2228 -0.8442
vn 0.4962 0.1352 -0.8576
vn -0.0000 0.0751 -0.9972
vn 0.0000 -0.2228 -0.9749
vn 0.0000 0.1382 -0.9904
vn -0.4986 0.0751 -0.8636
vn -0.4874 -0.2228 -0.8442
vn -0.4962 0.1352 -0.8576
vn -0.8636 0.0751 -0.4986
vn -0.8442 -0.2228 -0.4874
vn -0.8592 0.1292 -0.4950
vn -0.9972 0.0751 -0.0000
vn -0.9749 -0.2228 0.0000
vn -0.9920 0.1263 -0.0000
vn -0.8636 0.0751 0.4986
vn -0.8442 -0.2228 0.4874
vn -0.8592 0.1292 0.4950
vn -0.4986 0.0751 0.8636
vn -0.4874 -0.2228 0.8442
vn -0.4962 0.1352 0.8576
vn -0.0000 0.0751 0.9972
vn -0.0000 -0.2228 0.9749
vn -0.0000 0.1382 0.9904
vn 0.4986 0.0751 0.8636
vn 0.4874 -0.2228 0.8442
vn 0.4962 0.1352 0.8576
vn 0.8636 0.0751 0.4986
vn 0.8442 -0.2228 0.4874
vn 0.8592 0.1292 0.4950
vn 0.7764 -0.4431 -0.4482
vn 0.7986 0.3867 -0.4611
vn 0.9222 0.3867 0.0000
vn 0.8965 -0.4431 0.0000
vn 0.4482 -0.4431 -0.7764
vn 0.4611 0.3867 -0.7986
vn 0.0000 -0.4431 -0.8965
vn -0.0000 0.3867 -0.9222
vn -0.4482 -0.4431 -0.7764
vn -0.4611 0.3867 -0.7986
vn -0.7764 -0.4431 -0.4482
vn -0.7986 0.3867 -0.4611
vn -0.8965 -0.4431 -0.0000
vn -0.9222 0.3867 -0.0000
vn -0.7764 -0.4431 0.4482
vn -0.7986 0.3867 0.4611
vn -0.4482 -0.4431 0.7764
vn -0.4611 0.3867 0.7986
vn -0.0000 -0.4431 0.8965
vn -0.0000 0.3867 0.9222
vn 0.4482 -0.4431 0.7764
vn 0.4611 0.3867 0.7986
vn 0.7764 -0.4431 0.4482
vn 0.7986 0.3867 0.4611
vn -0.5147 0.8042 0.2972
vn -0.5943 0.8042 -0.0000
vn -0.2972 0.8042 0.5147
vn 0.0000 0.8042 0.5943
vn 0.2972 0.8042 0.5147
vn 0.5147 0.8042 0.2972
vn 0.5943 0.8042 -0.0000
vn 0.5147 0.8042 -0.2972
vn 0.2972 0.8042 -0.5147
vn 0.0000 0.8042 -0.5943
vn -0.2972 0.8042 -0.5147
vn -0.5147 0.8042 -0.2972
# 120 vertex normals

vt 0.4450 0.0000 0.2679
vt 0.2440 0.0000 -0.2679
vt 0.1116 0.0000 -0.7321
vt 0.0833 0.0000 -1.0000
vt 0.1667 0.0000 -1.0000
vt 0.3393 0.0000 -0.7321
vt 0.5550 0.0000 -0.2679
vt 0.7560 0.0000 0.2679
vt 0.8884 0.0000 0.7321
vt 0.9167 0.0000 1.0000
vt 0.8333 0.0000 1.0000
vt 0.7500 0.0000 1.0000
vt 0.8333 0.2500 1.0000
vt 0.8333 0.5000 1.0000
vt 0.7500 0.5000 1.0000
vt 0.7500 0.2500 1.0000
vt 0.9167 0.2500 1.0000
vt 0.9167 0.5000 1.0000
vt 0.0000 0.2500 1.0000
vt 0.0000 0.5000 1.0000
vt -0.0833 0.5000 1.0000
vt -0.0833 0.2500 1.0000
vt 0.0833 0.2500 1.0000
vt 0.0833 0.5000 1.0000
vt 0.1667 0.2500 1.0000
vt 0.1667 0.5000 1.0000
vt 0.2500 0.2500 1.0000
vt 0.2500 0.5000 1.0000
vt 0.3333 0.2500 1.0000
vt 0.3333 0.5000 1.0000
vt 0.4167 0.2500 1.0000
vt 0.4167 0.5000 1.0000
vt 0.5000 0.2500 1.0000
vt 0.5000 0.5000 1.0000
vt 0.5833 0.2500 1.0000
vt 0.5833 0.5000 1.0000
vt 0.6667 0.2500 1.0000
vt 0.6667 0.5000 1.0000
vt 0.6667 1.0000 1.0000
vt 0.7500 1.0000 1.0000
vt 0.8333 1.0000 1.0000
vt 0.9167 1.0000 1.0000
vt 0.8884 1.0000 0.7321
vt 0.7560 1.0000 0.2679
vt 0.5550 1.0000 -0.2679
vt 0.3393 1.0000 -0.7321
vt 0.1667 1.0000 -1.0000
vt 0.0833 1.0000 -1.0000
vt 0.1116 1.0000 -0.7321
vt 0.2440 1.0000 -0.2679
vt 0.8333 0.8125 1.0000
vt 0.8333 0.8750 1.0000
vt 0.7500 0.8750 1.0000
vt 0.7500 0.8125 1.0000
vt 0.8333 0.7500 1.0000
vt 0.7500 0.7500 1.0000
vt 0.9167 0.8125 1.0000
vt 0.9167 0.8750 1.0000
vt 0.9167 0.7500 1.0000
vt 0.0000 0.8125 1.0000
vt 0.0000 0.8750 1.0000
vt -0.0833 0.8750 1.0000
vt -0.0833 0.8125 1.0000
vt 0.0000 0.7500 1.0000
vt -0.0833 0.7500 1.0000
vt -0.0833 0.0000 1.0000
vt 0.0000 0.0000 1.0000
vt 0.0833 0.8125 1.0000
vt 0.0833 0.8750 1.0000
vt 0.0833 0.7500 1.0000
vt 0.0833 0.0000 1.0000
vt 0.1667 0.8125 1.0000
vt 0.1667 0.8750 1.0000
vt 0.1667 0.7500 1.0000
vt 0.1667 0.0000 1.0000
vt 0.2500 0.8125 1.0000
vt 0.2500 0.8750 1.0000
vt 0.2500 0.7500 1.0000
vt 0.2500 0.0000 1.0000
vt 0.3333 0.8125 1.0000
vt 0.3333 0.8750 1.0000
vt 0.3333 0.7500 1.0000
vt 0.3333 0.0000 1.0000
vt 0.4167 0.8125 1.0000
vt 0.4167 0.8750 1.0000
vt 0.4167 0.7500 1.0000
vt 0.4167 0.0000 1.0000
vt 0.5000 0.8125 1.0000
vt 0.5000 0.8750 1.0000
vt 0.5000 0.7500 1.0000
vt 0.5000 0.0000 1.0000
vt 0.5833 0.8125 1.0000
vt 0.5833 0.8750 1.0000
vt 0.5833 0.7500 1.0000
vt 0.5833 0.0000 1.0000
vt 0.6667 0.8125 1.0000
vt 0.6667 0.8750 1.0000
vt 0.6667 0.7500 1.0000
vt 0.6667 0.0000 1.0000
vt 0.8333 0.9375 1.0000
vt 0.7500 0.9375 1.0000
vt 0.9167 0.9375 1.0000
vt 0.0000 0.9375 1.0000
vt 0.0000 1.0000 1.0000
vt -0.0833 1.0000 1.0000
vt -0.0833 0.9375 1.0000
vt 0.0833 0.9375 1.0000
vt 0.0833 1.0000 1.0000
vt 0.1667 0.9375 1.0000
vt 0.1667 1.0000 1.0000
vt 0.2500 0.9375 1.0000
vt 0.2500 1.0000 1.0000
vt 0.3333 0.9375 1.0000
vt 0.3333 1.0000 1.0000
vt 0.4167 0.9375 1.0000
vt 0.4167 1.0000 1.0000
vt 0.5000 0.9375 1.0000
vt 0.5000 1.0000 1.0000
vt 0.5833 0.9375 1.0000
vt 0.5833 1.0000 1.0000
vt 0.6667 0.9375 1.0000
# 121 texture coords

o Vase_01
g Vase_01
usemtl wire_154215229
s 1
f 1/1/1 2/2/2 3/3/3 4/4/4 5/5/5 6/6/6 7/7/7 8/8/8 9/9/9 10/10/10 11/11/11 12/12/12 
s 8
f 13/13/13 14/14/14 15/15/15 16/16/16 
f 17/17/17 18/18/18 14/14/14 13/13/13 
f 19/19/19 20/20/20 18/21/18 17/22/17 
f 21/23/21 22/24/22 20/20/20 19/19/19 
f 23/25/23 24/26/24 22/24/22 21/23/21 
f 25/27/25 26/28/26 24/26/24 23/25/23 
f 27/29/27 28/30/28 26/28/26 25/27/25 
f 29/31/29 30/32/30 28/30/28 27/29/27 
f 31/33/31 32/34/32 30/32/30 29/31/29 
f 33/35/33 34/36/34 32/34/32 31/33/31 
f 35/37/35 36/38/36 34/36/34 33/35/33 
f 16/16/16 15/15/15 36/38/36 35/37/35 
s 1
f 37/39/37 38/40/38 39/41/39 40/42/40 41/43/41 42/44/42 43/45/43 44/46/44 45/47/45 46/48/46 47/49/47 48/50/48 
s 8
f 49/51/49 50/52/50 51/53/51 52/54/52 
f 14/14/14 53/55/53 54/56/54 15/15/15 
f 16/16/16 12/12/12 11/11/11 13/13/13 
f 55/57/55 56/58/56 50/52/50 49/51/49 
f 18/18/18 57/59/57 53/55/53 14/14/14 
f 13/13/13 11/11/11 10/10/10 17/17/17 
f 58/60/58 59/61/59 56/62/56 55/63/55 
f 20/20/20 60/64/60 57/65/57 18/21/18 
f 17/22/17 10/66/10 9/67/9 19/19/19 
f 61/68/61 62/69/62 59/61/59 58/60/58 
f 22/24/22 63/70/63 60/64/60 20/20/20 
f 19/19/19 9/67/9 8/71/8 21/23/21 
f 64/72/64 65/73/65 62/69/62 61/68/61 
f 24/26/24 66/74/66 63/70/63 22/24/22 
f 21/23/21 8/71/8 7/75/7 23/25/23 
f 67/76/67 68/77/68 65/73/65 64/72/64 
f 26/28/26 69/78/69 66/74/66 24/26/24 
f 23/25/23 7/75/7 6/79/6 25/27/25 
f 70/80/70 71/81/71 68/77/68 67/76/67 
f 28/30/28 72/82/72 69/78/69 26/28/26 
f 25/27/25 6/79/6 5/83/5 27/29/27 
f 73/84/73 74/85/74 71/81/71 70/80/70 
f 30/32/30 75/86/75 72/82/72 28/30/28 
f 27/29/27 5/83/5 4/87/4 29/31/29 
f 76/88/76 77/89/77 74/85/74 73/84/73 
f 32/34/32 78/90/78 75/86/75 30/32/30 
f 29/31/29 4/87/4 3/91/3 31/33/31 
f 79/92/79 80/93/80 77/89/77 76/88/76 
f 34/36/34 81/94/81 78/90/78 32/34/32 
f 31/33/31 3/91/3 2/95/2 33/35/33 
f 82/96/82 83/97/83 80/93/80 79/92/79 
f 36/38/36 84/98/84 81/94/81 34/36/34 
f 33/35/33 2/95/2 1/99/1 35/37/35 
f 52/54/52 51/53/51 83/97/83 82/96/82 
f 15/15/15 54/56/54 84/98/84 36/38/36 
f 35/37/35 1/99/1 12/12/12 16/16/16 
f 85/100/85 86/41/86 87/40/87 88/101/88 
f 50/52/50 85/100/85 88/101/88 51/53/51 
f 52/54/52 54/56/54 53/55/53 49/51/49 
f 89/102/89 90/42/90 86/41/86 85/100/85 
f 56/58/56 89/102/89 85/100/85 50/52/50 
f 49/51/49 53/55/53 57/59/57 55/57/55 
f 91/103/91 92/104/92 90/105/90 89/106/89 
f 59/61/59 91/103/91 89/106/89 56/62/56 
f 55/63/55 57/65/57 60/64/60 58/60/58 
f 93/107/93 94/108/94 92/104/92 91/103/91 
f 62/69/62 93/107/93 91/103/91 59/61/59 
f 58/60/58 60/64/60 63/70/63 61/68/61 
f 95/109/95 96/110/96 94/108/94 93/107/93 
f 65/73/65 95/109/95 93/107/93 62/69/62 
f 61/68/61 63/70/63 66/74/66 64/72/64 
f 97/111/97 98/112/98 96/110/96 95/109/95 
f 68/77/68 97/111/97 95/109/95 65/73/65 
f 64/72/64 66/74/66 69/78/69 67/76/67 
f 99/113/99 100/114/100 98/112/98 97/111/97 
f 71/81/71 99/113/99 97/111/97 68/77/68 
f 67/76/67 69/78/69 72/82/72 70/80/70 
f 101/115/101 102/116/102 100/114/100 99/113/99 
f 74/85/74 101/115/101 99/113/99 71/81/71 
f 70/80/70 72/82/72 75/86/75 73/84/73 
f 103/117/103 104/118/104 102/116/102 101/115/101 
f 77/89/77 103/117/103 101/115/101 74/85/74 
f 73/84/73 75/86/75 78/90/78 76/88/76 
f 105/119/105 106/120/106 104/118/104 103/117/103 
f 80/93/80 105/119/105 103/117/103 77/89/77 
f 76/88/76 78/90/78 81/94/81 79/92/79 
f 107/121/107 108/39/108 106/120/106 105/119/105 
f 83/97/83 107/121/107 105/119/105 80/93/80 
f 79/92/79 81/94/81 84/98/84 82/96/82 
f 88/101/88 87/40/87 108/39/108 107/121/107 
f 51/53/51 88/101/88 107/121/107 83/97/83 
f 82/96/82 84/98/84 54/56/54 52/54/52 
s off
f 87/40/87 86/41/86 109/41/109 110/40/110 
f 86/41/86 90/42/90 111/42/111 109/41/109 
f 90/42/90 92/43/92 112/43/112 111/42/111 
f 92/43/92 94/44/94 113/44/113 112/43/112 
f 94/44/94 96/45/96 114/45/114 113/44/113 
f 96/45/96 98/46/98 115/46/115 114/45/114 
f 98/46/98 100/47/100 116/47/116 115/46/115 
f 100/47/100 102/48/102 117/48/117 116/47/116 
f 102/48/102 104/49/104 118/49/118 117/48/117 
f 104/49/104 106/50/106 119/50/119 118/49/118 
f 106/50/106 108/39/108 120/39/120 119/50/119 
f 108/39/108 87/40/87 110/40/110 120/39/120 
f 110/40/110 109/41/109 39/41/39 38/40/38 
f 109/41/109 111/42/111 40/42/40 39/41/39 
f 111/42/111 112/43/112 41/43/41 40/42/40 
f 112/43/112 113/44/113 42/44/42 41/43/41 
f 113/44/113 114/45/114 43/45/43 42/44/42 
f 114/45/114 115/46/115 44/46/44 43/45/43 
f 115/46/115 116/47/116 45/47/45 44/46/44 
f 116/47/116 117/48/117 46/48/46 45/47/45 
f 117/48/117 118/49/118 47/49/47 46/48/46 
f 118/49/118 119/50/119 48/50/48 47/49/47 
f 119/50/119 120/39/120 37/39/37 48/50/48 
f 120/39/120 110/40/110 38/40/38 37/39/37 
# 110 polygons

